{
.appVersion = "911";
copyright = "Digitized data Copyright (c) 2011-2013, vernon adams.";
customParameters = (
{
name = openTypeNameLicense;
value = "Copyright (c) 2013.\012\012This Font Software is licensed under the SIL Open Font License, Version 1.1.\012This license is copied below, and is also available with a FAQ at:\012http://scripts.sil.org/OFL\012";
},
{
name = openTypeNameLicenseURL;
value = "http://scripts.sil.org/OFL";
},
{
name = vendorID;
value = NeWT;
},
{
name = trademark;
value = "Rokkitt is a trademark of Vernon Adams and may be registered in certain jurisdictions.";
}
);
date = "2016-08-04 09:56:17 +0000";
designer = "Vernon Adams";
designerURL = "http://www.newtypography.co.uk";
familyName = Rokkitt;
featurePrefixes = (
{

glyphs = (
{
glyphname = A;
lastChange = "2016-08-04 09:26:30 +0000";
layers = (
{
anchors = (
{
name = top;
position = "{692, 1152}";
}
);
layerId = "98C086B7-81AA-4491-8494-0C6A76849168";
paths = (
{
closed = 1;
nodes = (
"477 525 LINE",
"688 1101 LINE",
"693 1101 LINE",
"904 525 LINE"
);
},
{
closed = 1;
nodes = (
"87 0 LINE",
"452 0 LINE",
"452 45 LINE",
"303 45 LINE",
"464 482 LINE",
"917 482 LINE",
"1078 45 LINE",
"929 45 LINE",
"929 0 LINE",
"1296 0 LINE",
"1296 45 LINE",
"1143 45 LINE",
"747 1107 LINE",
"896 1107 LINE",
"896 1152 LINE",
"491 1152 LINE",
"491 1107 LINE",
"636 1107 LINE",
"241 45 LINE",
"87 45 LINE"
);
}
);
width = 1383;
},
{
associatedMasterId = "98C086B7-81AA-4491-8494-0C6A76849168";
layerId = "D7E554E2-12AE-47C0-93F2-4A82AEFA7302";
name = b;
width = 1383;
},
{
anchors = (
{
name = top;
position = "{692, 1152}";
}
);
layerId = "BE4F947C-73D7-4684-AEED-17801393DA53";
paths = (
{
closed = 1;
nodes = (
"506 553 LINE",
"677 1042 LINE",
"690 1042 LINE",
"858 553 LINE"
);
},
{
closed = 1;
nodes = (
"58 0 LINE",
"513 0 LINE",
"513 109 LINE",
"358 109 LINE",
"474 445 LINE",
"890 445 LINE",
"1008 109 LINE",
"854 109 LINE",
"854 0 LINE",
"1323 0 LINE",
"1323 109 LINE",
"1184 109 LINE",
"840 1044 LINE",
"972 1044 LINE",
"972 1152 LINE",
"410 1152 LINE",
"410 1044 LINE",
"539 1044 LINE",
"204 109 LINE",
"58 109 LINE"
);
}
);
width = 1382;
},
{
anchors = (
{
name = ogonek;
position = "{1277, 0}";
},
{
name = top;
position = "{814, 1152}";
}
);
layerId = "EFCDB4D9-E20B-4A8D-9DB5-150AD166B0AE";
paths = (
{
closed = 1;
nodes = (
"51 224 LINE",
"51 0 LINE",
"684 0 LINE",
"684 224 LINE",
"516 224 LINE",
"583 412 LINE",
"953 412 LINE",
"1015 224 LINE",
"825 224 LINE",
"825 0 LINE",
"1645 0 LINE",
"1645 224 LINE",
"1482 224 LINE",
"1184 928 LINE",
"1330 928 LINE",
"1330 1152 LINE",
"352 1152 LINE",
"352 928 LINE",
"516 928 LINE",
"210 224 LINE"
);
},
{
closed = 1;
nodes = (
"900 569 LINE",
"631 569 LINE",
"765 908 LINE",
"777 908 LINE"
);
}
);
width = 1697;
}
);
unicode = 0041;
userData = {
com.typemytype.robofont.layerData = {
b = {
anchors = (
);
components = (
);
contours = (
);
lib = {
};
name = A;
unicodes = (
);
width = 1383;
};
};
org.robofab.postScriptHintData = {
};
};
},
{
glyphname = AE;
lastChange = "2016-08-04 09:26:30 +0000";
layers = (
{
anchors = (
{
name = top;
position = "{1247, 1152}";
}
);
layerId = "98C086B7-81AA-4491-8494-0C6A76849168";
paths = (
{
closed = 1;
nodes = (
"156 0 LINE",
"550 0 LINE",
"550 45 LINE",
"403 45 LINE",
"620 435 LINE",
"1100 435 LINE",
"1159 45 LINE",
"997 45 LINE",
"997 0 LINE",
"2013 0 LINE",
"1954 391 LINE",
"1903 391 LINE",
"1954 45 LINE",
"1223 45 LINE",
"1148 544 LINE",
"1587 544 LINE",
"1622 350 LINE",
"1666 350 LINE",
"1596 762 LINE",
"1552 762 LINE",
"1580 589 LINE",
"1142 589 LINE",
"1066 1107 LINE",
"1744 1107 LINE",
"1796 759 LINE",
"1848 759 LINE",
"1791 1152 LINE",
"797 1152 LINE",
"797 1107 LINE",
"936 1107 LINE",
"332 45 LINE",
"156 45 LINE"
);
},
{
closed = 1;
nodes = (
"645 478 LINE",
"994 1107 LINE",
"1004 1107 LINE",
"1096 478 LINE"
);
}
);
width = 2206;
},
{
associatedMasterId = "98C086B7-81AA-4491-8494-0C6A76849168";
layerId = "EDDC02CD-CF2E-4670-9D9C-FA8AD2329010";
name = b;
width = 2243;
},
{
anchors = (
{
name = top;
position = "{1188, 1152}";
}
);
layerId = "BE4F947C-73D7-4684-AEED-17801393DA53";
paths = (
{
closed = 1;
nodes = (
"45 0 LINE",
"517 0 LINE",
"517 109 LINE",
"376 109 LINE",
"556 420 LINE",
"974 420 LINE",
"994 109 LINE",
"837 109 LINE",
"837 0 LINE",
"1867 0 LINE",
"1847 367 LINE",
"1720 367 LINE",
"1737 109 LINE",
"1160 109 LINE",
"1135 531 LINE",
"1500 531 LINE",
"1512 391 LINE",
"1595 391 LINE",
"1571 780 LINE",
"1489 780 LINE",
"1498 645 LINE",
"1132 645 LINE",
"1107 1044 LINE",
"1665 1044 LINE",
"1683 789 LINE",
"1811 789 LINE",
"1792 1152 LINE",
"650 1152 LINE",
"650 1044 LINE",
"775 1044 LINE",
"201 109 LINE",
"45 109 LINE"
);
},
{
closed = 1;
nodes = (
"608 522 LINE",
"923 1044 LINE",
"942 1044 LINE",
"973 522 LINE"
);
}
);
width = 1987;
},
{
anchors = (
{
name = top;
position = "{1277, 1152}";
}
);
layerId = "EFCDB4D9-E20B-4A8D-9DB5-150AD166B0AE";
paths = (
{
closed = 1;
nodes = (
"38 0 LINE",
"659 0 LINE",
"659 224 LINE",
"584 224 LINE",
"674 413 LINE",
"963 413 LINE",
"963 224 LINE",
"830 224 LINE",
"830 0 LINE",
"1960 0 LINE",
"1960 391 LINE",
"1758 391 LINE",
"1758 224 LINE",
"1379 224 LINE",
"1379 524 LINE",
"1503 524 LINE",
"1503 375 LINE",
"1641 375 LINE",
"1641 789 LINE",
"1503 789 LINE",
"1503 625 LINE",
"1378 625 LINE",
"1378 928 LINE",
"1756 928 LINE",
"1756 768 LINE",
"1958 768 LINE",
"1958 1152 LINE",
"474 1152 LINE",
"474 928 LINE",
"592 928 LINE",
"208 224 LINE",
"38 224 LINE"
);
},
{
closed = 1;
nodes = (
"740 544 LINE",
"939 928 LINE",
"963 928 LINE",
"963 544 LINE"
);
}
);
width = 2004;
}
);
unicode = 00C6;
userData = {
com.typemytype.robofont.layerData = {
b = {
anchors = (
);
components = (
);
contours = (
);
lib = {
};
name = AE;
unicodes = (
);
width = 2243;
};
};
org.robofab.postScriptHintData = {
};
};
},
{
glyphname = B;
lastChange = "2016-08-04 09:26:30 +0000";
layers = (
{
anchors = (
{
name = top;
position = "{584, 1152}";
}
);
layerId = "98C086B7-81AA-4491-8494-0C6A76849168";
paths = (
{
closed = 1;
nodes = (
"775 1152 CURVE SMOOTH",
"123 1152 LINE",
"123 1107 LINE",
"297 1107 LINE",
"297 45 LINE",
"123 45 LINE",
"123 0 LINE",
"868 0 LINE SMOOTH",
"1064 0 OFFCURVE",
"1182 132 OFFCURVE",
"1182 316 CURVE SMOOTH",
"1182 445 OFFCURVE",
"1127 578 OFFCURVE",
"938 610 CURVE",
"1047 631 OFFCURVE",
"1112 733 OFFCURVE",
"1112 872 CURVE SMOOTH",
"1112 1059 OFFCURVE",
"993 1152 OFFCURVE"
);
},
{
closed = 1;
nodes = (
"768 1107 LINE",
"955 1107 OFFCURVE",
"1055 1036 OFFCURVE",
"1055 871 CURVE SMOOTH",
"1055 732 OFFCURVE",
"992 629 OFFCURVE",
"832 629 CURVE SMOOTH",
"358 629 LINE",
"358 1107 LINE"
);
},
{
closed = 1;
nodes = (
"358 583 LINE",
"835 583 LINE SMOOTH",
"1034 583 OFFCURVE",
"1122 466 OFFCURVE",
"1122 317 CURVE SMOOTH",
"1122 153 OFFCURVE",
"1023 45 OFFCURVE",
"864 45 CURVE SMOOTH",
"358 45 LINE"
);
}
);
width = 1297;
},
{
associatedMasterId = "98C086B7-81AA-4491-8494-0C6A76849168";
layerId = "166D4EAB-D3CF-4FAC-98E7-8FCD624FEF55";
name = b;
paths = (
{
closed = 1;
nodes = (
"353 1095 LINE",
"740 1095 LINE SMOOTH",
"917 1095 OFFCURVE",
"1004 983 OFFCURVE",
"1004 868 CURVE SMOOTH",
"1004 751 OFFCURVE",
"928 634 OFFCURVE",
"784 634 CURVE SMOOTH",
"353 634 LINE"
);
},
{
closed = 1;
nodes = (
"353 573 LINE",
"793 573 LINE SMOOTH",
"979 573 OFFCURVE",
"1072 439 OFFCURVE",
"1072 320 CURVE SMOOTH",
"1072 187 OFFCURVE",
"985 58 OFFCURVE",
"807 58 CURVE SMOOTH",
"353 58 LINE"
);
},
{
closed = 1;
nodes = (
"807 0 LINE SMOOTH",
"1031 0 OFFCURVE",
"1146 158 OFFCURVE",
"1146 316 CURVE SMOOTH",
"1146 439 OFFCURVE",
"1074 568 OFFCURVE",
"919 611 CURVE",
"1029 669 OFFCURVE",
"1079 769 OFFCURVE",
"1079 870 CURVE SMOOTH",
"1079 1012 OFFCURVE",
"964 1154 OFFCURVE",
"740 1154 CURVE SMOOTH",
"122 1154 LINE",
"122 1095 LINE",
"278 1095 LINE",
"278 58 LINE",
"135 58 LINE",
"135 0 LINE"
);
}
);
width = 1354;
},
{
anchors = (
{
name = top;
position = "{523, 1152}";
}
);
layerId = "BE4F947C-73D7-4684-AEED-17801393DA53";
paths = (
{
closed = 1;
nodes = (
"652 1152 CURVE SMOOTH",
"80 1152 LINE",
"80 1044 LINE",
"240 1044 LINE",
"240 108 LINE",
"80 108 LINE",
"80 0 LINE",
"695 0 LINE SMOOTH",
"1001 0 OFFCURVE",
"1107 161 OFFCURVE",
"1107 326 CURVE SMOOTH",
"1107 464 OFFCURVE",
"1028 575 OFFCURVE",
"872 614 CURVE",
"976 650 OFFCURVE",
"1046 739 OFFCURVE",
"1046 866 CURVE SMOOTH",
"1046 1054 OFFCURVE",
"908 1152 OFFCURVE"
);
},
{
closed = 1;
nodes = (
"605 1044 LINE",
"798 1044 OFFCURVE",
"880 995 OFFCURVE",
"880 860 CURVE SMOOTH",
"880 737 OFFCURVE",
"811 662 OFFCURVE",
"641 662 CURVE SMOOTH",
"407 662 LINE",
"407 1044 LINE"
);
},
{
closed = 1;
nodes = (
"407 549 LINE",
"660 549 LINE SMOOTH",
"850 549 OFFCURVE",
"937 460 OFFCURVE",
"937 332 CURVE SMOOTH",
"937 192 OFFCURVE",
"858 108 OFFCURVE",
"666 108 CURVE SMOOTH",
"407 108 LINE"
);
}
);
width = 1188;
},
{
anchors = (
{
name = top;
position = "{644, 1152}";
}
);
layerId = "EFCDB4D9-E20B-4A8D-9DB5-150AD166B0AE";
paths = (
{
closed = 1;
nodes = (
"41 0 LINE",
"824 0 LINE SMOOTH",
"1292 0 OFFCURVE",
"1412 163 OFFCURVE",
"1412 357 CURVE SMOOTH",
"1412 461 OFFCURVE",
"1364 604 OFFCURVE",
"1108 636 CURVE",
"1278 661 OFFCURVE",
"1350 753 OFFCURVE",
"1350 897 CURVE SMOOTH",
"1350 1031 OFFCURVE",
"1218 1152 OFFCURVE",
"897 1152 CURVE SMOOTH",
"41 1152 LINE",
"41 928 LINE",
"214 928 LINE",
"214 224 LINE",
"41 224 LINE"
);
},
{
closed = 1;
nodes = (
"627 225 LINE",
"627 532 LINE",
"797 532 LINE SMOOTH",
"978 532 OFFCURVE",
"983 440 OFFCURVE",
"983 380 CURVE SMOOTH",
"983 306 OFFCURVE",
"945 225 OFFCURVE",
"800 225 CURVE SMOOTH"
);
},
{
closed = 1;
nodes = (
"627 726 LINE",
"627 928 LINE",
"812 931 LINE SMOOTH",
"893 927 OFFCURVE",
"930 893 OFFCURVE",
"930 834 CURVE SMOOTH",
"930 751 OFFCURVE",
"887 726 OFFCURVE",
"787 726 CURVE SMOOTH"
);
}
);
width = 1495;
}
);
unicode = 0042;
userData = {
com.typemytype.robofont.layerData = {
b = {
anchors = (
);
components = (
);
contours = (
{
points = (
{
segmentType = line;
smooth = 0;
x = 353;
y = 1095;
},
{
segmentType = line;
smooth = 1;
x = 740;
y = 1095;
},
{
smooth = 0;
x = 917;
y = 1095;
},
{
smooth = 0;
x = 1004;
y = 983;
},
{
segmentType = curve;
smooth = 1;
x = 1004;
y = 868;
},
{
smooth = 0;
x = 1004;
y = 751;
},
{
smooth = 0;
x = 928;
y = 634;
},
{
segmentType = curve;
smooth = 1;
x = 784;
y = 634;
},
{
segmentType = line;
smooth = 0;
x = 353;
y = 634;
}
);
},
{
points = (
{
segmentType = line;
smooth = 0;
x = 353;
y = 573;
},
{
segmentType = line;
smooth = 1;
x = 793;
y = 573;
},
{
smooth = 0;
x = 979;
y = 573;
},
{
smooth = 0;
x = 1072;
y = 439;
},
{
segmentType = curve;
smooth = 1;
x = 1072;
y = 320;
},
{
smooth = 0;
x = 1072;
y = 187;
},
{
smooth = 0;
x = 985;
y = 58;
},
{
segmentType = curve;
smooth = 1;
x = 807;
y = 58;
},
{
segmentType = line;
smooth = 0;
x = 353;
y = 58;
}
);
},
{
points = (
{
segmentType = line;
smooth = 1;
x = 807;
y = 0;
},
{
smooth = 0;
x = 1031;
y = 0;
},
{
smooth = 0;
x = 1146;
y = 158;
},
{
segmentType = curve;
smooth = 1;
x = 1146;
y = 316;
},
{
smooth = 0;
x = 1146;
y = 439;
},
{
smooth = 0;
x = 1074;
y = 568;
},
{
segmentType = curve;
smooth = 0;
x = 919;
y = 611;
},
{
smooth = 0;
x = 1029;
y = 669;
},
{
smooth = 0;
x = 1079;
y = 769;
},
{
segmentType = curve;
smooth = 1;
x = 1079;
y = 870;
},
{
smooth = 0;
x = 1079;
y = 1012;
},
{
smooth = 0;
x = 964;
y = 1154;
},
{
segmentType = curve;
smooth = 1;
x = 740;
y = 1154;
},
{
segmentType = line;
smooth = 0;
x = 122;
y = 1154;
},
{
segmentType = line;
smooth = 0;
x = 122;
y = 1095;
},
{
segmentType = line;
smooth = 0;
x = 278;
y = 1095;
},
{
segmentType = line;
smooth = 0;
x = 278;
y = 58;
},
{
segmentType = line;
smooth = 0;
x = 135;
y = 58;
},
{
segmentType = line;
smooth = 0;
x = 135;
y = 0;
}
);
}
);
lib = {
};
name = B;
unicodes = (
);
width = 1354;
};
};
org.robofab.postScriptHintData = {
};
};
},
{
glyphname = C;
lastChange = "2016-08-04 09:26:30 +0000";
layers = (
{
anchors = (
{
name = bot;
position = "{717, 0}";
},
{
name = top;
position = "{721, 1152}";
}
);
layerId = "98C086B7-81AA-4491-8494-0C6A76849168";
paths = (
{
closed = 1;
nodes = (
"713 -22 CURVE SMOOTH",
"938 -22 OFFCURVE",
"1121 54 OFFCURVE",
"1242 255 CURVE",
"1202 283 LINE",
"1090 87 OFFCURVE",
"896 26 OFFCURVE",
"715 26 CURVE SMOOTH",
"454 26 OFFCURVE",
"181 207 OFFCURVE",
"181 580 CURVE SMOOTH",
"181 864 OFFCURVE",
"373 1124 OFFCURVE",
"715 1124 CURVE SMOOTH",
"966 1124 OFFCURVE",
"1093 1024 OFFCURVE",
"1196 817 CURVE",
"1240 832 LINE",
"1240 1152 LINE",
"1183 1152 LINE",
"1183 917 LINE",
"1094 1075 OFFCURVE",
"967 1172 OFFCURVE",
"714 1172 CURVE SMOOTH",
"358 1172 OFFCURVE",
"119 910 OFFCURVE",
"119 581 CURVE SMOOTH",
"119 164 OFFCURVE",
"434 -22 OFFCURVE"
);
}
);
width = 1404;
},
{
associatedMasterId = "98C086B7-81AA-4491-8494-0C6A76849168";
layerId = "25609C3F-2295-4DB1-B32F-98BB4D71B28B";
name = b;
width = 1411;
},
{
anchors = (
{
name = bot;
position = "{690, 0}";
},
{
name = top;
position = "{714, 1152}";
}
);
layerId = "BE4F947C-73D7-4684-AEED-17801393DA53";
paths = (
{
closed = 1;
nodes = (
"704 -22 CURVE SMOOTH",
"939 -21 OFFCURVE",
"1147 61 OFFCURVE",
"1245 312 CURVE",
"1123 372 LINE",
"1053 174 OFFCURVE",
"887 101 OFFCURVE",
"714 101 CURVE SMOOTH",
"459 101 OFFCURVE",
"268 288 OFFCURVE",
"268 579 CURVE SMOOTH",
"268 844 OFFCURVE",
"441 1051 OFFCURVE",
"715 1051 CURVE SMOOTH",
"896 1051 OFFCURVE",
"1024 977 OFFCURVE",
"1109 800 CURVE",
"1221 805 LINE",
"1221 1154 LINE",
"1098 1154 LINE",
"1098 996 LINE",
"1010 1104 OFFCURVE",
"888 1173 OFFCURVE",
"705 1173 CURVE SMOOTH",
"337 1173 OFFCURVE",
"100 922 OFFCURVE",
"100 578 CURVE SMOOTH",
"100 223 OFFCURVE",
"345 -21 OFFCURVE"
);
}
);
width = 1362;
},
{
anchors = (
{
name = bot;
position = "{754, 0}";
},
{
name = top;
position = "{760, 1152}";
}
);
layerId = "EFCDB4D9-E20B-4A8D-9DB5-150AD166B0AE";
paths = (
{
closed = 1;
nodes = (
"775 -22 CURVE SMOOTH",
"1185 -22 OFFCURVE",
"1380 183 OFFCURVE",
"1423 443 CURVE",
"1118 514 LINE",
"1081 307 OFFCURVE",
"941 246 OFFCURVE",
"790 246 CURVE SMOOTH",
"604 246 OFFCURVE",
"487 375 OFFCURVE",
"487 575 CURVE SMOOTH",
"487 778 OFFCURVE",
"591 906 OFFCURVE",
"785 906 CURVE SMOOTH",
"946 906 OFFCURVE",
"1049 847 OFFCURVE",
"1114 695 CURVE",
"1399 695 LINE",
"1399 1151 LINE",
"1146 1151 LINE",
"1146 1030 LINE",
"1147 1042 OFFCURVE",
"1040 1174 OFFCURVE",
"776 1174 CURVE SMOOTH",
"380 1174 OFFCURVE",
"80 951 OFFCURVE",
"80 565 CURVE SMOOTH",
"80 185 OFFCURVE",
"379 -22 OFFCURVE"
);
}
);
width = 1505;
}
);
unicode = 0043;
userData = {
com.typemytype.robofont.layerData = {
b = {
anchors = (
);
components = (
);
contours = (
);
lib = {
};
name = C;
unicodes = (
);
width = 1411;
};
};
org.robofab.postScriptHintData = {
};
};
},
{
glyphname = D;
lastChange = "2016-08-04 09:26:30 +0000";
layers = (
{
anchors = (
{
name = top;
position = "{648, 1152}";
}
);
layerId = "98C086B7-81AA-4491-8494-0C6A76849168";
paths = (
{
closed = 1;
nodes = (
"809 1152 CURVE SMOOTH",
"123 1152 LINE",
"123 1107 LINE",
"297 1107 LINE",
"297 45 LINE",
"123 45 LINE",
"123 0 LINE",
"815 0 LINE SMOOTH",
"1142 0 OFFCURVE",
"1305 311 OFFCURVE",
"1305 573 CURVE SMOOTH",
"1305 830 OFFCURVE",
"1150 1152 OFFCURVE"
);
},
{
closed = 1;
nodes = (
"358 1107 LINE",
"810 1107 LINE SMOOTH",
"1099 1107 OFFCURVE",
"1245 822 OFFCURVE",
"1245 572 CURVE SMOOTH",
"1245 319 OFFCURVE",
"1100 45 OFFCURVE",
"804 45 CURVE SMOOTH",
"358 45 LINE"
);
}
);
width = 1429;
},
{
associatedMasterId = "98C086B7-81AA-4491-8494-0C6A76849168";
layerId = "CD5EB39D-E643-4C9A-BBE0-5176269617E9";
name = b;
width = 1434;
},
{
anchors = (
{
name = top;
position = "{599, 1152}";
}
);
layerId = "BE4F947C-73D7-4684-AEED-17801393DA53";
paths = (
{
closed = 1;
nodes = (
"709 1152 CURVE SMOOTH",
"82 1152 LINE",
"82 1044 LINE",
"242 1044 LINE",
"242 108 LINE",
"82 108 LINE",
"82 0 LINE",
"710 0 LINE SMOOTH",
"1103 0 OFFCURVE",
"1300 248 OFFCURVE",
"1300 588 CURVE SMOOTH",
"1300 869 OFFCURVE",
"1111 1152 OFFCURVE"
);
},
{
closed = 1;
nodes = (
"409 1044 LINE",
"701 1044 LINE SMOOTH",
"998 1044 OFFCURVE",
"1129 817 OFFCURVE",
"1129 583 CURVE SMOOTH",
"1129 319 OFFCURVE",
"1001 108 OFFCURVE",
"694 108 CURVE SMOOTH",
"409 108 LINE"
);
}
);
width = 1401;
},
{
anchors = (
{
name = mid;
position = "{431, 590}";
},
{
name = top;
position = "{817, 1148}";
}
);
layerId = "EFCDB4D9-E20B-4A8D-9DB5-150AD166B0AE";
paths = (
{
closed = 1;
nodes = (
"44 1152 LINE",
"44 928 LINE",
"216 928 LINE",
"216 224 LINE",
"44 224 LINE",
"44 0 LINE",
"846 0 LINE SMOOTH",
"1288 0 OFFCURVE",
"1508 229 OFFCURVE",
"1508 575 CURVE SMOOTH",
"1508 905 OFFCURVE",
"1286 1152 OFFCURVE",
"846 1152 CURVE SMOOTH"
);
},
{
closed = 1;
nodes = (
"628 224 LINE",
"628 928 LINE",
"849 928 LINE SMOOTH",
"989 928 OFFCURVE",
"1064 788 OFFCURVE",
"1064 576 CURVE SMOOTH",
"1064 356 OFFCURVE",
"988 224 OFFCURVE",
"850 224 CURVE SMOOTH"
);
}
);
width = 1581;
}
);
unicode = 0044;
userData = {
com.typemytype.robofont.layerData = {
b = {
anchors = (
);
components = (
);
contours = (
);
lib = {
};
name = D;
unicodes = (
);
width = 1434;
};
};
org.robofab.postScriptHintData = {
};
};
},
{
glyphname = E;
lastChange = "2016-08-04 09:26:30 +0000";
layers = (
{
anchors = (
{
name = bot;
position = "{647, 0}";
},
{
name = top;
position = "{670, 1152}";
}
);
layerId = "98C086B7-81AA-4491-8494-0C6A76849168";
paths = (
{
closed = 1;
nodes = (
"1010 824 LINE",
"1063 824 LINE",
"1063 1152 LINE",
"123 1152 LINE",
"123 1107 LINE",
"297 1107 LINE",
"297 45 LINE",
"123 45 LINE",
"123 0 LINE",
"1088 0 LINE",
"1088 334 LINE",
"1035 334 LINE",
"1035 45 LINE",
"358 45 LINE",
"358 565 LINE",
"780 565 LINE",
"780 383 LINE",
"825 383 LINE",
"825 781 LINE",
"779 781 LINE",
"779 610 LINE",
"358 610 LINE",
"358 1107 LINE",
"1010 1107 LINE"
);
}
);
width = 1222;
},
{
associatedMasterId = "98C086B7-81AA-4491-8494-0C6A76849168";
layerId = "60ECEE92-5140-4CA8-8660-9E0EC6F69E78";
name = b;
width = 1227;
},
{
anchors = (
{
name = bot;
position = "{632, 0}";
},
{
name = top;
position = "{634, 1152}";
}
);
layerId = "BE4F947C-73D7-4684-AEED-17801393DA53";
paths = (
{
closed = 1;
nodes = (
"955 811 LINE",
"1084 811 LINE",
"1084 1152 LINE",
"80 1152 LINE",
"80 1044 LINE",
"240 1044 LINE",
"240 108 LINE",
"80 108 LINE",
"80 0 LINE",
"1093 0 LINE",
"1093 348 LINE",
"965 348 LINE",
"965 108 LINE",
"407 108 LINE",
"407 540 LINE",
"766 540 LINE",
"766 404 LINE",
"849 404 LINE",
"849 788 LINE",
"766 788 LINE",
"766 654 LINE",
"407 654 LINE",
"407 1044 LINE",
"955 1044 LINE"
);
}
);
width = 1191;
},
{
anchors = (
{
name = bot;
position = "{619, 0}";
},
{
name = ogonek;
position = "{882, 0}";
},
{
name = top;
position = "{700, 1152}";
}
);
layerId = "EFCDB4D9-E20B-4A8D-9DB5-150AD166B0AE";
paths = (
{
closed = 1;
nodes = (
"973 446 LINE",
"973 225 LINE",
"629 225 LINE",
"629 495 LINE",
"765 495 LINE",
"765 391 LINE",
"871 391 LINE",
"871 833 LINE",
"763 833 LINE",
"763 711 LINE",
"629 711 LINE",
"629 923 LINE",
"971 928 LINE",
"971 757 LINE",
"1255 757 LINE",
"1255 1152 LINE",
"44 1152 LINE",
"44 928 LINE",
"217 928 LINE",
"217 224 LINE",
"44 224 LINE",
"44 0 LINE",
"1264 0 LINE",
"1264 446 LINE"
);
}
);
width = 1323;
}
);
unicode = 0045;
userData = {
com.typemytype.robofont.layerData = {
b = {
anchors = (
);
components = (
);
contours = (
);
lib = {
};
name = E;
unicodes = (
);
width = 1227;
};
};
org.robofab.postScriptHintData = {
};
};
},
{
glyphname = F;
lastChange = "2016-08-04 09:26:30 +0000";
layers = (
{
anchors = (
{
name = top;
position = "{644, 1152}";
}
);
layerId = "98C086B7-81AA-4491-8494-0C6A76849168";
paths = (
{
closed = 1;
nodes = (
"1024 797 LINE",
"1074 797 LINE",
"1074 1152 LINE",
"123 1152 LINE",
"123 1107 LINE",
"297 1107 LINE",
"297 45 LINE",
"123 45 LINE",
"123 0 LINE",
"532 0 LINE",
"532 45 LINE",
"358 45 LINE",
"358 570 LINE",
"837 570 LINE",
"837 392 LINE",
"880 392 LINE",
"880 772 LINE",
"837 772 LINE",
"837 616 LINE",
"358 616 LINE",
"358 1107 LINE",
"1024 1107 LINE"
);
}
);
width = 1168;
},
{
associatedMasterId = "98C086B7-81AA-4491-8494-0C6A76849168";
layerId = "3ECFE09A-00F6-461D-8ABC-E519FD610BC2";
name = b;
paths = (
{
closed = 1;
nodes = (
"990 1086 LINE",
"990 802 LINE",
"1062 802 LINE",
"1062 1152 LINE",
"122 1152 LINE",
"122 1086 LINE",
"286 1086 LINE",
"286 1039 LINE",
"363 1039 LINE",
"363 1086 LINE"
);
},
{
closed = 1;
nodes = (
"286 1039 LINE",
"286 677 LINE",
"363 677 LINE",
"363 1039 LINE"
);
},
{
closed = 1;
nodes = (
"286 677 LINE",
"286 65 LINE",
"122 65 LINE",
"122 0 LINE",
"552 0 LINE",
"552 65 LINE",
"363 65 LINE",
"363 539 LINE",
"824 539 LINE",
"824 378 LINE",
"886 378 LINE",
"886 764 LINE",
"824 764 LINE",
"824 601 LINE",
"363 601 LINE",
"363 677 LINE"
);
}
);
width = 1177;
},
{
anchors = (
{
name = top;
position = "{613, 1152}";
}
);
layerId = "BE4F947C-73D7-4684-AEED-17801393DA53";
paths = (
{
closed = 1;
nodes = (
"936 802 LINE",
"1065 802 LINE",
"1065 1152 LINE",
"80 1152 LINE",
"80 1044 LINE",
"240 1044 LINE",
"240 108 LINE",
"80 108 LINE",
"80 0 LINE",
"567 0 LINE",
"567 108 LINE",
"407 108 LINE",
"407 541 LINE",
"756 541 LINE",
"756 407 LINE",
"841 407 LINE",
"841 783 LINE",
"756 783 LINE",
"756 657 LINE",
"407 657 LINE",
"407 1044 LINE",
"936 1044 LINE"
);
}
);
width = 1111;
},
{
anchors = (
{
name = top;
position = "{665, 1152}";
}
);
layerId = "EFCDB4D9-E20B-4A8D-9DB5-150AD166B0AE";
paths = (
{
closed = 1;
nodes = (
"44 1152 LINE",
"44 928 LINE",
"217 928 LINE",
"217 224 LINE",
"44 224 LINE",
"44 0 LINE",
"802 0 LINE",
"802 224 LINE",
"629 224 LINE",
"629 495 LINE",
"801 495 LINE",
"801 392 LINE",
"924 392 LINE",
"924 764 LINE",
"798 764 LINE",
"798 659 LINE",
"629 659 LINE",
"629 928 LINE",
"1000 928 LINE",
"1000 765 LINE",
"1233 765 LINE",
"1233 1152 LINE"
);
}
);
width = 1293;
}
);
unicode = 0046;
userData = {
com.typemytype.robofont.layerData = {
b = {
anchors = (
);
components = (
);
contours = (
{
points = (
{
segmentType = line;
smooth = 0;
x = 990;
y = 1086;
},
{
segmentType = line;
smooth = 0;
x = 990;
y = 802;
},
{
segmentType = line;
smooth = 0;
x = 1062;
y = 802;
},
{
segmentType = line;
smooth = 0;
x = 1062;
y = 1152;
},
{
segmentType = line;
smooth = 0;
x = 122;
y = 1152;
},
{
segmentType = line;
smooth = 0;
x = 122;
y = 1086;
},
{
segmentType = line;
smooth = 0;
x = 286;
y = 1086;
},
{
segmentType = line;
smooth = 0;
x = 286;
y = 1039;
},
{
segmentType = line;
smooth = 0;
x = 363;
y = 1039;
},
{
segmentType = line;
smooth = 0;
x = 363;
y = 1086;
}
);
},
{
points = (
{
segmentType = line;
smooth = 0;
x = 286;
y = 1039;
},
{
segmentType = line;
smooth = 0;
x = 286;
y = 677;
},
{
segmentType = line;
smooth = 0;
x = 363;
y = 677;
},
{
segmentType = line;
smooth = 0;
x = 363;
y = 1039;
}
);
},
{
points = (
{
segmentType = line;
smooth = 0;
x = 286;
y = 677;
},
{
segmentType = line;
smooth = 0;
x = 286;
y = 65;
},
{
segmentType = line;
smooth = 0;
x = 122;
y = 65;
},
{
segmentType = line;
smooth = 0;
x = 122;
y = 0;
},
{
segmentType = line;
smooth = 0;
x = 552;
y = 0;
},
{
segmentType = line;
smooth = 0;
x = 552;
y = 65;
},
{
segmentType = line;
smooth = 0;
x = 363;
y = 65;
},
{
segmentType = line;
smooth = 0;
x = 363;
y = 539;
},
{
segmentType = line;
smooth = 0;
x = 824;
y = 539;
},
{
segmentType = line;
smooth = 0;
x = 824;
y = 378;
},
{
segmentType = line;
smooth = 0;
x = 886;
y = 378;
},
{
segmentType = line;
smooth = 0;
x = 886;
y = 764;
},
{
segmentType = line;
smooth = 0;
x = 824;
y = 764;
},
{
segmentType = line;
smooth = 0;
x = 824;
y = 601;
},
{
segmentType = line;
smooth = 0;
x = 363;
y = 601;
},
{
segmentType = line;
smooth = 0;
x = 363;
y = 677;
}
);
}
);
lib = {
};
name = F;
unicodes = (
);
width = 1177;
};
};
org.robofab.postScriptHintData = {
};
};
},
{
glyphname = G;
lastChange = "2016-08-04 09:26:30 +0000";
layers = (
{
anchors = (
{
name = bot;
position = "{711, 0}";
},
{
name = top;
position = "{709, 1152}";
}
);
layerId = "98C086B7-81AA-4491-8494-0C6A76849168";
paths = (
{
closed = 1;
nodes = (
"710 -22 CURVE SMOOTH",
"919 -22 OFFCURVE",
"1254 70 OFFCURVE",
"1254 549 CURVE",
"941 549 LINE",
"941 503 LINE",
"1195 503 LINE",
"1189 125 OFFCURVE",
"895 27 OFFCURVE",
"711 27 CURVE SMOOTH",
"384 27 OFFCURVE",
"178 241 OFFCURVE",
"178 583 CURVE SMOOTH",
"178 917 OFFCURVE",
"384 1126 OFFCURVE",
"711 1126 CURVE SMOOTH",
"913 1126 OFFCURVE",
"1087 1024 OFFCURVE",
"1164 843 CURVE",
"1208 843 LINE",
"1208 1152 LINE",
"1152 1152 LINE",
"1152 954 LINE",
"1061 1096 OFFCURVE",
"893 1174 OFFCURVE",
"710 1174 CURVE SMOOTH",
"347 1174 OFFCURVE",
"116 946 OFFCURVE",
"116 583 CURVE SMOOTH",
"116 212 OFFCURVE",
"346 -22 OFFCURVE"
);
}
);
width = 1395;
},
{
associatedMasterId = "98C086B7-81AA-4491-8494-0C6A76849168";
layerId = "C7BF5333-7E92-4656-94F3-4CF4B1BB9EBD";
name = b;
width = 1394;
},
{
anchors = (
{
name = bot;
position = "{711, 0}";
},
{
name = top;
position = "{719, 1152}";
}
);
layerId = "BE4F947C-73D7-4684-AEED-17801393DA53";
paths = (
{
closed = 1;
nodes = (
"730 -20 CURVE SMOOTH",
"1048 -20 OFFCURVE",
"1306 134 OFFCURVE",
"1309 582 CURVE",
"902 582 LINE",
"902 466 LINE",
"1144 466 LINE",
"1138 214 OFFCURVE",
"958 106 OFFCURVE",
"736 103 CURVE SMOOTH",
"455 103 OFFCURVE",
"278 290 OFFCURVE",
"278 590 CURVE SMOOTH",
"278 874 OFFCURVE",
"453 1052 OFFCURVE",
"732 1052 CURVE SMOOTH",
"915 1052 OFFCURVE",
"1060 963 OFFCURVE",
"1135 796 CURVE",
"1253 796 LINE",
"1253 1155 LINE",
"1120 1155 LINE",
"1120 1007 LINE",
"1030 1111 OFFCURVE",
"896 1174 OFFCURVE",
"727 1174 CURVE SMOOTH",
"356 1174 OFFCURVE",
"99 949 OFFCURVE",
"99 590 CURVE SMOOTH",
"99 215 OFFCURVE",
"349 -20 OFFCURVE"
);
}
);
width = 1401;
},
{
anchors = (
{
name = bot;
position = "{818, 0}";
},
{
name = top;
position = "{833, 1152}";
}
);
layerId = "EFCDB4D9-E20B-4A8D-9DB5-150AD166B0AE";
paths = (
{
closed = 1;
nodes = (
"802 -23 CURVE SMOOTH",
"1220 -23 OFFCURVE",
"1422 165 OFFCURVE",
"1427 604 CURVE",
"844 604 LINE",
"844 389 LINE",
"1066 389 LINE",
"1053 293 OFFCURVE",
"966 244 OFFCURVE",
"810 245 CURVE SMOOTH",
"659 245 OFFCURVE",
"498 345 OFFCURVE",
"498 568 CURVE SMOOTH",
"498 794 OFFCURVE",
"616 906 OFFCURVE",
"820 906 CURVE SMOOTH",
"956 906 OFFCURVE",
"1073 850 OFFCURVE",
"1150 706 CURVE",
"1408 706 LINE",
"1408 1166 LINE",
"1136 1166 LINE",
"1136 1015 LINE",
"1129 1084 OFFCURVE",
"932 1174 OFFCURVE",
"784 1174 CURVE SMOOTH",
"385 1174 OFFCURVE",
"95 927 OFFCURVE",
"95 568 CURVE SMOOTH",
"95 203 OFFCURVE",
"328 -23 OFFCURVE"
);
}
);
width = 1561;
}
);
unicode = 0047;
userData = {
com.typemytype.robofont.layerData = {
b = {
anchors = (
);
components = (
);
contours = (
);
lib = {
};
name = G;
unicodes = (
);
width = 1394;
};
};
org.robofab.postScriptHintData = {
};
};
},
{
glyphname = H;
lastChange = "2016-08-04 09:26:30 +0000";
layers = (
{
anchors = (
{
name = bot;
position = "{746, 0}";
},
{
name = top;
position = "{746, 1152}";
}
);
layerId = "98C086B7-81AA-4491-8494-0C6A76849168";
paths = (
{
closed = 1;
nodes = (
"123 0 LINE",
"532 0 LINE",
"532 45 LINE",
"358 45 LINE",
"358 560 LINE",
"1136 560 LINE",
"1136 45 LINE",
"962 45 LINE",
"962 0 LINE",
"1371 0 LINE",
"1371 45 LINE",
"1197 45 LINE",
"1197 1107 LINE",
"1371 1107 LINE",
"1371 1152 LINE",
"962 1152 LINE",
"962 1107 LINE",
"1136 1107 LINE",
"1136 606 LINE",
"358 606 LINE",
"358 1107 LINE",
"532 1107 LINE",
"532 1152 LINE",
"123 1152 LINE",
"123 1107 LINE",
"297 1107 LINE",
"297 45 LINE",
"123 45 LINE"
);
}
);
width = 1495;
},
{
associatedMasterId = "98C086B7-81AA-4491-8494-0C6A76849168";
layerId = "1AF83A5C-D8F8-468E-85DE-118B24ECD71C";
name = b;
width = 1506;
},
{
anchors = (
{
name = bot;
position = "{710, 0}";
},
{
name = top;
position = "{720, 1152}";
}
);
layerId = "BE4F947C-73D7-4684-AEED-17801393DA53";
paths = (
{
closed = 1;
nodes = (
"80 0 LINE",
"567 0 LINE",
"567 108 LINE",
"407 108 LINE",
"407 534 LINE",
"1021 534 LINE",
"1021 108 LINE",
"861 108 LINE",
"861 0 LINE",
"1348 0 LINE",
"1348 108 LINE",
"1188 108 LINE",
"1188 1044 LINE",
"1348 1044 LINE",
"1348 1152 LINE",
"861 1152 LINE",
"861 1044 LINE",
"1021 1044 LINE",
"1021 651 LINE",
"407 651 LINE",
"407 1044 LINE",
"567 1044 LINE",
"567 1152 LINE",
"80 1152 LINE",
"80 1044 LINE",
"240 1044 LINE",
"240 108 LINE",
"80 108 LINE"
);
}
);
width = 1428;
},
{
anchors = (
{
name = bot;
position = "{847, 0}";
},
{
name = top;
position = "{845, 1152}";
}
);
layerId = "EFCDB4D9-E20B-4A8D-9DB5-150AD166B0AE";
paths = (
{
closed = 1;
nodes = (
"1636 928 LINE",
"1636 1152 LINE",
"877 1152 LINE",
"877 928 LINE",
"1050 928 LINE",
"1050 684 LINE",
"629 684 LINE",
"629 928 LINE",
"802 928 LINE",
"802 1152 LINE",
"44 1152 LINE",
"44 928 LINE",
"217 928 LINE",
"217 224 LINE",
"44 224 LINE",
"44 0 LINE",
"802 0 LINE",
"802 224 LINE",
"629 224 LINE",
"629 473 LINE",
"1050 473 LINE",
"1050 224 LINE",
"877 224 LINE",
"877 0 LINE",
"1636 0 LINE",
"1636 224 LINE",
"1463 224 LINE",
"1463 928 LINE"
);
}
);
width = 1679;
}
);
unicode = 0048;
userData = {
com.typemytype.robofont.layerData = {
b = {
anchors = (
);
components = (
);
contours = (
);
lib = {
};
name = H;
unicodes = (
);
width = 1506;
};
};
org.robofab.postScriptHintData = {
};
};
},
{
glyphname = I;
lastChange = "2016-08-04 09:26:30 +0000";
layers = (
{
anchors = (
{
name = top;
position = "{321, 1152}";
}
);
layerId = "98C086B7-81AA-4491-8494-0C6A76849168";
paths = (
{
closed = 1;
nodes = (
"112 0 LINE",
"522 0 LINE",
"522 45 LINE",
"348 45 LINE",
"348 1107 LINE",
"522 1107 LINE",
"522 1152 LINE",
"112 1152 LINE",
"112 1107 LINE",
"286 1107 LINE",
"286 45 LINE",
"112 45 LINE"
);
}
);
width = 636;
},
{
associatedMasterId = "98C086B7-81AA-4491-8494-0C6A76849168";
layerId = "DACE4A57-ED08-4CFE-9D0D-C36DFDEF4634";
name = b;
width = 626;
},
{
anchors = (
{
name = top;
position = "{348, 1152}";
}
);
layerId = "BE4F947C-73D7-4684-AEED-17801393DA53";
paths = (
{
closed = 1;
nodes = (
"103 0 LINE",
"591 0 LINE",
"591 108 LINE",
"430 108 LINE",
"430 1044 LINE",
"591 1044 LINE",
"591 1152 LINE",
"103 1152 LINE",
"103 1044 LINE",
"263 1044 LINE",
"263 108 LINE",
"103 108 LINE"
);
}
);
width = 694;
},
{
anchors = (
{
name = ogonek;
position = "{376, 0}";
},
{
name = top;
position = "{405, 1148}";
}
);
layerId = "EFCDB4D9-E20B-4A8D-9DB5-150AD166B0AE";
paths = (
{
closed = 1;
nodes = (
"33 224 LINE",
"33 0 LINE",
"792 0 LINE",
"792 224 LINE",
"619 224 LINE",
"619 928 LINE",
"792 928 LINE",
"792 1152 LINE",
"33 1152 LINE",
"33 928 LINE",
"206 928 LINE",
"206 224 LINE"
);
}
);
width = 825;
}
);
unicode = 0049;
userData = {
com.typemytype.robofont.layerData = {
b = {
anchors = (
);
components = (
);
contours = (
);
lib = {
};
name = I;
unicodes = (
);
width = 626;
};
};
org.robofab.postScriptHintData = {
};
};
},
{
glyphname = J;
lastChange = "2016-08-04 09:26:30 +0000";
layers = (
{
anchors = (
{
name = top;
position = "{353, 1152}";
}
);
layerId = "98C086B7-81AA-4491-8494-0C6A76849168";
paths = (
{
closed = 1;
nodes = (
"101 -65 LINE",
"213 -65 LINE",
"326 -65 OFFCURVE",
"378 -34 OFFCURVE",
"378 150 CURVE SMOOTH",
"378 1107 LINE",
"503 1107 LINE",
"503 1152 LINE",
"183 1152 LINE",
"183 1107 LINE",
"316 1107 LINE",
"316 160 LINE SMOOTH",
"316 33 OFFCURVE",
"305 -18 OFFCURVE",
"224 -18 CURVE SMOOTH",
"101 -18 LINE"
);
}
);
width = 568;
},
{
associatedMasterId = "98C086B7-81AA-4491-8494-0C6A76849168";
layerId = "DAAAB9ED-565D-4E7A-8536-677C7F804F15";
name = b;
width = 551;
},
{
anchors = (
{
name = top;
position = "{392, 1152}";
}
);
layerId = "BE4F947C-73D7-4684-AEED-17801393DA53";
paths = (
{
closed = 1;
nodes = (
"67 -218 LINE",
"218 -218 LINE",
"405 -218 OFFCURVE",
"473 -117 OFFCURVE",
"473 83 CURVE SMOOTH",
"473 1044 LINE",
"623 1044 LINE",
"623 1152 LINE",
"150 1152 LINE",
"150 1044 LINE",
"307 1044 LINE",
"307 81 LINE SMOOTH",
"307 -21 OFFCURVE",
"290 -87 OFFCURVE",
"191 -87 CURVE SMOOTH",
"67 -87 LINE"
);
}
);
width = 668;
},
{
anchors = (
{
name = top;
position = "{425, 1152}";
}
);
layerId = "EFCDB4D9-E20B-4A8D-9DB5-150AD166B0AE";
paths = (
{
closed = 1;
nodes = (
"24 -26 LINE",
"24 -326 LINE",
"220 -326 LINE SMOOTH",
"602 -326 OFFCURVE",
"649 -91 OFFCURVE",
"649 240 CURVE SMOOTH",
"649 928 LINE",
"841 928 LINE",
"841 1152 LINE",
"26 1152 LINE",
"26 928 LINE",
"242 928 LINE",
"242 187 LINE SMOOTH",
"242 90 OFFCURVE",
"218 -26 OFFCURVE",
"110 -26 CURVE SMOOTH"
);
}
);
width = 873;
}
);
unicode = 004A;
userData = {
com.typemytype.robofont.layerData = {
b = {
anchors = (
);
components = (
);
contours = (
);
lib = {
};
name = J;
unicodes = (
);
width = 551;
};
};
org.robofab.postScriptHintData = {
};
};
},
{
glyphname = K;
lastChange = "2016-08-04 09:26:30 +0000";
layers = (
{
anchors = (
{
name = bot;
position = "{680, 0}";
},
{
name = top;
position = "{661, 1152}";
}
);
guideLines = (
{
position = "{467, 593}";
}
);
layerId = "98C086B7-81AA-4491-8494-0C6A76849168";
paths = (
{
closed = 1;
nodes = (
"827 0 LINE",
"1219 0 LINE",
"1219 45 LINE",
"1057 45 LINE",
"432 587 LINE",
"1015 1107 LINE",
"1186 1107 LINE",
"1186 1152 LINE",
"788 1152 LINE",
"788 1107 LINE",
"944 1107 LINE",
"358 592 LINE",
"358 1107 LINE",
"532 1107 LINE",
"532 1152 LINE",
"123 1152 LINE",
"123 1107 LINE",
"297 1107 LINE",
"297 45 LINE",
"123 45 LINE",
"123 0 LINE",
"532 0 LINE",
"532 45 LINE",
"358 45 LINE",
"358 581 LINE",
"980 45 LINE",
"827 45 LINE"
);
}
);
width = 1303;
},
{
associatedMasterId = "98C086B7-81AA-4491-8494-0C6A76849168";
layerId = "E21F7AEE-743B-4BDC-B398-DB9489CC4474";
name = b;
width = 1304;
},
{
anchors = (
{
name = bot;
position = "{649, 0}";
},
{
name = top;
position = "{650, 1152}";
}
);
guideLines = (
{
position = "{467, 593}";
}
);
layerId = "BE4F947C-73D7-4684-AEED-17801393DA53";
paths = (
{
closed = 1;
nodes = (
"746 0 LINE",
"1240 0 LINE",
"1240 109 LINE",
"1085 109 LINE",
"577 582 LINE",
"1078 1044 LINE",
"1228 1044 LINE",
"1228 1152 LINE",
"751 1152 LINE",
"751 1044 LINE",
"883 1044 LINE",
"407 605 LINE",
"407 1044 LINE",
"567 1044 LINE",
"567 1152 LINE",
"80 1152 LINE",
"80 1044 LINE",
"240 1044 LINE",
"240 108 LINE",
"80 108 LINE",
"80 0 LINE",
"567 0 LINE",
"567 108 LINE",
"407 108 LINE",
"407 547 LINE",
"880 109 LINE",
"746 109 LINE"
);
}
);
width = 1297;
},
{
anchors = (
{
name = bot;
position = "{874, 0}";
},
{
name = top;
position = "{871, 1152}";
}
);
guideLines = (
{
position = "{467, 593}";
}
);
layerId = "EFCDB4D9-E20B-4A8D-9DB5-150AD166B0AE";
paths = (
{
closed = 1;
nodes = (
"1513 224 LINE",
"1074 665 LINE",
"1406 928 LINE",
"1605 928 LINE",
"1605 1152 LINE",
"898 1152 LINE",
"898 928 LINE",
"1074 928 LINE",
"629 609 LINE",
"629 928 LINE",
"802 928 LINE",
"802 1152 LINE",
"44 1152 LINE",
"44 928 LINE",
"217 928 LINE",
"217 224 LINE",
"44 224 LINE",
"44 0 LINE",
"802 0 LINE",
"802 224 LINE",
"629 224 LINE",
"629 604 LINE",
"990 224 LINE",
"896 224 LINE",
"896 0 LINE",
"1624 0 LINE",
"1624 224 LINE"
);
}
);
width = 1664;
}
);
unicode = 004B;
userData = {
com.typemytype.robofont.guides = (
{
angle = 0;
isGlobal = 0;
magnetic = 5;
x = 467;
y = 593;
}
);
com.typemytype.robofont.layerData = {
b = {
anchors = (
);
components = (
);
contours = (
);
lib = {
};
name = K;
unicodes = (
);
width = 1304;
};
};
org.robofab.postScriptHintData = {
};
};
},
{
glyphname = L;
lastChange = "2016-08-04 09:26:30 +0000";
layers = (
{
anchors = (
{
name = bot;
position = "{640, 0}";
},
{
name = caron.alt;
position = "{533, 804}";
},
{
name = top;
position = "{716, 1152}";
}
);
layerId = "98C086B7-81AA-4491-8494-0C6A76849168";
paths = (
{
closed = 1;
nodes = (
"358 45 LINE",
"358 1107 LINE",
"532 1107 LINE",
"532 1152 LINE",
"123 1152 LINE",
"123 1107 LINE",
"297 1107 LINE",
"297 45 LINE",
"123 45 LINE",
"123 0 LINE",
"1005 0 LINE",
"1005 373 LINE",
"955 373 LINE",
"955 45 LINE"
);
}
);
width = 1058;
},
{
associatedMasterId = "98C086B7-81AA-4491-8494-0C6A76849168";
layerId = "9D454392-E1FE-4228-8A29-7CFB70DD62E7";
name = b;
width = 1055;
},
{
anchors = (
{
name = bot;
position = "{566, 0}";
},
{
name = caron.alt;
position = "{668, 804}";
},
{
name = top;
position = "{742, 1152}";
}
);
layerId = "BE4F947C-73D7-4684-AEED-17801393DA53";
paths = (
{
closed = 1;
nodes = (
"407 108 LINE",
"407 1044 LINE",
"567 1044 LINE",
"567 1152 LINE",
"80 1152 LINE",
"80 1044 LINE",
"240 1044 LINE",
"240 108 LINE",
"80 108 LINE",
"80 0 LINE",
"1022 0 LINE",
"1022 462 LINE",
"886 462 LINE",
"886 108 LINE"
);
}
);
width = 1075;
},
{
anchors = (
{
name = bot;
position = "{690, 0}";
},
{
name = caron.alt;
position = "{724, 936}";
},
{
name = mid;
position = "{339, 620}";
},
{
name = top;
position = "{372, 1152}";
}
);
layerId = "EFCDB4D9-E20B-4A8D-9DB5-150AD166B0AE";
paths = (
{
closed = 1;
nodes = (
"979 585 LINE",
"979 224 LINE",
"629 224 LINE",
"629 928 LINE",
"802 928 LINE",
"802 1152 LINE",
"44 1152 LINE",
"44 928 LINE",
"217 928 LINE",
"217 224 LINE",
"44 224 LINE",
"44 0 LINE",
"1307 0 LINE",
"1307 585 LINE"
);
}
);
width = 1376;
}
);
unicode = 004C;
userData = {
com.typemytype.robofont.layerData = {
b = {
anchors = (
);
components = (
);
contours = (
);
lib = {
};
name = L;
unicodes = (
);
width = 1055;
};
};
org.robofab.postScriptHintData = {
};
};
},
{
glyphname = Lslash;
lastChange = "2016-08-04 09:26:30 +0000";
layers = (
{
components = (
{
name = L;
}
);
layerId = "98C086B7-81AA-4491-8494-0C6A76849168";
paths = (
{
closed = 1;
nodes = (
"119 430 LINE",
"535 691 LINE",
"535 750 LINE",
"119 486 LINE"
);
}
);
width = 1238;
},
{
associatedMasterId = "98C086B7-81AA-4491-8494-0C6A76849168";
layerId = "BA1BE605-30D4-47C1-A7F6-2C92B3CCB92C";
name = b;
width = 1243;
},
{
components = (
{
name = L;
}
);
layerId = "BE4F947C-73D7-4684-AEED-17801393DA53";
paths = (
{
closed = 1;
nodes = (
"91 408 LINE",
"600 690 LINE",
"600 801 LINE",
"91 513 LINE"
);
}
);
width = 1205;
},
{
components = (
{
name = L;
}
);
layerId = "EFCDB4D9-E20B-4A8D-9DB5-150AD166B0AE";
paths = (
{
closed = 1;
nodes = (
"29 349 LINE",
"850 678 LINE",
"850 838 LINE",
"29 514 LINE"
);
}
);
width = 1320;
}
);
unicode = 0141;
userData = {
com.typemytype.robofont.layerData = {
b = {
anchors = (
);
components = (
);
contours = (
);
lib = {
};
name = Lslash;
unicodes = (
);
width = 1243;
};
};
org.robofab.postScriptHintData = {
};
};
},
{
glyphname = M;
lastChange = "2016-08-04 09:26:30 +0000";
layers = (
{
anchors = (
{
name = top;
position = "{801, 1152}";
}
);
layerId = "98C086B7-81AA-4491-8494-0C6A76849168";
paths = (
{
closed = 1;
nodes = (
"137 0 LINE",
"501 0 LINE",
"501 45 LINE",
"346 45 LINE",
"346 1052 LINE",
"816 99 LINE",
"827 99 LINE",
"1273 1052 LINE",
"1273 45 LINE",
"1116 45 LINE",
"1116 0 LINE",
"1487 0 LINE",
"1487 45 LINE",
"1334 45 LINE",
"1334 1107 LINE",
"1487 1107 LINE",
"1487 1152 LINE",
"1259 1152 LINE",
"824 212 LINE",
"361 1152 LINE",
"137 1152 LINE",
"137 1107 LINE",
"291 1107 LINE",
"291 45 LINE",
"137 45 LINE"
);
}
);
width = 1618;
},
{
associatedMasterId = "98C086B7-81AA-4491-8494-0C6A76849168";
layerId = "8003861B-37E0-46C3-A351-46ECCC712170";
name = b;
width = 1606;
},
{
anchors = (
{
name = top;
position = "{839, 1152}";
}
);
layerId = "BE4F947C-73D7-4684-AEED-17801393DA53";
paths = (
{
closed = 1;
nodes = (
"84 0 LINE",
"514 0 LINE",
"514 109 LINE",
"364 109 LINE",
"364 1015 LINE",
"805 60 LINE",
"858 60 LINE",
"1292 1016 LINE",
"1292 109 LINE",
"1142 109 LINE",
"1142 0 LINE",
"1608 0 LINE",
"1608 109 LINE",
"1452 109 LINE",
"1452 1044 LINE",
"1607 1044 LINE",
"1607 1152 LINE",
"1210 1152 LINE",
"851 345 LINE",
"475 1152 LINE",
"84 1152 LINE",
"84 1044 LINE",
"240 1044 LINE",
"240 109 LINE",
"84 109 LINE"
);
}
);
width = 1687;
},
{
anchors = (
{
name = top;
position = "{1022, 1152}";
}
);
layerId = "EFCDB4D9-E20B-4A8D-9DB5-150AD166B0AE";
paths = (
{
closed = 1;
nodes = (
"44 224 LINE",
"44 0 LINE",
"639 0 LINE",
"639 224 LINE",
"485 224 LINE",
"485 903 LINE",
"852 23 LINE",
"1038 23 LINE",
"1409 904 LINE",
"1409 224 LINE",
"1241 224 LINE",
"1241 0 LINE",
"1999 0 LINE",
"1999 224 LINE",
"1809 224 LINE",
"1809 928 LINE",
"1995 928 LINE",
"1995 1152 LINE",
"1290 1152 LINE",
"1021 535 LINE",
"753 1152 LINE",
"44 1152 LINE",
"44 928 LINE",
"220 928 LINE",
"220 224 LINE"
);
}
);
width = 2044;
}
);
unicode = 004D;
userData = {
com.typemytype.robofont.layerData = {
b = {
anchors = (
);
components = (
);
contours = (
);
lib = {
};
name = M;
unicodes = (
);
width = 1606;
};
};
org.robofab.postScriptHintData = {
};
};
},
{
glyphname = N;
lastChange = "2016-08-04 09:26:30 +0000";
layers = (
{
anchors = (
{
name = bot;
position = "{712, 0}";
},
{
name = top;
position = "{721, 1152}";
}
);
layerId = "98C086B7-81AA-4491-8494-0C6A76849168";
paths = (
{
closed = 1;
nodes = (
"132 0 LINE",
"486 0 LINE",
"486 45 LINE",
"335 45 LINE",
"335 1060 LINE",
"1175 0 LINE",
"1237 0 LINE",
"1237 1107 LINE",
"1365 1107 LINE",
"1365 1152 LINE",
"1028 1152 LINE",
"1028 1107 LINE",
"1181 1107 LINE",
"1181 86 LINE",
"336 1152 LINE",
"132 1152 LINE",
"132 1107 LINE",
"279 1107 LINE",
"279 45 LINE",
"132 45 LINE"
);
}
);
width = 1444;
},
{
associatedMasterId = "98C086B7-81AA-4491-8494-0C6A76849168";
layerId = "A7199EE0-4705-4F4D-B08B-49BF6298EE89";
name = b;
width = 1444;
},
{
anchors = (
{
name = bot;
position = "{719, 0}";
},
{
name = top;
position = "{719, 1152}";
}
);
layerId = "BE4F947C-73D7-4684-AEED-17801393DA53";
paths = (
{
closed = 1;
nodes = (
"83 0 LINE",
"538 0 LINE",
"538 109 LINE",
"374 109 LINE",
"374 982 LINE",
"1063 0 LINE",
"1228 0 LINE",
"1228 1044 LINE",
"1389 1044 LINE",
"1389 1152 LINE",
"936 1152 LINE",
"936 1044 LINE",
"1100 1044 LINE",
"1100 221 LINE",
"441 1152 LINE",
"83 1152 LINE",
"83 1044 LINE",
"247 1044 LINE",
"247 109 LINE",
"83 109 LINE"
);
}
);
width = 1442;
},
{
anchors = (
{
name = bot;
position = "{978, 0}";
},
{
name = top;
position = "{921, 1152}";
}
);
layerId = "EFCDB4D9-E20B-4A8D-9DB5-150AD166B0AE";
paths = (
{
closed = 1;
nodes = (
"44 224 LINE",
"44 0 LINE",
"664 0 LINE",
"664 224 LINE",
"490 224 LINE",
"490 765 LINE",
"1180 0 LINE",
"1509 0 LINE",
"1509 928 LINE",
"1703 928 LINE",
"1703 1152 LINE",
"1076 1152 LINE",
"1076 928 LINE",
"1244 928 LINE",
"1244 551 LINE",
"662 1152 LINE",
"44 1152 LINE",
"44 928 LINE",
"230 928 LINE",
"230 224 LINE"
);
}
);
width = 1741;
}
);
unicode = 004E;
userData = {
com.typemytype.robofont.layerData = {
b = {
anchors = (
);
components = (
);
contours = (
);
lib = {
};
name = N;
unicodes = (
);
width = 1444;
};
};
org.robofab.postScriptHintData = {
};
};
},
{
glyphname = Eng;
lastChange = "2016-08-04 09:26:30 +0000";
layers = (
{
layerId = "98C086B7-81AA-4491-8494-0C6A76849168";
paths = (
{
closed = 1;
nodes = (
"1028 1152 LINE",
"1028 1107 LINE",
"1181 1107 LINE",
"1181 86 LINE",
"336 1152 LINE",
"132 1152 LINE",
"132 1107 LINE",
"279 1107 LINE",
"279 45 LINE",
"132 45 LINE",
"132 0 LINE",
"486 0 LINE",
"486 45 LINE",
"335 45 LINE",
"335 1060 LINE",
"1181 -4 LINE",
"1181 -189 OFFCURVE",
"1091 -312 OFFCURVE",
"861 -312 CURVE",
"861 -360 LINE",
"1094 -360 OFFCURVE",
"1237 -250 OFFCURVE",
"1237 -3 CURVE SMOOTH",
"1237 1107 LINE",
"1365 1107 LINE",
"1365 1152 LINE"
);
}
);
width = 1444;
},
{
layerId = "BE4F947C-73D7-4684-AEED-17801393DA53";
paths = (
{
closed = 1;
nodes = (
"936 1152 LINE",
"936 1044 LINE",
"1100 1044 LINE",
"1100 221 LINE",
"441 1152 LINE",
"83 1152 LINE",
"83 1044 LINE",
"247 1044 LINE",
"247 109 LINE",
"83 109 LINE",
"83 0 LINE",
"538 0 LINE",
"538 109 LINE",
"374 109 LINE",
"374 982 LINE",
"1100 -28 LINE",
"1101 -190 OFFCURVE",
"1000 -267 OFFCURVE",
"804 -267 CURVE",
"804 -377 LINE",
"1041 -377 OFFCURVE",
"1228 -285 OFFCURVE",
"1228 -22 CURVE SMOOTH",
"1228 1044 LINE",
"1389 1044 LINE",
"1389 1152 LINE"
);
}
);
width = 1442;
},
{
layerId = "EFCDB4D9-E20B-4A8D-9DB5-150AD166B0AE";
paths = (
{
closed = 1;
nodes = (
"1703 928 LINE",
"1703 1152 LINE",
"1076 1152 LINE",
"1076 928 LINE",
"1244 928 LINE",
"1244 551 LINE",
"662 1152 LINE",
"44 1152 LINE",
"44 928 LINE",
"230 928 LINE",
"230 224 LINE",
"44 224 LINE",
"44 0 LINE",
"664 0 LINE",
"664 224 LINE",
"490 224 LINE",
"490 765 LINE",
"1246 18 LINE",
"1246 -190 OFFCURVE",
"1059 -185 OFFCURVE",
"938 -185 CURVE",
"938 -372 LINE",
"1216 -372 OFFCURVE",
"1509 -409 OFFCURVE",
"1509 4 CURVE SMOOTH",
"1509 928 LINE"
);
}
);
width = 1761;
}
);
unicode = 014A;
userData = {
org.robofab.postScriptHintData = {
};
};
},
{
glyphname = O;
lastChange = "2016-08-04 09:26:30 +0000";
layers = (
{
anchors = (
{
name = top;
position = "{726, 1152}";
}
);
layerId = "98C086B7-81AA-4491-8494-0C6A76849168";
paths = (
{
closed = 1;
nodes = (
"728 26 CURVE SMOOTH",
"352 26 OFFCURVE",
"186 301 OFFCURVE",
"186 572 CURVE SMOOTH",
"186 832 OFFCURVE",
"356 1126 OFFCURVE",
"728 1126 CURVE SMOOTH",
"1095 1126 OFFCURVE",
"1270 832 OFFCURVE",
"1270 572 CURVE SMOOTH",
"1270 310 OFFCURVE",
"1095 26 OFFCURVE"
);
},
{
closed = 1;
nodes = (
"726 -22 CURVE SMOOTH",
"1141 -22 OFFCURVE",
"1331 283 OFFCURVE",
"1331 572 CURVE SMOOTH",
"1331 858 OFFCURVE",
"1138 1174 OFFCURVE",
"728 1174 CURVE SMOOTH",
"318 1174 OFFCURVE",
"124 859 OFFCURVE",
"124 572 CURVE SMOOTH",
"124 286 OFFCURVE",
"314 -22 OFFCURVE"
);
}
);
width = 1455;
},
{
associatedMasterId = "98C086B7-81AA-4491-8494-0C6A76849168";
layerId = "D20D7D24-1F55-413C-89DE-FC1F3C203A3E";
name = b;
width = 1456;
},
{
anchors = (
{
name = top;
position = "{723, 1152}";
}
);
layerId = "BE4F947C-73D7-4684-AEED-17801393DA53";
paths = (
{
closed = 1;
nodes = (
"725 101 CURVE SMOOTH",
"442 101 OFFCURVE",
"280 310 OFFCURVE",
"280 572 CURVE SMOOTH",
"280 835 OFFCURVE",
"443 1053 OFFCURVE",
"725 1053 CURVE SMOOTH",
"1006 1053 OFFCURVE",
"1171 835 OFFCURVE",
"1171 573 CURVE SMOOTH",
"1171 313 OFFCURVE",
"1005 101 OFFCURVE"
);
},
{
closed = 1;
nodes = (
"725 -22 CURVE SMOOTH",
"1105 -22 OFFCURVE",
"1350 250 OFFCURVE",
"1350 573 CURVE SMOOTH",
"1350 897 OFFCURVE",
"1104 1174 OFFCURVE",
"725 1174 CURVE SMOOTH",
"347 1174 OFFCURVE",
"101 898 OFFCURVE",
"101 573 CURVE SMOOTH",
"101 251 OFFCURVE",
"346 -22 OFFCURVE"
);
}
);
width = 1452;
},
{
anchors = (
{
name = ogonek;
position = "{832, 0}";
},
{
name = top;
position = "{777, 1148}";
}
);
layerId = "EFCDB4D9-E20B-4A8D-9DB5-150AD166B0AE";
paths = (
{
closed = 1;
nodes = (
"786 -22 CURVE SMOOTH",
"1213 -29 OFFCURVE",
"1492 204 OFFCURVE",
"1492 571 CURVE SMOOTH",
"1492 936 OFFCURVE",
"1213 1174 OFFCURVE",
"787 1174 CURVE SMOOTH",
"360 1174 OFFCURVE",
"80 936 OFFCURVE",
"80 570 CURVE SMOOTH",
"80 204 OFFCURVE",
"360 -29 OFFCURVE"
);
},
{
closed = 1;
nodes = (
"787 246 CURVE SMOOTH",
"603 246 OFFCURVE",
"484 380 OFFCURVE",
"484 583 CURVE SMOOTH",
"484 786 OFFCURVE",
"603 909 OFFCURVE",
"786 906 CURVE SMOOTH",
"970 909 OFFCURVE",
"1089 786 OFFCURVE",
"1089 583 CURVE SMOOTH",
"1089 380 OFFCURVE",
"970 246 OFFCURVE"
);
}
);
width = 1572;
}
);
unicode = 004F;
userData = {
com.typemytype.robofont.layerData = {
b = {
anchors = (
);
components = (
);
contours = (
);
lib = {
};
name = O;
unicodes = (
);
width = 1456;
};
};
org.robofab.postScriptHintData = {
};
};
},
{
glyphname = Oslash;
lastChange = "2016-08-04 09:26:30 +0000";
layers = (
{
components = (
{
name = O;
transform = "{1, 0, 0, 1, 7, -9}";
}
);
layerId = "98C086B7-81AA-4491-8494-0C6A76849168";
paths = (
{
closed = 1;
nodes = (
"270 -72 LINE",
"1242 1191 LINE",
"1211 1214 LINE",
"235 -47 LINE"
);
}
);
width = 1583;
},
{
associatedMasterId = "98C086B7-81AA-4491-8494-0C6A76849168";
layerId = "1F2BFBB2-A292-4E8B-BBD8-D7EAE9DDF1C5";
name = b;
width = 1598;
},
{
components = (
{
name = O;
transform = "{1, 0, 0, 1, 2, -3}";
}
);
layerId = "BE4F947C-73D7-4684-AEED-17801393DA53";
paths = (
{
closed = 1;
nodes = (
"291 -75 LINE",
"1263 1165 LINE",
"1186 1219 LINE",
"213 -20 LINE"
);
}
);
width = 1494;
},
{
components = (
{
name = O;
}
);
layerId = "EFCDB4D9-E20B-4A8D-9DB5-150AD166B0AE";
paths = (
{
closed = 1;
nodes = (
"402 -113 LINE",
"1361 1159 LINE",
"1211 1266 LINE",
"252 -6 LINE"
);
}
);
width = 1611;
}
);
unicode = 00D8;
userData = {
com.typemytype.robofont.layerData = {
b = {
anchors = (
);
components = (
);
contours = (
);
lib = {
};
name = Oslash;
unicodes = (
);
width = 1598;
};
};
org.robofab.postScriptHintData = {
};
};
},
{
glyphname = OE;
lastChange = "2016-08-04 09:26:30 +0000";
layers = (
{
layerId = "98C086B7-81AA-4491-8494-0C6A76849168";
paths = (
{
closed = 1;
nodes = (
"785 0 CURVE SMOOTH",
"1826 0 LINE",
"1826 390 LINE",
"1773 390 LINE",
"1773 50 LINE",
"1067 50 LINE",
"1067 540 LINE",
"1538 540 LINE",
"1538 350 LINE",
"1584 350 LINE",
"1584 761 LINE",
"1538 761 LINE",
"1538 589 LINE",
"1068 589 LINE",
"1068 1102 LINE",
"1746 1102 LINE",
"1746 786 LINE",
"1799 786 LINE",
"1799 1152 LINE",
"785 1152 LINE SMOOTH",
"378 1152 OFFCURVE",
"133 935 OFFCURVE",
"132 571 CURVE SMOOTH",
"133 213 OFFCURVE",
"379 0 OFFCURVE"
);
},
{
closed = 1;
nodes = (
"787 50 LINE",
"419 50 OFFCURVE",
"193 247 OFFCURVE",
"193 571 CURVE SMOOTH",
"193 907 OFFCURVE",
"423 1102 OFFCURVE",
"786 1102 CURVE SMOOTH",
"1006 1102 LINE",
"1006 50 LINE"
);
}
);
width = 1962;
},
{
associatedMasterId = "98C086B7-81AA-4491-8494-0C6A76849168";
layerId = "6ED7BE39-3096-4A6D-91AA-535D6DED8F53";
name = b;
width = 1953;
},
{
layerId = "BE4F947C-73D7-4684-AEED-17801393DA53";
paths = (
{
closed = 1;
nodes = (
"796 0 CURVE SMOOTH",
"1905 0 LINE",
"1905 357 LINE",
"1776 357 LINE",
"1776 107 LINE",
"1221 107 LINE",
"1221 531 LINE",
"1583 531 LINE",
"1583 395 LINE",
"1667 395 LINE",
"1667 774 LINE",
"1584 774 LINE",
"1584 642 LINE",
"1221 642 LINE",
"1221 1045 LINE",
"1765 1045 LINE",
"1765 807 LINE",
"1894 807 LINE",
"1894 1152 LINE",
"795 1152 LINE SMOOTH",
"399 1152 OFFCURVE",
"154 934 OFFCURVE",
"153 579 CURVE SMOOTH",
"154 221 OFFCURVE",
"400 0 OFFCURVE"
);
},
{
closed = 1;
nodes = (
"808 107 LINE",
"514 107 OFFCURVE",
"332 288 OFFCURVE",
"332 578 CURVE SMOOTH",
"332 868 OFFCURVE",
"516 1045 OFFCURVE",
"806 1045 CURVE SMOOTH",
"1055 1045 LINE",
"1055 107 LINE"
);
}
);
width = 2018;
},
{
layerId = "EFCDB4D9-E20B-4A8D-9DB5-150AD166B0AE";
paths = (
{
closed = 1;
nodes = (
"1180 0 CURVE SMOOTH",
"2368 0 LINE",
"2368 384 LINE",
"2072 384 LINE",
"2072 203 LINE",
"1701 203 LINE",
"1701 526 LINE",
"1884 526 LINE",
"1884 441 LINE",
"1990 441 LINE",
"1990 817 LINE",
"1885 817 LINE",
"1885 770 LINE",
"1708 770 LINE",
"1708 945 LINE",
"2074 945 LINE",
"2074 767 LINE",
"2354 767 LINE",
"2354 1152 LINE",
"1177 1152 LINE SMOOTH",
"590 1156 OFFCURVE",
"278 1007 OFFCURVE",
"274 609 CURVE SMOOTH",
"278 171 OFFCURVE",
"591 0 OFFCURVE"
);
},
{
closed = 1;
nodes = (
"1090 203 LINE",
"855 196 OFFCURVE",
"718 334 OFFCURVE",
"714 599 CURVE SMOOTH",
"718 829 OFFCURVE",
"894 942 OFFCURVE",
"1111 945 CURVE SMOOTH",
"1291 949 LINE",
"1291 210 LINE"
);
}
);
width = 2470;
}
);
unicode = 0152;
userData = {
com.typemytype.robofont.layerData = {
b = {
anchors = (
);
components = (
);
contours = (
);
lib = {
};
name = OE;
unicodes = (
);
width = 1953;
};
};
org.robofab.postScriptHintData = {
};
};
},
{
glyphname = P;
lastChange = "2016-08-04 09:26:30 +0000";
layers = (
{
anchors = (
{
name = top;
position = "{668, 1152}";
}
);
layerId = "98C086B7-81AA-4491-8494-0C6A76849168";
paths = (
{
closed = 1;
nodes = (
"123 0 LINE",
"532 0 LINE",
"532 45 LINE",
"358 45 LINE",
"358 1107 LINE",
"741 1107 LINE SMOOTH",
"913 1107 OFFCURVE",
"1014 1011 OFFCURVE",
"1014 845 CURVE SMOOTH",
"1014 654 OFFCURVE",
"916 541 OFFCURVE",
"748 541 CURVE SMOOTH",
"454 541 LINE",
"453 497 LINE",
"748 497 LINE SMOOTH",
"955 497 OFFCURVE",
"1076 627 OFFCURVE",
"1076 848 CURVE SMOOTH",
"1076 1041 OFFCURVE",
"952 1152 OFFCURVE",
"739 1152 CURVE SMOOTH",
"123 1152 LINE",
"123 1107 LINE",
"297 1107 LINE",
"297 45 LINE",
"123 45 LINE"
);
}
);
width = 1215;
},
{
associatedMasterId = "98C086B7-81AA-4491-8494-0C6A76849168";
layerId = "0A99DEE9-4221-46D3-8A42-95E309669A94";
name = b;
paths = (
{
closed = 1;
nodes = (
"353 1095 LINE",
"759 1095 LINE SMOOTH",
"936 1095 OFFCURVE",
"1024 960 OFFCURVE",
"1024 823 CURVE SMOOTH",
"1024 683 OFFCURVE",
"934 544 OFFCURVE",
"759 544 CURVE SMOOTH",
"353 544 LINE"
);
},
{
closed = 1;
nodes = (
"135 0 LINE",
"512 0 LINE",
"512 58 LINE",
"353 58 LINE",
"353 483 LINE",
"759 483 LINE SMOOTH",
"984 483 OFFCURVE",
"1098 656 OFFCURVE",
"1098 826 CURVE SMOOTH",
"1098 989 OFFCURVE",
"984 1154 OFFCURVE",
"759 1154 CURVE SMOOTH",
"122 1154 LINE",
"122 1095 LINE",
"278 1095 LINE",
"278 58 LINE",
"135 58 LINE"
);
}
);
width = 1226;
},
{
anchors = (
{
name = top;
position = "{595, 1152}";
}
);
layerId = "BE4F947C-73D7-4684-AEED-17801393DA53";
paths = (
{
closed = 1;
nodes = (
"80 0 LINE",
"567 0 LINE",
"567 108 LINE",
"407 108 LINE",
"407 1044 LINE",
"668 1044 LINE SMOOTH",
"824 1044 OFFCURVE",
"909 966 OFFCURVE",
"909 824 CURVE SMOOTH",
"909 670 OFFCURVE",
"812 585 OFFCURVE",
"633 585 CURVE SMOOTH",
"485 585 LINE",
"485 477 LINE",
"639 477 LINE SMOOTH",
"926 477 OFFCURVE",
"1081 600 OFFCURVE",
"1081 825 CURVE SMOOTH",
"1081 1038 OFFCURVE",
"930 1152 OFFCURVE",
"649 1152 CURVE SMOOTH",
"80 1152 LINE",
"80 1044 LINE",
"240 1044 LINE",
"240 108 LINE",
"80 108 LINE"
);
}
);
width = 1152;
},
{
anchors = (
{
name = top;
position = "{619, 1152}";
}
);
layerId = "EFCDB4D9-E20B-4A8D-9DB5-150AD166B0AE";
paths = (
{
closed = 1;
nodes = (
"709 660 LINE",
"709 450 LINE",
"728 450 LINE SMOOTH",
"1236 450 OFFCURVE",
"1322 557 OFFCURVE",
"1322 807 CURVE SMOOTH",
"1322 1083 OFFCURVE",
"1143 1152 OFFCURVE",
"810 1152 CURVE SMOOTH",
"44 1152 LINE",
"44 928 LINE",
"217 928 LINE",
"217 224 LINE",
"44 224 LINE",
"44 0 LINE",
"802 0 LINE",
"802 224 LINE",
"629 224 LINE",
"629 928 LINE",
"807 928 LINE SMOOTH",
"851 928 OFFCURVE",
"916 897 OFFCURVE",
"916 808 CURVE SMOOTH",
"916 712 OFFCURVE",
"892 660 OFFCURVE",
"756 660 CURVE SMOOTH"
);
}
);
width = 1362;
}
);
unicode = 0050;
userData = {
com.typemytype.robofont.layerData = {
b = {
anchors = (
);
components = (
);
contours = (
{
points = (
{
segmentType = line;
smooth = 0;
x = 353;
y = 1095;
},
{
segmentType = line;
smooth = 1;
x = 759;
y = 1095;
},
{
smooth = 0;
x = 936;
y = 1095;
},
{
smooth = 0;
x = 1024;
y = 960;
},
{
segmentType = curve;
smooth = 1;
x = 1024;
y = 823;
},
{
smooth = 0;
x = 1024;
y = 683;
},
{
smooth = 0;
x = 934;
y = 544;
},
{
segmentType = curve;
smooth = 1;
x = 759;
y = 544;
},
{
segmentType = line;
smooth = 0;
x = 353;
y = 544;
}
);
},
{
points = (
{
segmentType = line;
smooth = 0;
x = 135;
y = 0;
},
{
segmentType = line;
smooth = 0;
x = 512;
y = 0;
},
{
segmentType = line;
smooth = 0;
x = 512;
y = 58;
},
{
segmentType = line;
smooth = 0;
x = 353;
y = 58;
},
{
segmentType = line;
smooth = 0;
x = 353;
y = 483;
},
{
segmentType = line;
smooth = 1;
x = 759;
y = 483;
},
{
smooth = 0;
x = 984;
y = 483;
},
{
smooth = 0;
x = 1098;
y = 656;
},
{
segmentType = curve;
smooth = 1;
x = 1098;
y = 826;
},
{
smooth = 0;
x = 1098;
y = 989;
},
{
smooth = 0;
x = 984;
y = 1154;
},
{
segmentType = curve;
smooth = 1;
x = 759;
y = 1154;
},
{
segmentType = line;
smooth = 0;
x = 122;
y = 1154;
},
{
segmentType = line;
smooth = 0;
x = 122;
y = 1095;
},
{
segmentType = line;
smooth = 0;
x = 278;
y = 1095;
},
{
segmentType = line;
smooth = 0;
x = 278;
y = 58;
},
{
segmentType = line;
smooth = 0;
x = 135;
y = 58;
}
);
}
);
lib = {
};
name = P;
unicodes = (
);
width = 1226;
};
};
org.robofab.postScriptHintData = {
};
};
},
{
glyphname = Thorn;
lastChange = "2016-08-04 09:26:30 +0000";
layers = (
{
components = (
{
name = I;
}
);
layerId = "98C086B7-81AA-4491-8494-0C6A76849168";
paths = (
{
closed = 1;
nodes = (
"454 340 LINE",
"734 340 LINE SMOOTH",
"936 340 OFFCURVE",
"1054 454 OFFCURVE",
"1054 650 CURVE SMOOTH",
"1054 816 OFFCURVE",
"932 914 OFFCURVE",
"723 914 CURVE SMOOTH",
"316 914 LINE",
"316 870 LINE",
"723 870 LINE SMOOTH",
"892 870 OFFCURVE",
"992 788 OFFCURVE",
"993 649 CURVE SMOOTH",
"994 481 OFFCURVE",
"898 383 OFFCURVE",
"735 383 CURVE SMOOTH",
"455 383 LINE"
);
}
);
width = 1212;
},
{
associatedMasterId = "98C086B7-81AA-4491-8494-0C6A76849168";
layerId = "14B42727-008A-42B0-A22A-E34271F2BC05";
name = b;
width = 1226;
},
{
components = (
{
name = I;
}
);
layerId = "BE4F947C-73D7-4684-AEED-17801393DA53";
paths = (
{
closed = 1;
nodes = (
"491 327 LINE",
"681 327 LINE SMOOTH",
"927 327 OFFCURVE",
"1065 432 OFFCURVE",
"1065 627 CURVE SMOOTH",
"1065 807 OFFCURVE",
"926 913 OFFCURVE",
"678 913 CURVE SMOOTH",
"324 913 LINE",
"324 807 LINE",
"678 807 LINE SMOOTH",
"820 807 OFFCURVE",
"905 740 OFFCURVE",
"905 627 CURVE SMOOTH",
"905 494 OFFCURVE",
"822 426 OFFCURVE",
"682 426 CURVE SMOOTH",
"492 426 LINE"
);
}
);
width = 1127;
},
{
layerId = "EFCDB4D9-E20B-4A8D-9DB5-150AD166B0AE";
paths = (
{
closed = 1;
nodes = (
"680 479 LINE",
"680 335 LINE",
"684 335 LINE SMOOTH",
"1242 335 OFFCURVE",
"1360 421 OFFCURVE",
"1360 593 CURVE SMOOTH",
"1360 796 OFFCURVE",
"1179 840 OFFCURVE",
"836 840 CURVE SMOOTH",
"627 840 LINE",
"627 928 LINE",
"800 928 LINE",
"800 1152 LINE",
"41 1152 LINE",
"41 928 LINE",
"214 928 LINE",
"214 224 LINE",
"41 224 LINE",
"41 0 LINE",
"800 0 LINE",
"800 224 LINE",
"627 224 LINE",
"627 690 LINE",
"821 690 LINE SMOOTH",
"868 690 OFFCURVE",
"933 668 OFFCURVE",
"933 593 CURVE SMOOTH",
"933 529 OFFCURVE",
"905 479 OFFCURVE",
"758 479 CURVE SMOOTH"
);
}
);
width = 1374;
}
);
unicode = 00DE;
userData = {
com.typemytype.robofont.layerData = {
b = {
anchors = (
);
components = (
);
contours = (
);
lib = {
};
name = Thorn;
unicodes = (
);
width = 1226;
};
};
org.robofab.postScriptHintData = {
};
};
},
{
glyphname = Q;
lastChange = "2016-08-04 09:26:30 +0000";
layers = (
{
layerId = "98C086B7-81AA-4491-8494-0C6A76849168";
paths = (
{
closed = 1;
nodes = (
"1160 -186 CURVE",
"1150 -146 LINE",
"1106 -160 OFFCURVE",
"1070 -167 OFFCURVE",
"1037 -167 CURVE SMOOTH",
"938 -167 OFFCURVE",
"877 -107 OFFCURVE",
"774 -20 CURVE",
"1157 1 OFFCURVE",
"1331 295 OFFCURVE",
"1331 572 CURVE SMOOTH",
"1331 858 OFFCURVE",
"1138 1174 OFFCURVE",
"728 1174 CURVE SMOOTH",
"318 1174 OFFCURVE",
"124 859 OFFCURVE",
"124 572 CURVE SMOOTH",
"124 290 OFFCURVE",
"308 -15 OFFCURVE",
"711 -22 CURVE",
"842 -134 OFFCURVE",
"917 -210 OFFCURVE",
"1035 -210 CURVE SMOOTH",
"1071 -210 OFFCURVE",
"1111 -202 OFFCURVE"
);
},
{
closed = 1;
nodes = (
"728 26 CURVE SMOOTH",
"352 26 OFFCURVE",
"186 301 OFFCURVE",
"186 572 CURVE SMOOTH",
"186 832 OFFCURVE",
"356 1126 OFFCURVE",
"728 1126 CURVE SMOOTH",
"1095 1126 OFFCURVE",
"1270 832 OFFCURVE",
"1270 572 CURVE SMOOTH",
"1270 310 OFFCURVE",
"1095 26 OFFCURVE"
);
}
);
width = 1439;
},
{
associatedMasterId = "98C086B7-81AA-4491-8494-0C6A76849168";
layerId = "52282A1A-0BF6-4A3B-A542-D68AE1C4237C";
name = b;
width = 1438;
},
{
layerId = "BE4F947C-73D7-4684-AEED-17801393DA53";
paths = (
{
closed = 1;
nodes = (
"1195 -257 CURVE",
"1191 -147 LINE",
"1148 -158 OFFCURVE",
"1110 -163 OFFCURVE",
"1076 -163 CURVE SMOOTH",
"955 -163 OFFCURVE",
"884 -99 OFFCURVE",
"815 -16 CURVE",
"1146 22 OFFCURVE",
"1350 277 OFFCURVE",
"1350 573 CURVE SMOOTH",
"1350 897 OFFCURVE",
"1104 1174 OFFCURVE",
"725 1174 CURVE SMOOTH",
"347 1174 OFFCURVE",
"101 898 OFFCURVE",
"101 573 CURVE SMOOTH",
"101 268 OFFCURVE",
"319 5 OFFCURVE",
"669 -19 CURVE",
"775 -177 OFFCURVE",
"908 -274 OFFCURVE",
"1076 -274 CURVE SMOOTH",
"1113 -274 OFFCURVE",
"1152 -268 OFFCURVE"
);
},
{
closed = 1;
nodes = (
"725 101 CURVE SMOOTH",
"442 101 OFFCURVE",
"280 310 OFFCURVE",
"280 572 CURVE SMOOTH",
"280 835 OFFCURVE",
"443 1053 OFFCURVE",
"725 1053 CURVE SMOOTH",
"1006 1053 OFFCURVE",
"1171 835 OFFCURVE",
"1171 573 CURVE SMOOTH",
"1171 313 OFFCURVE",
"1005 101 OFFCURVE"
);
}
);
width = 1446;
},
{
anchors = (
{
name = ogonek;
position = "{832, 0}";
},
{
name = top;
position = "{777, 1148}";
}
);
layerId = "EFCDB4D9-E20B-4A8D-9DB5-150AD166B0AE";
paths = (
{
closed = 1;
nodes = (
"1404 -357 CURVE",
"1404 -99 LINE",
"1226 -158 OFFCURVE",
"1006 -190 OFFCURVE",
"930 -15 CURVE",
"1274 27 OFFCURVE",
"1492 246 OFFCURVE",
"1492 571 CURVE SMOOTH",
"1492 936 OFFCURVE",
"1213 1174 OFFCURVE",
"787 1174 CURVE SMOOTH",
"360 1174 OFFCURVE",
"80 936 OFFCURVE",
"80 570 CURVE SMOOTH",
"80 271 OFFCURVE",
"266 61 OFFCURVE",
"570 -3 CURVE",
"674 -441 OFFCURVE",
"1135 -439 OFFCURVE"
);
},
{
closed = 1;
nodes = (
"787 246 CURVE SMOOTH",
"603 246 OFFCURVE",
"484 380 OFFCURVE",
"484 583 CURVE SMOOTH",
"484 786 OFFCURVE",
"603 909 OFFCURVE",
"786 906 CURVE SMOOTH",
"970 909 OFFCURVE",
"1089 786 OFFCURVE",
"1089 583 CURVE SMOOTH",
"1089 380 OFFCURVE",
"970 246 OFFCURVE"
);
}
);
width = 1572;
}
);
unicode = 0051;
userData = {
com.typemytype.robofont.layerData = {
b = {
anchors = (
);
components = (
);
contours = (
);
lib = {
};
name = Q;
unicodes = (
);
width = 1438;
};
};
org.robofab.postScriptHintData = {
};
};
},
{
glyphname = R;
lastChange = "2016-08-04 09:26:30 +0000";
layers = (
{
anchors = (
{
name = bot;
position = "{711, 0}";
},
{
name = top;
position = "{649, 1152}";
}
);
layerId = "98C086B7-81AA-4491-8494-0C6A76849168";
paths = (
{
closed = 1;
nodes = (
"990 0 LINE",
"1200 0 LINE",
"1200 45 LINE",
"1031 45 LINE",
"721 540 LINE",
"996 545 OFFCURVE",
"1078 697 OFFCURVE",
"1078 846 CURVE SMOOTH",
"1078 997 OFFCURVE",
"985 1152 OFFCURVE",
"749 1152 CURVE SMOOTH",
"123 1152 LINE",
"123 1107 LINE",
"297 1107 LINE",
"297 45 LINE",
"123 45 LINE",
"123 0 LINE",
"532 0 LINE",
"532 45 LINE",
"358 45 LINE",
"358 1107 LINE",
"753 1107 LINE SMOOTH",
"953 1107 OFFCURVE",
"1018 971 OFFCURVE",
"1018 846 CURVE SMOOTH",
"1018 730 OFFCURVE",
"961 583 OFFCURVE",
"696 583 CURVE SMOOTH",
"428 583 LINE",
"428 538 LINE",
"655 538 LINE"
);
}
);
width = 1292;
},
{
associatedMasterId = "98C086B7-81AA-4491-8494-0C6A76849168";
layerId = "AD679A57-3218-49CD-BD34-4CA76B9861A3";
name = b;
paths = (
{
closed = 1;
nodes = (
"135 0 LINE",
"512 0 LINE",
"512 58 LINE",
"353 58 LINE",
"353 539 LINE",
"641 539 LINE",
"961 0 LINE",
"1178 0 LINE",
"1178 58 LINE",
"1015 58 LINE",
"721 539 LINE",
"945 539 OFFCURVE",
"1059 696 OFFCURVE",
"1059 848 CURVE SMOOTH",
"1059 1000 OFFCURVE",
"945 1154 OFFCURVE",
"721 1154 CURVE SMOOTH",
"122 1154 LINE",
"122 1095 LINE",
"278 1095 LINE",
"278 58 LINE",
"135 58 LINE"
);
},
{
closed = 1;
nodes = (
"353 1095 LINE",
"721 1095 LINE SMOOTH",
"898 1095 OFFCURVE",
"985 971 OFFCURVE",
"985 845 CURVE SMOOTH",
"985 723 OFFCURVE",
"896 600 OFFCURVE",
"721 600 CURVE SMOOTH",
"353 600 LINE"
);
}
);
width = 1296;
},
{
anchors = (
{
name = bot;
position = "{663, 0}";
},
{
name = top;
position = "{598, 1152}";
}
);
layerId = "BE4F947C-73D7-4684-AEED-17801393DA53";
paths = (
{
closed = 1;
nodes = (
"929 0 LINE",
"1215 0 LINE",
"1215 109 LINE",
"1044 109 LINE",
"780 545 LINE",
"993 578 OFFCURVE",
"1077 693 OFFCURVE",
"1077 851 CURVE SMOOTH",
"1077 1052 OFFCURVE",
"928 1152 OFFCURVE",
"686 1152 CURVE SMOOTH",
"80 1152 LINE",
"80 1044 LINE",
"240 1044 LINE",
"240 108 LINE",
"80 108 LINE",
"80 0 LINE",
"567 0 LINE",
"567 108 LINE",
"407 108 LINE",
"407 1044 LINE",
"688 1044 LINE SMOOTH",
"844 1044 OFFCURVE",
"911 956 OFFCURVE",
"911 849 CURVE SMOOTH",
"911 749 OFFCURVE",
"860 640 OFFCURVE",
"660 640 CURVE SMOOTH",
"479 640 LINE",
"479 529 LINE",
"620 529 LINE"
);
}
);
width = 1267;
},
{
anchors = (
{
name = bot;
position = "{783, 0}";
},
{
name = top;
position = "{609, 1152}";
}
);
layerId = "EFCDB4D9-E20B-4A8D-9DB5-150AD166B0AE";
paths = (
{
closed = 1;
nodes = (
"1344 225 LINE",
"1181 514 LINE",
"1261 538 OFFCURVE",
"1425 582 OFFCURVE",
"1425 833 CURVE SMOOTH",
"1425 1107 OFFCURVE",
"1213 1152 OFFCURVE",
"935 1152 CURVE SMOOTH",
"44 1152 LINE",
"44 928 LINE",
"217 928 LINE",
"217 224 LINE",
"44 224 LINE",
"44 0 LINE",
"802 0 LINE",
"802 224 LINE",
"629 224 LINE",
"629 928 LINE",
"871 928 LINE SMOOTH",
"974 928 OFFCURVE",
"1016 873 OFFCURVE",
"1016 810 CURVE SMOOTH",
"1016 730 OFFCURVE",
"977 685 OFFCURVE",
"851 685 CURVE SMOOTH",
"713 685 LINE",
"713 477 LINE",
"788 477 LINE",
"1038 0 LINE",
"1508 0 LINE",
"1508 225 LINE"
);
}
);
width = 1568;
}
);
unicode = 0052;
userData = {
com.typemytype.robofont.layerData = {
b = {
anchors = (
);
components = (
);
contours = (
{
points = (
{
segmentType = line;
smooth = 0;
x = 135;
y = 0;
},
{
segmentType = line;
smooth = 0;
x = 512;
y = 0;
},
{
segmentType = line;
smooth = 0;
x = 512;
y = 58;
},
{
segmentType = line;
smooth = 0;
x = 353;
y = 58;
},
{
segmentType = line;
smooth = 0;
x = 353;
y = 539;
},
{
segmentType = line;
smooth = 0;
x = 641;
y = 539;
},
{
segmentType = line;
smooth = 0;
x = 961;
y = 0;
},
{
segmentType = line;
smooth = 0;
x = 1178;
y = 0;
},
{
segmentType = line;
smooth = 0;
x = 1178;
y = 58;
},
{
segmentType = line;
smooth = 0;
x = 1015;
y = 58;
},
{
segmentType = line;
smooth = 0;
x = 721;
y = 539;
},
{
smooth = 0;
x = 945;
y = 539;
},
{
smooth = 0;
x = 1059;
y = 696;
},
{
segmentType = curve;
smooth = 1;
x = 1059;
y = 848;
},
{
smooth = 0;
x = 1059;
y = 1000;
},
{
smooth = 0;
x = 945;
y = 1154;
},
{
segmentType = curve;
smooth = 1;
x = 721;
y = 1154;
},
{
segmentType = line;
smooth = 0;
x = 122;
y = 1154;
},
{
segmentType = line;
smooth = 0;
x = 122;
y = 1095;
},
{
segmentType = line;
smooth = 0;
x = 278;
y = 1095;
},
{
segmentType = line;
smooth = 0;
x = 278;
y = 58;
},
{
segmentType = line;
smooth = 0;
x = 135;
y = 58;
}
);
},
{
points = (
{
segmentType = line;
smooth = 0;
x = 353;
y = 1095;
},
{
segmentType = line;
smooth = 1;
x = 721;
y = 1095;
},
{
smooth = 0;
x = 898;
y = 1095;
},
{
smooth = 0;
x = 985;
y = 971;
},
{
segmentType = curve;
smooth = 1;
x = 985;
y = 845;
},
{
smooth = 0;
x = 985;
y = 723;
},
{
smooth = 0;
x = 896;
y = 600;
},
{
segmentType = curve;
smooth = 1;
x = 721;
y = 600;
},
{
segmentType = line;
smooth = 0;
x = 353;
y = 600;
}
);
}
);
lib = {
};
name = R;
unicodes = (
);
width = 1296;
};
};
org.robofab.postScriptHintData = {
};
};
},
{
glyphname = S;
lastChange = "2016-08-04 09:26:30 +0000";
layers = (
{
anchors = (
{
name = bot;
position = "{640, 0}";
},
{
name = top;
position = "{580, 1152}";
}
);
layerId = "98C086B7-81AA-4491-8494-0C6A76849168";
paths = (
{
closed = 1;
nodes = (
"636 -22 CURVE SMOOTH",
"966 -22 OFFCURVE",
"1025 188 OFFCURVE",
"1025 295 CURVE SMOOTH",
"1025 563 OFFCURVE",
"829 584 OFFCURVE",
"610 607 CURVE SMOOTH",
"409 627 OFFCURVE",
"232 650 OFFCURVE",
"232 857 CURVE SMOOTH",
"232 1006 OFFCURVE",
"331 1126 OFFCURVE",
"571 1126 CURVE SMOOTH",
"763 1126 OFFCURVE",
"895 1039 OFFCURVE",
"901 954 CURVE SMOOTH",
"900 844 LINE",
"956 844 LINE",
"956 1153 LINE",
"900 1153 LINE",
"900 1042 LINE",
"849 1129 OFFCURVE",
"680 1174 OFFCURVE",
"566 1174 CURVE SMOOTH",
"349 1174 OFFCURVE",
"174 1074 OFFCURVE",
"174 859 CURVE SMOOTH",
"174 601 OFFCURVE",
"392 573 OFFCURVE",
"601 555 CURVE SMOOTH",
"822 536 OFFCURVE",
"966 504 OFFCURVE",
"966 301 CURVE SMOOTH",
"966 163 OFFCURVE",
"885 26 OFFCURVE",
"637 26 CURVE SMOOTH",
"397 26 OFFCURVE",
"273 92 OFFCURVE",
"233 235 CURVE",
"233 387 LINE",
"176 387 LINE",
"176 -1 LINE",
"233 -1 LINE",
"233 147 LINE",
"286 24 OFFCURVE",
"438 -22 OFFCURVE"
);
}
);
width = 1133;
},
{
associatedMasterId = "98C086B7-81AA-4491-8494-0C6A76849168";
layerId = "1E46E045-873A-41D6-8967-D550FD9CC2B7";
name = b;
paths = (
{
closed = 1;
nodes = (
"636 -23 CURVE SMOOTH",
"930 -23 OFFCURVE",
"1026 171 OFFCURVE",
"1026 295 CURVE SMOOTH",
"1026 543 OFFCURVE",
"829 599 OFFCURVE",
"606 622 CURVE SMOOTH",
"405 643 OFFCURVE",
"269 667 OFFCURVE",
"269 851 CURVE SMOOTH",
"269 998 OFFCURVE",
"360 1104 OFFCURVE",
"573 1104 CURVE SMOOTH",
"719 1104 OFFCURVE",
"885 1024 OFFCURVE",
"885 941 CURVE SMOOTH",
"885 839 LINE",
"959 839 LINE",
"959 1152 LINE",
"885 1152 LINE",
"885 1049 LINE",
"828 1131 OFFCURVE",
"673 1172 OFFCURVE",
"561 1172 CURVE SMOOTH",
"360 1172 OFFCURVE",
"184 1066 OFFCURVE",
"184 863 CURVE SMOOTH",
"184 635 OFFCURVE",
"332 579 OFFCURVE",
"584 553 CURVE SMOOTH",
"805 531 OFFCURVE",
"942 488 OFFCURVE",
"942 300 CURVE SMOOTH",
"942 169 OFFCURVE",
"831 47 OFFCURVE",
"644 47 CURVE SMOOTH",
"448 47 OFFCURVE",
"261 118 OFFCURVE",
"261 247 CURVE SMOOTH",
"261 387 LINE",
"187 387 LINE",
"187 -1 LINE",
"261 -1 LINE",
"261 122 LINE",
"335 22 OFFCURVE",
"496 -23 OFFCURVE"
);
}
);
width = 1143;
},
{
anchors = (
{
name = bot;
position = "{605, 0}";
},
{
name = top;
position = "{559, 1152}";
}
);
layerId = "BE4F947C-73D7-4684-AEED-17801393DA53";
paths = (
{
closed = 1;
nodes = (
"603 -20 CURVE SMOOTH",
"853 -20 OFFCURVE",
"994 134 OFFCURVE",
"994 310 CURVE SMOOTH",
"994 571 OFFCURVE",
"815 622 OFFCURVE",
"583 659 CURVE SMOOTH",
"401 686 OFFCURVE",
"289 723 OFFCURVE",
"289 864 CURVE SMOOTH",
"289 977 OFFCURVE",
"366 1057 OFFCURVE",
"536 1057 CURVE SMOOTH",
"664 1057 OFFCURVE",
"756 1009 OFFCURVE",
"797 933 CURVE SMOOTH",
"797 828 LINE",
"928 828 LINE",
"928 1156 LINE",
"797 1156 LINE",
"797 1069 LINE",
"736 1138 OFFCURVE",
"621 1174 OFFCURVE",
"521 1174 CURVE SMOOTH",
"302 1174 OFFCURVE",
"139 1071 OFFCURVE",
"139 860 CURVE SMOOTH",
"139 612 OFFCURVE",
"331 556 OFFCURVE",
"554 524 CURVE SMOOTH",
"740 499 OFFCURVE",
"833 454 OFFCURVE",
"833 306 CURVE SMOOTH",
"833 194 OFFCURVE",
"760 99 OFFCURVE",
"593 99 CURVE SMOOTH",
"436 99 OFFCURVE",
"318 167 OFFCURVE",
"278 256 CURVE",
"278 389 LINE",
"145 389 LINE",
"145 -1 LINE",
"278 -1 LINE",
"278 112 LINE",
"348 25 OFFCURVE",
"463 -20 OFFCURVE"
);
}
);
width = 1070;
},
{
anchors = (
{
name = bot;
position = "{667, 0}";
},
{
name = top;
position = "{583, 1148}";
}
);
layerId = "EFCDB4D9-E20B-4A8D-9DB5-150AD166B0AE";
paths = (
{
closed = 1;
nodes = (
"673 -23 CURVE SMOOTH",
"1017 -23 OFFCURVE",
"1121 201 OFFCURVE",
"1104 395 CURVE SMOOTH",
"1090 551 OFFCURVE",
"1053 635 OFFCURVE",
"706 751 CURVE SMOOTH",
"527 812 OFFCURVE",
"521 839 OFFCURVE",
"520 884 CURVE SMOOTH",
"519 919 OFFCURVE",
"548 951 OFFCURVE",
"595 951 CURVE SMOOTH",
"705 951 OFFCURVE",
"792 879 OFFCURVE",
"798 875 CURVE",
"798 801 LINE",
"1044 801 LINE",
"1044 1151 LINE",
"798 1151 LINE",
"798 1070 LINE",
"774 1112 OFFCURVE",
"702 1174 OFFCURVE",
"536 1174 CURVE SMOOTH",
"191 1174 OFFCURVE",
"98 973 OFFCURVE",
"99 842 CURVE SMOOTH",
"100 665 OFFCURVE",
"152 563 OFFCURVE",
"531 444 CURVE SMOOTH",
"680 396 OFFCURVE",
"732 382 OFFCURVE",
"732 303 CURVE SMOOTH",
"732 225 OFFCURVE",
"663 206 OFFCURVE",
"603 206 CURVE SMOOTH",
"503 206 OFFCURVE",
"419 253 OFFCURVE",
"375 283 CURVE",
"375 448 LINE",
"108 448 LINE",
"108 0 LINE",
"375 0 LINE",
"375 70 LINE",
"432 10 OFFCURVE",
"567 -23 OFFCURVE"
);
}
);
width = 1206;
}
);
unicode = 0053;
userData = {
com.typemytype.robofont.layerData = {
b = {
anchors = (
);
components = (
);
contours = (
{
points = (
{
segmentType = curve;
smooth = 1;
x = 636;
y = "-23";
},
{
smooth = 0;
x = 930;
y = "-23";
},
{
smooth = 0;
x = 1026;
y = 171;
},
{
segmentType = curve;
smooth = 1;
x = 1026;
y = 295;
},
{
smooth = 0;
x = 1026;
y = 543;
},
{
smooth = 0;
x = 829;
y = 599;
},
{
segmentType = curve;
smooth = 1;
x = 606;
y = 622;
},
{
smooth = 0;
x = 405;
y = 643;
},
{
smooth = 0;
x = 269;
y = 667;
},
{
segmentType = curve;
smooth = 1;
x = 269;
y = 851;
},
{
smooth = 0;
x = 269;
y = 998;
},
{
smooth = 0;
x = 360;
y = 1104;
},
{
segmentType = curve;
smooth = 1;
x = 573;
y = 1104;
},
{
smooth = 0;
x = 719;
y = 1104;
},
{
smooth = 0;
x = 885;
y = 1024;
},
{
segmentType = curve;
smooth = 1;
x = 885;
y = 941;
},
{
segmentType = line;
smooth = 0;
x = 885;
y = 839;
},
{
segmentType = line;
smooth = 0;
x = 959;
y = 839;
},
{
segmentType = line;
smooth = 0;
x = 959;
y = 1152;
},
{
segmentType = line;
smooth = 0;
x = 885;
y = 1152;
},
{
segmentType = line;
smooth = 0;
x = 885;
y = 1049;
},
{
smooth = 0;
x = 828;
y = 1131;
},
{
smooth = 0;
x = 673;
y = 1172;
},
{
segmentType = curve;
smooth = 1;
x = 561;
y = 1172;
},
{
smooth = 0;
x = 360;
y = 1172;
},
{
smooth = 0;
x = 184;
y = 1066;
},
{
segmentType = curve;
smooth = 1;
x = 184;
y = 863;
},
{
smooth = 0;
x = 184;
y = 635;
},
{
smooth = 0;
x = 332;
y = 579;
},
{
segmentType = curve;
smooth = 1;
x = 584;
y = 553;
},
{
smooth = 0;
x = 805;
y = 531;
},
{
smooth = 0;
x = 942;
y = 488;
},
{
segmentType = curve;
smooth = 1;
x = 942;
y = 300;
},
{
smooth = 0;
x = 942;
y = 169;
},
{
smooth = 0;
x = 831;
y = 47;
},
{
segmentType = curve;
smooth = 1;
x = 644;
y = 47;
},
{
smooth = 0;
x = 448;
y = 47;
},
{
smooth = 0;
x = 261;
y = 118;
},
{
segmentType = curve;
smooth = 1;
x = 261;
y = 247;
},
{
segmentType = line;
smooth = 0;
x = 261;
y = 387;
},
{
segmentType = line;
smooth = 0;
x = 187;
y = 387;
},
{
segmentType = line;
smooth = 0;
x = 187;
y = "-1";
},
{
segmentType = line;
smooth = 0;
x = 261;
y = "-1";
},
{
segmentType = line;
smooth = 0;
x = 261;
y = 122;
},
{
smooth = 0;
x = 335;
y = 22;
},
{
smooth = 0;
x = 496;
y = "-23";
}
);
}
);
lib = {
};
name = S;
unicodes = (
);
width = 1143;
};
};
org.robofab.postScriptHintData = {
};
};
},
{
glyphname = T;
lastChange = "2016-08-04 09:26:30 +0000";
layers = (
{
anchors = (
{
name = bot;
position = "{565, 0}";
},
{
name = mid;
position = "{570, 692}";
},
{
name = top;
position = "{567, 1152}";
}
);
layerId = "98C086B7-81AA-4491-8494-0C6A76849168";
paths = (
{
closed = 1;
nodes = (
"52 773 LINE",
"104 773 LINE",
"104 1107 LINE",
"536 1107 LINE",
"536 45 LINE",
"362 45 LINE",
"362 0 LINE",
"771 0 LINE",
"771 45 LINE",
"597 45 LINE",
"597 1107 LINE",
"1041 1107 LINE",
"1041 773 LINE",
"1096 773 LINE",
"1096 1152 LINE",
"52 1152 LINE"
);
}
);
width = 1147;
},
{
associatedMasterId = "98C086B7-81AA-4491-8494-0C6A76849168";
layerId = "FA640D9F-518F-4944-B985-6F6C486767D6";
name = b;
width = 1147;
},
{
anchors = (
{
name = bot;
position = "{575, 0}";
},
{
name = mid;
position = "{571, 646}";
},
{
name = top;
position = "{570, 1152}";
}
);
layerId = "BE4F947C-73D7-4684-AEED-17801393DA53";
paths = (
{
closed = 1;
nodes = (
"52 752 LINE",
"176 752 LINE",
"176 1044 LINE",
"491 1044 LINE",
"491 108 LINE",
"331 108 LINE",
"331 0 LINE",
"818 0 LINE",
"818 108 LINE",
"658 108 LINE",
"658 1044 LINE",
"967 1044 LINE",
"967 752 LINE",
"1092 752 LINE",
"1092 1152 LINE",
"52 1152 LINE"
);
}
);
width = 1144;
},
{
anchors = (
{
name = bot;
position = "{737, 0}";
},
{
name = mid;
position = "{710, 531}";
},
{
name = top;
position = "{712, 1152}";
}
);
layerId = "EFCDB4D9-E20B-4A8D-9DB5-150AD166B0AE";
paths = (
{
closed = 1;
nodes = (
"-2 1152 LINE",
"-2 627 LINE",
"262 627 LINE",
"262 928 LINE",
"505 928 LINE",
"505 224 LINE",
"332 224 LINE",
"332 0 LINE",
"1090 0 LINE",
"1090 224 LINE",
"917 224 LINE",
"917 928 LINE",
"1154 928 LINE",
"1154 627 LINE",
"1412 627 LINE",
"1412 1152 LINE"
);
}
);
width = 1410;
}
);
unicode = 0054;
userData = {
com.typemytype.robofont.layerData = {
b = {
anchors = (
);
components = (
);
contours = (
);
lib = {
};
name = T;
unicodes = (
);
width = 1147;
};
};
org.robofab.postScriptHintData = {
};
};
},
{
glyphname = U;
lastChange = "2016-08-04 09:26:30 +0000";
layers = (
{
anchors = (
{
name = top;
position = "{750, 1152}";
}
);
layerId = "98C086B7-81AA-4491-8494-0C6A76849168";
paths = (
{
closed = 1;
nodes = (
"737 -22 CURVE SMOOTH",
"1049 -22 OFFCURVE",
"1268 134 OFFCURVE",
"1268 373 CURVE SMOOTH",
"1268 1107 LINE",
"1426 1107 LINE",
"1426 1152 LINE",
"1058 1152 LINE",
"1058 1107 LINE",
"1209 1107 LINE",
"1209 372 LINE SMOOTH",
"1209 165 OFFCURVE",
"1017 27 OFFCURVE",
"738 27 CURVE SMOOTH",
"477 27 OFFCURVE",
"300 167 OFFCURVE",
"300 375 CURVE SMOOTH",
"300 1107 LINE",
"452 1107 LINE",
"452 1152 LINE",
"85 1152 LINE",
"85 1107 LINE",
"238 1107 LINE",
"238 375 LINE SMOOTH",
"238 140 OFFCURVE",
"437 -22 OFFCURVE"
);
}
);
width = 1494;
},
{
associatedMasterId = "98C086B7-81AA-4491-8494-0C6A76849168";
layerId = "A6EB9B77-C65C-40EA-B7C7-00898C4AC30D";
name = b;
width = 1514;
},
{
anchors = (
{
name = top;
position = "{704, 1152}";
}
);
layerId = "BE4F947C-73D7-4684-AEED-17801393DA53";
paths = (
{
closed = 1;
nodes = (
"691 -20 CURVE SMOOTH",
"975 -20 OFFCURVE",
"1175 119 OFFCURVE",
"1175 404 CURVE SMOOTH",
"1175 1044 LINE",
"1331 1044 LINE",
"1331 1152 LINE",
"883 1152 LINE",
"883 1044 LINE",
"1034 1044 LINE",
"1034 398 LINE SMOOTH",
"1034 213 OFFCURVE",
"909 103 OFFCURVE",
"695 103 CURVE SMOOTH",
"493 103 OFFCURVE",
"375 214 OFFCURVE",
"375 396 CURVE SMOOTH",
"375 1044 LINE",
"529 1044 LINE",
"529 1152 LINE",
"56 1152 LINE",
"56 1044 LINE",
"209 1044 LINE",
"209 418 LINE SMOOTH",
"209 167 OFFCURVE",
"346 -20 OFFCURVE"
);
}
);
width = 1372;
},
{
anchors = (
{
name = ogonek;
position = "{868, 0}";
},
{
name = top;
position = "{907, 1152}";
}
);
layerId = "EFCDB4D9-E20B-4A8D-9DB5-150AD166B0AE";
paths = (
{
closed = 1;
nodes = (
"848 -23 CURVE SMOOTH",
"1243 -23 OFFCURVE",
"1439 159 OFFCURVE",
"1439 497 CURVE SMOOTH",
"1439 928 LINE",
"1618 928 LINE",
"1618 1152 LINE",
"997 1152 LINE",
"997 928 LINE",
"1185 928 LINE",
"1185 499 LINE SMOOTH",
"1185 319 OFFCURVE",
"1088 225 OFFCURVE",
"903 225 CURVE SMOOTH",
"729 225 OFFCURVE",
"638 318 OFFCURVE",
"638 500 CURVE SMOOTH",
"638 928 LINE",
"847 928 LINE",
"847 1152 LINE",
"47 1152 LINE",
"47 928 LINE",
"225 928 LINE",
"225 493 LINE SMOOTH",
"225 145 OFFCURVE",
"450 -23 OFFCURVE"
);
}
);
width = 1667;
}
);
unicode = 0055;
userData = {
com.typemytype.robofont.layerData = {
b = {
anchors = (
);
components = (
);
contours = (
);
lib = {
};
name = U;
unicodes = (
);
width = 1514;
};
};
org.robofab.postScriptHintData = {
};
};
},
{
glyphname = V;
lastChange = "2016-08-04 09:26:30 +0000";
layers = (
{
layerId = "98C086B7-81AA-4491-8494-0C6A76849168";
paths = (
{
closed = 1;
nodes = (
"591 0 LINE",
"655 0 LINE",
"1075 1107 LINE",
"1199 1107 LINE",
"1199 1152 LINE",
"847 1152 LINE",
"847 1107 LINE",
"1003 1107 LINE",
"624 76 LINE",
"242 1107 LINE",
"402 1107 LINE",
"402 1152 LINE",
"38 1152 LINE",
"38 1107 LINE",
"176 1107 LINE"
);
}
);
width = 1242;
},
{
associatedMasterId = "98C086B7-81AA-4491-8494-0C6A76849168";
layerId = "AABE73E1-EF53-4A1E-9764-24D1E57A483F";
name = b;
width = 1228;
},
{
layerId = "BE4F947C-73D7-4684-AEED-17801393DA53";
paths = (
{
closed = 1;
nodes = (
"592 0 LINE",
"738 0 LINE",
"1146 1044 LINE",
"1288 1044 LINE",
"1288 1152 LINE",
"849 1152 LINE",
"849 1044 LINE",
"997 1044 LINE",
"676 183 LINE",
"351 1044 LINE",
"502 1044 LINE",
"502 1152 LINE",
"33 1152 LINE",
"33 1044 LINE",
"179 1044 LINE"
);
}
);
width = 1323;
},
{
layerId = "EFCDB4D9-E20B-4A8D-9DB5-150AD166B0AE";
paths = (
{
closed = 1;
nodes = (
"203 928 LINE",
"671 0 LINE",
"948 0 LINE",
"1367 928 LINE",
"1553 928 LINE",
"1553 1152 LINE",
"939 1152 LINE",
"939 928 LINE",
"1104 928 LINE",
"872 424 LINE",
"648 928 LINE",
"805 928 LINE",
"805 1152 LINE",
"56 1152 LINE",
"56 928 LINE"
);
}
);
width = 1595;
}
);
unicode = 0056;
userData = {
com.typemytype.robofont.layerData = {
b = {
anchors = (
);
components = (
);
contours = (
);
lib = {
};
name = V;
unicodes = (
);
width = 1228;
};
};
org.robofab.postScriptHintData = {
};
};
},
{
glyphname = W;
lastChange = "2016-08-04 09:26:30 +0000";
layers = (
{
anchors = (
{
name = top;
position = "{981, 1152}";
}
);
layerId = "98C086B7-81AA-4491-8494-0C6A76849168";
paths = (
{
closed = 1;
nodes = (
"586 0 LINE",
"652 0 LINE",
"979 984 LINE",
"1303 0 LINE",
"1367 0 LINE",
"1735 1107 LINE",
"1880 1107 LINE",
"1880 1152 LINE",
"1517 1152 LINE",
"1517 1107 LINE",
"1673 1107 LINE",
"1336 78 LINE",
"1003 1094 LINE",
"956 1094 LINE",
"620 78 LINE",
"276 1107 LINE",
"437 1107 LINE",
"437 1152 LINE",
"72 1152 LINE",
"72 1107 LINE",
"210 1107 LINE"
);
}
);
width = 1952;
},
{
associatedMasterId = "98C086B7-81AA-4491-8494-0C6A76849168";
layerId = "EE6182E2-4987-40ED-BE67-A56F584A3ACB";
name = b;
width = 1962;
},
{
anchors = (
{
name = top;
position = "{960, 1152}";
}
);
layerId = "BE4F947C-73D7-4684-AEED-17801393DA53";
paths = (
{
closed = 1;
nodes = (
"519 0 LINE",
"661 0 LINE",
"948 872 LINE",
"1236 0 LINE",
"1380 0 LINE",
"1697 1044 LINE",
"1841 1044 LINE",
"1841 1152 LINE",
"1412 1152 LINE",
"1412 1044 LINE",
"1560 1044 LINE",
"1316 214 LINE",
"1017 1133 LINE",
"897 1133 LINE",
"600 214 LINE",
"351 1044 LINE",
"500 1044 LINE",
"500 1152 LINE",
"49 1152 LINE",
"49 1044 LINE",
"191 1044 LINE"
);
}
);
width = 1889;
},
{
anchors = (
{
name = top;
position = "{1125, 1152}";
}
);
layerId = "EFCDB4D9-E20B-4A8D-9DB5-150AD166B0AE";
paths = (
{
closed = 1;
nodes = (
"211 928 LINE",
"559 0 LINE",
"745 0 LINE",
"1033 547 LINE",
"1322 0 LINE",
"1522 0 LINE",
"1842 928 LINE",
"1990 928 LINE",
"1990 1152 LINE",
"1460 1152 LINE",
"1460 928 LINE",
"1612 928 LINE",
"1461 506 LINE",
"1160 1112 LINE",
"1084 1112 LINE",
"759 506 LINE",
"623 928 LINE",
"748 928 LINE",
"748 1152 LINE",
"65 1152 LINE",
"65 928 LINE"
);
}
);
width = 2055;
}
);
unicode = 0057;
userData = {
com.typemytype.robofont.layerData = {
b = {
anchors = (
);
components = (
);
contours = (
);
lib = {
};
name = W;
unicodes = (
);
width = 1962;
};
};
org.robofab.postScriptHintData = {
};
};
},
{
glyphname = X;
lastChange = "2016-08-04 09:26:30 +0000";
layers = (
{
layerId = "98C086B7-81AA-4491-8494-0C6A76849168";
paths = (
{
closed = 1;
nodes = (
"110 0 LINE",
"467 0 LINE",
"467 44 LINE",
"309 44 LINE",
"643 552 LINE",
"985 44 LINE",
"831 44 LINE",
"831 0 LINE",
"1189 0 LINE",
"1189 44 LINE",
"1040 44 LINE",
"678 585 LINE",
"1021 1108 LINE",
"1169 1108 LINE",
"1169 1152 LINE",
"807 1152 LINE",
"807 1108 LINE",
"963 1108 LINE",
"650 629 LINE",
"328 1108 LINE",
"480 1108 LINE",
"480 1152 LINE",
"122 1152 LINE",
"122 1108 LINE",
"272 1108 LINE",
"617 594 LINE",
"249 44 LINE",
"110 44 LINE"
);
}
);
width = 1295;
},
{
associatedMasterId = "98C086B7-81AA-4491-8494-0C6A76849168";
layerId = "2A356CFA-972F-4E35-A1B9-EC5913808293";
name = b;
width = 1293;
},
{
layerId = "BE4F947C-73D7-4684-AEED-17801393DA53";
paths = (
{
closed = 1;
nodes = (
"62 0 LINE",
"519 0 LINE",
"519 103 LINE",
"372 103 LINE",
"636 498 LINE",
"904 103 LINE",
"760 103 LINE",
"760 0 LINE",
"1244 0 LINE",
"1244 103 LINE",
"1082 103 LINE",
"736 592 LINE",
"1058 1049 LINE",
"1216 1049 LINE",
"1216 1152 LINE",
"768 1152 LINE",
"768 1049 LINE",
"910 1049 LINE",
"661 684 LINE",
"409 1049 LINE",
"549 1049 LINE",
"549 1152 LINE",
"75 1152 LINE",
"75 1049 LINE",
"233 1049 LINE",
"560 589 LINE",
"222 103 LINE",
"62 103 LINE"
);
}
);
width = 1305;
},
{
layerId = "EFCDB4D9-E20B-4A8D-9DB5-150AD166B0AE";
paths = (
{
closed = 1;
nodes = (
"36 225 LINE",
"36 0 LINE",
"648 0 LINE",
"648 225 LINE",
"507 225 LINE",
"711 399 LINE",
"898 225 LINE",
"784 225 LINE",
"784 0 LINE",
"1540 0 LINE",
"1540 225 LINE",
"1393 225 LINE",
"997 612 LINE",
"1331 926 LINE",
"1499 926 LINE",
"1499 1152 LINE",
"902 1152 LINE",
"902 926 LINE",
"1017 926 LINE",
"852 770 LINE",
"684 926 LINE",
"774 926 LINE",
"774 1152 LINE",
"55 1152 LINE",
"55 926 LINE",
"176 926 LINE",
"562 557 LINE",
"191 225 LINE"
);
}
);
width = 1575;
}
);
unicode = 0058;
userData = {
com.typemytype.robofont.layerData = {
b = {
anchors = (
);
components = (
);
contours = (
);
lib = {
};
name = X;
unicodes = (
);
width = 1293;
};
};
org.robofab.postScriptHintData = {
};
};
},
{
glyphname = Y;
lastChange = "2016-08-04 09:26:30 +0000";
layers = (
{
anchors = (
{
name = top;
position = "{636, 1152}";
}
);
layerId = "98C086B7-81AA-4491-8494-0C6A76849168";
paths = (
{
closed = 1;
nodes = (
"431 0 LINE",
"829 0 LINE",
"829 45 LINE",
"660 45 LINE",
"660 464 LINE",
"1088 1107 LINE",
"1241 1107 LINE",
"1241 1152 LINE",
"864 1152 LINE",
"864 1107 LINE",
"1024 1107 LINE",
"632 516 LINE",
"238 1107 LINE",
"389 1107 LINE",
"389 1152 LINE",
"14 1152 LINE",
"14 1107 LINE",
"171 1107 LINE",
"599 464 LINE",
"599 45 LINE",
"431 45 LINE"
);
}
);
width = 1260;
},
{
associatedMasterId = "98C086B7-81AA-4491-8494-0C6A76849168";
layerId = "F7EEFDF9-9A99-4B42-A834-ACCD2772A5D9";
name = b;
width = 1254;
},
{
anchors = (
{
name = top;
position = "{660, 1152}";
}
);
layerId = "BE4F947C-73D7-4684-AEED-17801393DA53";
paths = (
{
closed = 1;
nodes = (
"400 0 LINE",
"904 0 LINE",
"904 109 LINE",
"733 109 LINE",
"733 495 LINE",
"1108 1044 LINE",
"1265 1044 LINE",
"1265 1152 LINE",
"810 1152 LINE",
"810 1044 LINE",
"958 1044 LINE",
"665 603 LINE",
"362 1044 LINE",
"508 1044 LINE",
"508 1152 LINE",
"29 1152 LINE",
"29 1044 LINE",
"182 1044 LINE",
"568 494 LINE",
"568 109 LINE",
"400 109 LINE"
);
}
);
width = 1295;
},
{
anchors = (
{
name = top;
position = "{713, 1148}";
}
);
layerId = "EFCDB4D9-E20B-4A8D-9DB5-150AD166B0AE";
paths = (
{
closed = 1;
nodes = (
"314 224 LINE",
"314 0 LINE",
"1116 0 LINE",
"1116 224 LINE",
"921 224 LINE",
"921 443 LINE",
"1286 928 LINE",
"1455 928 LINE",
"1455 1152 LINE",
"847 1152 LINE",
"847 928 LINE",
"962 928 LINE",
"766 639 LINE",
"562 928 LINE",
"681 928 LINE",
"681 1152 LINE",
"-38 1152 LINE",
"-38 928 LINE",
"124 928 LINE",
"509 438 LINE",
"509 224 LINE"
);
}
);
width = 1464;
}
);
unicode = 0059;
userData = {
com.typemytype.robofont.layerData = {
b = {
anchors = (
);
components = (
);
contours = (
);
lib = {
};
name = Y;
unicodes = (
);
width = 1254;
};
};
org.robofab.postScriptHintData = {
};
};
},
{
glyphname = Z;
lastChange = "2016-08-04 09:26:30 +0000";
layers = (
{
anchors = (
{
name = top;
position = "{645, 1152}";
}
);
layerId = "98C086B7-81AA-4491-8494-0C6A76849168";
paths = (
{
closed = 1;
nodes = (
"141 0 LINE",
"1088 0 LINE",
"1088 365 LINE",
"1036 365 LINE",
"1036 45 LINE",
"210 45 LINE",
"1061 1107 LINE",
"1061 1152 LINE",
"169 1152 LINE",
"169 803 LINE",
"221 803 LINE",
"221 1107 LINE",
"991 1107 LINE",
"141 48 LINE"
);
}
);
width = 1232;
},
{
associatedMasterId = "98C086B7-81AA-4491-8494-0C6A76849168";
layerId = "61F6835A-2EC4-4FAD-8ADE-C2D12E527D9B";
name = b;
width = 1241;
},
{
anchors = (
{
name = top;
position = "{624, 1152}";
}
);
layerId = "BE4F947C-73D7-4684-AEED-17801393DA53";
paths = (
{
closed = 1;
nodes = (
"127 0 LINE",
"1071 0 LINE",
"1071 399 LINE",
"949 399 LINE",
"949 109 LINE",
"323 109 LINE",
"1056 1048 LINE",
"1056 1152 LINE",
"158 1152 LINE",
"158 773 LINE",
"281 773 LINE",
"281 1044 LINE",
"853 1044 LINE",
"127 117 LINE"
);
}
);
width = 1179;
},
{
anchors = (
{
name = top;
position = "{664, 1152}";
}
);
layerId = "EFCDB4D9-E20B-4A8D-9DB5-150AD166B0AE";
paths = (
{
closed = 1;
nodes = (
"48 0 LINE",
"1253 0 LINE",
"1253 640 LINE",
"997 640 LINE",
"997 225 LINE",
"561 225 LINE",
"1223 929 LINE",
"1223 1152 LINE",
"26 1152 LINE",
"26 556 LINE",
"286 556 LINE",
"286 928 LINE",
"675 928 LINE",
"48 240 LINE"
);
}
);
width = 1324;
}
);
unicode = 005A;
userData = {
com.typemytype.robofont.layerData = {
b = {
anchors = (
);
components = (
);
contours = (
);
lib = {
};
name = Z;
unicodes = (
);
width = 1241;
};
};
org.robofab.postScriptHintData = {
};
};
},
{
glyphname = a;
lastChange = "2016-08-04 09:26:30 +0000";
layers = (
{
anchors = (
{
name = top;
position = "{471, 805}";
}
);
layerId = "98C086B7-81AA-4491-8494-0C6A76849168";
paths = (
{
closed = 1;
nodes = (
"397 22 CURVE SMOOTH",
"259 22 OFFCURVE",
"182 113 OFFCURVE",
"182 216 CURVE SMOOTH",
"182 361 OFFCURVE",
"288 411 OFFCURVE",
"408 411 CURVE SMOOTH",
"502 411 OFFCURVE",
"602 391 OFFCURVE",
"706 375 CURVE",
"706 126 LINE",
"574 51 OFFCURVE",
"493 22 OFFCURVE"
);
},
{
closed = 1;
nodes = (
"396 -22 CURVE SMOOTH",
"489 -22 OFFCURVE",
"589 11 OFFCURVE",
"709 82 CURVE",
"709 82 OFFCURVE",
"722 -7 OFFCURVE",
"722 0 CURVE",
"888 0 LINE",
"888 45 LINE",
"765 45 LINE",
"765 556 LINE SMOOTH",
"765 675 OFFCURVE",
"705 826 OFFCURVE",
"464 826 CURVE SMOOTH",
"390 826 OFFCURVE",
"281 804 OFFCURVE",
"172 759 CURVE",
"190 714 LINE",
"274 749 OFFCURVE",
"375 781 OFFCURVE",
"471 781 CURVE SMOOTH",
"609 781 OFFCURVE",
"706 705 OFFCURVE",
"706 538 CURVE SMOOTH",
"706 418 LINE",
"607 436 OFFCURVE",
"502 453 OFFCURVE",
"406 453 CURVE SMOOTH",
"257 453 OFFCURVE",
"125 396 OFFCURVE",
"125 217 CURVE SMOOTH",
"125 74 OFFCURVE",
"233 -22 OFFCURVE"
);
}
);
width = 949;
},
{
associatedMasterId = "98C086B7-81AA-4491-8494-0C6A76849168";
layerId = "ED79803E-2BD5-4D46-A5D1-7F262DBD3A57";
name = b;
paths = (
{
closed = 1;
nodes = (
"391 -14 CURVE SMOOTH",
"507 -14 OFFCURVE",
"593 21 OFFCURVE",
"687 91 CURVE",
"703 -1 LINE",
"890 -1 LINE",
"890 57 LINE",
"764 57 LINE",
"764 569 LINE SMOOTH",
"764 672 OFFCURVE",
"710 819 OFFCURVE",
"461 819 CURVE SMOOTH",
"332 819 OFFCURVE",
"226 792 OFFCURVE",
"155 724 CURVE",
"190 668 LINE",
"247 726 OFFCURVE",
"339 755 OFFCURVE",
"459 755 CURVE SMOOTH",
"600 755 OFFCURVE",
"687 706 OFFCURVE",
"687 551 CURVE SMOOTH",
"687 428 LINE",
"609 443 OFFCURVE",
"539 455 OFFCURVE",
"465 455 CURVE SMOOTH",
"295 455 OFFCURVE",
"117 433 OFFCURVE",
"117 222 CURVE SMOOTH",
"117 96 OFFCURVE",
"206 -14 OFFCURVE"
);
},
{
closed = 1;
nodes = (
"401 50 CURVE SMOOTH",
"246 50 OFFCURVE",
"195 142 OFFCURVE",
"195 220 CURVE SMOOTH",
"195 390 OFFCURVE",
"346 393 OFFCURVE",
"462 393 CURVE SMOOTH",
"559 393 OFFCURVE",
"687 368 OFFCURVE",
"687 368 CURVE",
"687 151 LINE",
"606 76 OFFCURVE",
"511 50 OFFCURVE"
);
}
);
width = 951;
},
{
anchors = (
{
name = top;
position = "{445, 804}";
}
);
layerId = "BE4F947C-73D7-4684-AEED-17801393DA53";
paths = (
{
closed = 1;
nodes = (
"378 81 CURVE SMOOTH",
"281 81 OFFCURVE",
"224 144 OFFCURVE",
"224 225 CURVE SMOOTH",
"224 344 OFFCURVE",
"317 378 OFFCURVE",
"413 378 CURVE SMOOTH",
"499 378 OFFCURVE",
"569 364 OFFCURVE",
"627 352 CURVE",
"627 171 LINE",
"541 110 OFFCURVE",
"460 81 OFFCURVE"
);
},
{
closed = 1;
nodes = (
"357 -22 CURVE SMOOTH",
"466 -22 OFFCURVE",
"548 9 OFFCURVE",
"634 72 CURVE",
"634 72 OFFCURVE",
"644 -2 OFFCURVE",
"644 0 CURVE",
"903 0 LINE",
"903 108 LINE",
"777 108 LINE",
"777 541 LINE SMOOTH",
"777 713 OFFCURVE",
"652 826 OFFCURVE",
"439 826 CURVE SMOOTH",
"341 826 OFFCURVE",
"209 797 OFFCURVE",
"114 737 CURVE",
"160 639 LINE",
"247 686 OFFCURVE",
"360 713 OFFCURVE",
"436 713 CURVE SMOOTH",
"552 713 OFFCURVE",
"627 653 OFFCURVE",
"627 527 CURVE SMOOTH",
"627 443 LINE",
"550 458 OFFCURVE",
"475 469 OFFCURVE",
"403 469 CURVE SMOOTH",
"226 469 OFFCURVE",
"79 401 OFFCURVE",
"79 217 CURVE SMOOTH",
"79 83 OFFCURVE",
"188 -22 OFFCURVE"
);
}
);
width = 934;
},
{
anchors = (
{
name = ogonek;
position = "{789, 0}";
},
{
name = top;
position = "{461, 804}";
}
);
layerId = "EFCDB4D9-E20B-4A8D-9DB5-150AD166B0AE";
paths = (
{
closed = 1;
nodes = (
"349 -21 CURVE SMOOTH",
"427 -21 OFFCURVE",
"527 4 OFFCURVE",
"604 53 CURVE",
"636 0 LINE",
"1008 0 LINE",
"1008 226 LINE",
"901 226 LINE",
"901 497 LINE SMOOTH",
"901 724 OFFCURVE",
"705 824 OFFCURVE",
"475 824 CURVE SMOOTH",
"331 824 OFFCURVE",
"192 794 OFFCURVE",
"54 725 CURVE",
"137 519 LINE",
"275 573 OFFCURVE",
"358 593 OFFCURVE",
"431 593 CURVE SMOOTH",
"510 593 OFFCURVE",
"549 556 OFFCURVE",
"549 479 CURVE SMOOTH",
"549 462 LINE",
"520 470 OFFCURVE",
"472 476 OFFCURVE",
"423 476 CURVE SMOOTH",
"269 476 OFFCURVE",
"57 423 OFFCURVE",
"57 245 CURVE SMOOTH",
"57 58 OFFCURVE",
"198 -21 OFFCURVE"
);
},
{
closed = 1;
nodes = (
"460 156 CURVE SMOOTH",
"412 156 OFFCURVE",
"372 184 OFFCURVE",
"372 233 CURVE SMOOTH",
"372 301 OFFCURVE",
"420 329 OFFCURVE",
"476 329 CURVE SMOOTH",
"494 329 OFFCURVE",
"524 324 OFFCURVE",
"549 314 CURVE",
"549 185 LINE",
"518 164 OFFCURVE",
"485 156 OFFCURVE"
);
}
);
width = 1039;
}
);
unicode = 0061;
userData = {
com.typemytype.robofont.layerData = {
b = {
anchors = (
);
components = (
);
contours = (
{
points = (
{
segmentType = curve;
smooth = 1;
x = 391;
y = "-14";
},
{
smooth = 0;
x = 507;
y = "-14";
},
{
smooth = 0;
x = 593;
y = 21;
},
{
segmentType = curve;
smooth = 0;
x = 687;
y = 91;
},
{
segmentType = line;
smooth = 0;
x = 703;
y = "-1";
},
{
segmentType = line;
smooth = 0;
x = 890;
y = "-1";
},
{
segmentType = line;
smooth = 0;
x = 890;
y = 57;
},
{
segmentType = line;
smooth = 0;
x = 764;
y = 57;
},
{
segmentType = line;
smooth = 1;
x = 764;
y = 569;
},
{
smooth = 0;
x = 764;
y = 672;
},
{
smooth = 0;
x = 710;
y = 819;
},
{
segmentType = curve;
smooth = 1;
x = 461;
y = 819;
},
{
smooth = 0;
x = 332;
y = 819;
},
{
smooth = 0;
x = 226;
y = 792;
},
{
segmentType = curve;
smooth = 0;
x = 155;
y = 724;
},
{
segmentType = line;
smooth = 0;
x = 190;
y = 668;
},
{
smooth = 0;
x = 247;
y = 726;
},
{
smooth = 0;
x = 339;
y = 755;
},
{
segmentType = curve;
smooth = 1;
x = 459;
y = 755;
},
{
smooth = 0;
x = 600;
y = 755;
},
{
smooth = 0;
x = 687;
y = 706;
},
{
segmentType = curve;
smooth = 1;
x = 687;
y = 551;
},
{
segmentType = line;
smooth = 0;
x = 687;
y = 428;
},
{
smooth = 0;
x = 609;
y = 443;
},
{
smooth = 0;
x = 539;
y = 455;
},
{
segmentType = curve;
smooth = 1;
x = 465;
y = 455;
},
{
smooth = 0;
x = 295;
y = 455;
},
{
smooth = 0;
x = 117;
y = 433;
},
{
segmentType = curve;
smooth = 1;
x = 117;
y = 222;
},
{
smooth = 0;
x = 117;
y = 96;
},
{
smooth = 0;
x = 206;
y = "-14";
}
);
},
{
points = (
{
segmentType = curve;
smooth = 1;
x = 401;
y = 50;
},
{
smooth = 0;
x = 246;
y = 50;
},
{
smooth = 0;
x = 195;
y = 142;
},
{
segmentType = curve;
smooth = 1;
x = 195;
y = 220;
},
{
smooth = 0;
x = 195;
y = 390;
},
{
smooth = 0;
x = 346;
y = 393;
},
{
segmentType = curve;
smooth = 1;
x = 462;
y = 393;
},
{
smooth = 0;
x = 559;
y = 393;
},
{
smooth = 0;
x = 687;
y = 368;
},
{
segmentType = curve;
smooth = 0;
x = 687;
y = 368;
},
{
segmentType = line;
smooth = 0;
x = 687;
y = 151;
},
{
smooth = 0;
x = 606;
y = 76;
},
{
smooth = 0;
x = 511;
y = 50;
}
);
}
);
lib = {
};
name = a;
unicodes = (
);
width = 951;
};
};
org.robofab.postScriptHintData = {
};
};
},
{
glyphname = ae;
lastChange = "2016-08-04 09:26:30 +0000";
layers = (
{
anchors = (
{
name = top;
position = "{873, 804}";
}
);
layerId = "98C086B7-81AA-4491-8494-0C6A76849168";
paths = (
{
closed = 1;
nodes = (
"431 -22 CURVE SMOOTH",
"542 -22 OFFCURVE",
"692 -11 OFFCURVE",
"825 109 CURVE",
"901 14 OFFCURVE",
"1007 -22 OFFCURVE",
"1136 -22 CURVE SMOOTH",
"1310 -22 OFFCURVE",
"1388 28 OFFCURVE",
"1507 141 CURVE",
"1486 180 LINE",
"1390 77 OFFCURVE",
"1264 24 OFFCURVE",
"1137 24 CURVE SMOOTH",
"906 24 OFFCURVE",
"803 149 OFFCURVE",
"804 391 CURVE",
"1500 391 LINE",
"1500 680 OFFCURVE",
"1354 826 OFFCURVE",
"1140 826 CURVE SMOOTH",
"968 826 OFFCURVE",
"831 737 OFFCURVE",
"790 570 CURVE",
"780 742 OFFCURVE",
"701 826 OFFCURVE",
"495 826 CURVE SMOOTH",
"368 826 OFFCURVE",
"256 783 OFFCURVE",
"181 713 CURVE",
"208 674 LINE",
"271 734 OFFCURVE",
"373 781 OFFCURVE",
"495 781 CURVE SMOOTH",
"663 781 OFFCURVE",
"749 719 OFFCURVE",
"749 534 CURVE SMOOTH",
"749 431 LINE",
"742 432 OFFCURVE",
"552 433 OFFCURVE",
"546 433 CURVE SMOOTH",
"315 433 OFFCURVE",
"144 392 OFFCURVE",
"144 215 CURVE SMOOTH",
"144 58 OFFCURVE",
"245 -22 OFFCURVE"
);
},
{
closed = 1;
nodes = (
"434 21 CURVE SMOOTH",
"275 21 OFFCURVE",
"200 90 OFFCURVE",
"200 216 CURVE SMOOTH",
"200 363 OFFCURVE",
"336 390 OFFCURVE",
"545 390 CURVE SMOOTH",
"551 390 OFFCURVE",
"744 389 OFFCURVE",
"749 389 CURVE",
"749 322 OFFCURVE",
"766 215 OFFCURVE",
"801 146 CURVE",
"710 55 OFFCURVE",
"592 21 OFFCURVE"
);
},
{
closed = 1;
nodes = (
"1448 432 CURVE",
"805 433 LINE",
"813 612 OFFCURVE",
"920 781 OFFCURVE",
"1140 781 CURVE SMOOTH",
"1330 781 OFFCURVE",
"1447 649 OFFCURVE"
);
}
);
width = 1637;
},
{
associatedMasterId = "98C086B7-81AA-4491-8494-0C6A76849168";
layerId = "4CF60589-F849-4ECD-BC2E-899D9F09A7A8";
name = b;
width = 1657;
},
{
anchors = (
{
name = top;
position = "{778, 804}";
}
);
layerId = "BE4F947C-73D7-4684-AEED-17801393DA53";
paths = (
{
closed = 1;
nodes = (
"382 -22 CURVE SMOOTH",
"491 -22 OFFCURVE",
"609 -2 OFFCURVE",
"749 99 CURVE",
"827 20 OFFCURVE",
"937 -20 OFFCURVE",
"1067 -20 CURVE SMOOTH",
"1235 -20 OFFCURVE",
"1353 43 OFFCURVE",
"1432 133 CURVE",
"1376 223 LINE",
"1277 133 OFFCURVE",
"1175 96 OFFCURVE",
"1072 96 CURVE SMOOTH",
"897 96 OFFCURVE",
"799 202 OFFCURVE",
"793 372 CURVE",
"1437 372 LINE",
"1437 649 OFFCURVE",
"1293 826 OFFCURVE",
"1058 826 CURVE SMOOTH",
"917 826 OFFCURVE",
"787 764 OFFCURVE",
"736 652 CURVE",
"703 765 OFFCURVE",
"594 826 OFFCURVE",
"444 826 CURVE SMOOTH",
"323 826 OFFCURVE",
"189 788 OFFCURVE",
"106 720 CURVE",
"155 625 LINE",
"234 681 OFFCURVE",
"348 713 OFFCURVE",
"438 713 CURVE SMOOTH",
"564 713 OFFCURVE",
"638 658 OFFCURVE",
"638 526 CURVE SMOOTH",
"638 446 LINE",
"592 455 OFFCURVE",
"486 460 OFFCURVE",
"443 460 CURVE SMOOTH",
"242 460 OFFCURVE",
"82 400 OFFCURVE",
"82 216 CURVE SMOOTH",
"82 34 OFFCURVE",
"254 -22 OFFCURVE"
);
},
{
closed = 1;
nodes = (
"403 76 CURVE SMOOTH",
"308 76 OFFCURVE",
"225 111 OFFCURVE",
"225 221 CURVE SMOOTH",
"225 342 OFFCURVE",
"322 369 OFFCURVE",
"450 369 CURVE SMOOTH",
"488 369 OFFCURVE",
"603 362 OFFCURVE",
"639 358 CURVE",
"644 301 OFFCURVE",
"660 233 OFFCURVE",
"687 181 CURVE",
"619 120 OFFCURVE",
"531 76 OFFCURVE"
);
},
{
closed = 1;
nodes = (
"1287 465 CURVE",
"796 465 LINE",
"810 603 OFFCURVE",
"901 714 OFFCURVE",
"1057 714 CURVE SMOOTH",
"1199 714 OFFCURVE",
"1280 615 OFFCURVE"
);
}
);
width = 1519;
},
{
anchors = (
{
name = top;
position = "{757, 804}";
}
);
layerId = "EFCDB4D9-E20B-4A8D-9DB5-150AD166B0AE";
paths = (
{
closed = 1;
nodes = (
"442 -22 CURVE SMOOTH",
"544 -22 OFFCURVE",
"608 -3 OFFCURVE",
"719 72 CURVE",
"803 11 OFFCURVE",
"921 -21 OFFCURVE",
"1068 -21 CURVE SMOOTH",
"1204 -21 OFFCURVE",
"1342 16 OFFCURVE",
"1440 87 CURVE",
"1356 263 LINE",
"1288 231 OFFCURVE",
"1199 204 OFFCURVE",
"1123 204 CURVE SMOOTH",
"1026 204 OFFCURVE",
"941 240 OFFCURVE",
"934 356 CURVE",
"1440 356 LINE",
"1440 656 OFFCURVE",
"1287 826 OFFCURVE",
"1029 826 CURVE SMOOTH",
"923 826 OFFCURVE",
"839 809 OFFCURVE",
"764 774 CURVE",
"685 809 OFFCURVE",
"596 824 OFFCURVE",
"497 824 CURVE SMOOTH",
"355 824 OFFCURVE",
"216 795 OFFCURVE",
"78 725 CURVE",
"160 519 LINE",
"299 573 OFFCURVE",
"382 593 OFFCURVE",
"453 593 CURVE SMOOTH",
"532 593 OFFCURVE",
"570 556 OFFCURVE",
"570 479 CURVE SMOOTH",
"570 463 LINE",
"541 471 OFFCURVE",
"494 476 OFFCURVE",
"445 476 CURVE SMOOTH",
"290 476 OFFCURVE",
"79 423 OFFCURVE",
"79 245 CURVE SMOOTH",
"79 0 OFFCURVE",
"306 -22 OFFCURVE"
);
},
{
closed = 1;
nodes = (
"491 154 CURVE SMOOTH",
"433 154 OFFCURVE",
"394 187 OFFCURVE",
"394 234 CURVE SMOOTH",
"394 302 OFFCURVE",
"443 329 OFFCURVE",
"499 329 CURVE SMOOTH",
"536 329 OFFCURVE",
"573 320 OFFCURVE",
"574 320 CURVE",
"581 278 OFFCURVE",
"599 223 OFFCURVE",
"617 189 CURVE",
"582 171 OFFCURVE",
"535 154 OFFCURVE"
);
},
{
closed = 1;
nodes = (
"936 510 LINE",
"951 597 OFFCURVE",
"992 645 OFFCURVE",
"1046 645 CURVE SMOOTH",
"1117 645 OFFCURVE",
"1159 597 OFFCURVE",
"1153 510 CURVE"
);
}
);
width = 1496;
}
);
unicode = 00E6;
userData = {
com.typemytype.robofont.layerData = {
b = {
anchors = (
);
components = (
);
contours = (
);
lib = {
};
name = ae;
unicodes = (
);
width = 1657;
};
};
org.robofab.postScriptHintData = {
};
};
},
{
glyphname = b;
lastChange = "2016-08-04 09:26:30 +0000";
layers = (
{
anchors = (
{
name = top;
position = "{605, 804}";
}
);
layerId = "98C086B7-81AA-4491-8494-0C6A76849168";
paths = (
{
closed = 1;
nodes = (
"64 0 LINE",
"265 0 LINE",
"265 94 LINE",
"343 21 OFFCURVE",
"449 -22 OFFCURVE",
"553 -22 CURVE SMOOTH",
"811 -22 OFFCURVE",
"980 144 OFFCURVE",
"980 412 CURVE SMOOTH",
"980 669 OFFCURVE",
"820 826 OFFCURVE",
"570 826 CURVE SMOOTH",
"470 826 OFFCURVE",
"355 784 OFFCURVE",
"265 715 CURVE",
"265 1174 LINE",
"71 1174 LINE",
"71 1129 LINE",
"205 1129 LINE",
"205 45 LINE",
"64 45 LINE"
);
},
{
closed = 1;
nodes = (
"265 145 CURVE",
"265 667 LINE",
"357 737 OFFCURVE",
"470 780 OFFCURVE",
"564 780 CURVE SMOOTH",
"782 780 OFFCURVE",
"922 635 OFFCURVE",
"922 400 CURVE SMOOTH",
"922 167 OFFCURVE",
"776 23 OFFCURVE",
"549 23 CURVE SMOOTH",
"450 23 OFFCURVE",
"344 69 OFFCURVE"
);
}
);
width = 1042;
},
{
associatedMasterId = "98C086B7-81AA-4491-8494-0C6A76849168";
layerId = "5636BC78-B53F-4F94-BB52-9A1EF06E2614";
name = b;
width = 1037;
},
{
anchors = (
{
name = top;
position = "{642, 804}";
}
);
layerId = "BE4F947C-73D7-4684-AEED-17801393DA53";
paths = (
{
closed = 1;
nodes = (
"52 0 LINE",
"352 0 LINE",
"352 67 LINE",
"419 9 OFFCURVE",
"503 -21 OFFCURVE",
"601 -21 CURVE SMOOTH",
"823 -21 OFFCURVE",
"1017 137 OFFCURVE",
"1017 414 CURVE SMOOTH",
"1017 680 OFFCURVE",
"843 825 OFFCURVE",
"626 825 CURVE SMOOTH",
"534 825 OFFCURVE",
"435 793 OFFCURVE",
"352 734 CURVE",
"352 1174 LINE",
"56 1174 LINE",
"56 1066 LINE",
"200 1066 LINE",
"200 108 LINE",
"52 108 LINE"
);
},
{
closed = 1;
nodes = (
"352 175 CURVE",
"352 621 LINE",
"425 679 OFFCURVE",
"510 709 OFFCURVE",
"585 709 CURVE SMOOTH",
"743 709 OFFCURVE",
"860 598 OFFCURVE",
"860 401 CURVE SMOOTH",
"860 199 OFFCURVE",
"736 92 OFFCURVE",
"574 92 CURVE SMOOTH",
"499 92 OFFCURVE",
"418 122 OFFCURVE"
);
}
);
width = 1069;
},
{
anchors = (
{
name = top;
position = "{843, 804}";
}
);
layerId = "EFCDB4D9-E20B-4A8D-9DB5-150AD166B0AE";
paths = (
{
closed = 1;
nodes = (
"547 754 CURVE",
"547 1174 LINE",
"38 1174 LINE",
"38 950 LINE",
"196 950 LINE",
"196 224 LINE",
"36 224 LINE",
"36 0 LINE",
"547 0 LINE",
"547 43 LINE",
"620 0 OFFCURVE",
"696 -21 OFFCURVE",
"776 -21 CURVE SMOOTH",
"997 -21 OFFCURVE",
"1187 138 OFFCURVE",
"1187 422 CURVE SMOOTH",
"1187 647 OFFCURVE",
"1053 826 OFFCURVE",
"788 826 CURVE SMOOTH",
"708 826 OFFCURVE",
"627 800 OFFCURVE"
);
},
{
closed = 1;
nodes = (
"547 173 CURVE",
"547 602 LINE",
"574 603 OFFCURVE",
"596 603 OFFCURVE",
"619 603 CURVE SMOOTH",
"791 603 OFFCURVE",
"817 473 OFFCURVE",
"817 400 CURVE SMOOTH",
"817 263 OFFCURVE",
"724 175 OFFCURVE",
"593 175 CURVE SMOOTH",
"580 175 OFFCURVE",
"566 174 OFFCURVE"
);
}
);
width = 1231;
}
);
unicode = 0062;
userData = {
com.typemytype.robofont.layerData = {
b = {
anchors = (
);
components = (
);
contours = (
);
lib = {
};
name = b;
unicodes = (
);
width = 1037;
};
};
org.robofab.postScriptHintData = {
};
};
},
{
glyphname = c;
lastChange = "2016-08-04 09:26:30 +0000";
layers = (
{
anchors = (
{
name = bot;
position = "{446, 0}";
},
{
name = top;
position = "{485, 805}";
}
);
layerId = "98C086B7-81AA-4491-8494-0C6A76849168";
paths = (
{
closed = 1;
nodes = (
"120 404 CURVE SMOOTH",
"120 624 OFFCURVE",
"274 780 OFFCURVE",
"491 780 CURVE SMOOTH",
"632 780 OFFCURVE",
"744 693 OFFCURVE",
"763 570 CURVE",
"812 570 LINE",
"812 805 LINE",
"756 805 LINE",
"755 697 LINE",
"715 772 OFFCURVE",
"603 826 OFFCURVE",
"488 826 CURVE SMOOTH",
"239 826 OFFCURVE",
"62 652 OFFCURVE",
"62 405 CURVE SMOOTH",
"62 155 OFFCURVE",
"234 -22 OFFCURVE",
"477 -22 CURVE SMOOTH",
"622 -22 OFFCURVE",
"725 23 OFFCURVE",
"816 120 CURVE",
"808 167 LINE",
"710 68 OFFCURVE",
"620 24 OFFCURVE",
"479 24 CURVE SMOOTH",
"269 24 OFFCURVE",
"120 182 OFFCURVE"
);
}
);
width = 957;
},
{
associatedMasterId = "98C086B7-81AA-4491-8494-0C6A76849168";
layerId = "C84783A7-8A0D-4CAE-954B-9DC4859D09F0";
name = b;
paths = (
{
closed = 1;
nodes = (
"633 -14 OFFCURVE",
"758 33 OFFCURVE",
"868 142 CURVE",
"845 213 LINE",
"763 105 OFFCURVE",
"637 51 OFFCURVE",
"515 51 CURVE SMOOTH",
"316 51 OFFCURVE",
"169 193 OFFCURVE",
"169 406 CURVE SMOOTH",
"169 630 OFFCURVE",
"336 755 OFFCURVE",
"515 755 CURVE SMOOTH",
"705 755 OFFCURVE",
"768 657 OFFCURVE",
"776 570 CURVE",
"840 570 LINE",
"840 825 LINE",
"767 825 LINE",
"767 714 LINE",
"736 764 OFFCURVE",
"645 819 OFFCURVE",
"522 819 CURVE SMOOTH",
"268.968 819 OFFCURVE",
"90 650 OFFCURVE",
"90 406 CURVE SMOOTH",
"90 145 OFFCURVE",
"286 -14 OFFCURVE",
"515 -14 CURVE SMOOTH"
);
}
);
width = 956;
},
{
anchors = (
{
name = bot;
position = "{491, 0}";
},
{
name = top;
position = "{500, 804}";
}
);
layerId = "BE4F947C-73D7-4684-AEED-17801393DA53";
paths = (
{
closed = 1;
nodes = (
"211 411 CURVE SMOOTH",
"211 584 OFFCURVE",
"334 708 OFFCURVE",
"509 708 CURVE SMOOTH",
"637 708 OFFCURVE",
"730 636 OFFCURVE",
"754 520 CURVE",
"868 520 LINE",
"868 808 LINE",
"741 808 LINE",
"741 712 LINE",
"709 776 OFFCURVE",
"600 826 OFFCURVE",
"492 826 CURVE SMOOTH",
"236 826 OFFCURVE",
"54 653 OFFCURVE",
"54 408 CURVE SMOOTH",
"54 157 OFFCURVE",
"235 -20 OFFCURVE",
"491 -20 CURVE SMOOTH",
"662 -20 OFFCURVE",
"787 50 OFFCURVE",
"867 153 CURVE",
"803 245 LINE",
"730 161 OFFCURVE",
"649 99 OFFCURVE",
"506 99 CURVE SMOOTH",
"331 99 OFFCURVE",
"211 228 OFFCURVE"
);
}
);
width = 960;
},
{
anchors = (
{
name = bot;
position = "{560, 0}";
},
{
name = top;
position = "{585, 804}";
}
);
layerId = "EFCDB4D9-E20B-4A8D-9DB5-150AD166B0AE";
paths = (
{
closed = 1;
nodes = (
"544 -23 CURVE SMOOTH",
"663 -23 OFFCURVE",
"807 22 OFFCURVE",
"926 103 CURVE",
"842 285 LINE",
"754 235 OFFCURVE",
"654 204 OFFCURVE",
"567 203 CURVE SMOOTH",
"453 202 OFFCURVE",
"399 281 OFFCURVE",
"399 413 CURVE SMOOTH",
"399 547 OFFCURVE",
"462 605 OFFCURVE",
"538 604 CURVE SMOOTH",
"603 603 OFFCURVE",
"666 561 OFFCURVE",
"699 419 CURVE",
"906 419 LINE",
"906 803 LINE",
"678 803 LINE",
"669 751 LINE",
"630 800 OFFCURVE",
"548 826 OFFCURVE",
"481 826 CURVE SMOOTH",
"209 826 OFFCURVE",
"43 653 OFFCURVE",
"43 411 CURVE SMOOTH",
"43 135 OFFCURVE",
"225 -23 OFFCURVE"
);
}
);
width = 991;
}
);
unicode = 0063;
userData = {
com.typemytype.robofont.layerData = {
b = {
anchors = (
);
components = (
);
contours = (
{
points = (
{
smooth = 0;
x = 633;
y = "-14";
},
{
smooth = 0;
x = 758;
y = 33;
},
{
segmentType = curve;
smooth = 0;
x = 868;
y = 142;
},
{
segmentType = line;
smooth = 0;
x = 845;
y = 213;
},
{
smooth = 0;
x = 763;
y = 105;
},
{
smooth = 0;
x = 637;
y = 51;
},
{
segmentType = curve;
smooth = 1;
x = 515;
y = 51;
},
{
smooth = 0;
x = 316;
y = 51;
},
{
smooth = 0;
x = 169;
y = 193;
},
{
segmentType = curve;
smooth = 1;
x = 169;
y = 406;
},
{
smooth = 0;
x = 169;
y = 630;
},
{
smooth = 0;
x = 336;
y = 755;
},
{
segmentType = curve;
smooth = 1;
x = 515;
y = 755;
},
{
smooth = 0;
x = 705;
y = 755;
},
{
smooth = 0;
x = 768;
y = 657;
},
{
segmentType = curve;
smooth = 0;
x = 776;
y = 570;
},
{
segmentType = line;
smooth = 0;
x = 840;
y = 570;
},
{
segmentType = line;
smooth = 0;
x = 840;
y = 825;
},
{
segmentType = line;
smooth = 0;
x = 767;
y = 825;
},
{
segmentType = line;
smooth = 0;
x = 767;
y = 714;
},
{
smooth = 0;
x = 736;
y = 764;
},
{
smooth = 0;
x = 645;
y = 819;
},
{
segmentType = curve;
smooth = 1;
x = 522;
y = 819;
},
{
smooth = 0;
x = 268.9680;
y = 819;
},
{
smooth = 0;
x = 90;
y = 650;
},
{
segmentType = curve;
smooth = 1;
x = 90;
y = 406;
},
{
smooth = 0;
x = 90;
y = 145;
},
{
smooth = 0;
x = 286;
y = "-14";
},
{
segmentType = curve;
smooth = 1;
x = 515;
y = "-14";
}
);
}
);
lib = {
};
name = c;
unicodes = (
);
width = 956;
};
};
org.robofab.postScriptHintData = {
};
};
},
{
glyphname = d;
lastChange = "2016-08-04 09:26:30 +0000";
layers = (
{
anchors = (
{
name = caron.alt;
position = "{840, 804}";
},
{
name = mid;
position = "{814, 960}";
},
{
name = top;
position = "{463, 804}";
}
);
layerId = "98C086B7-81AA-4491-8494-0C6A76849168";
paths = (
{
closed = 1;
nodes = (
"784 0 LINE",
"981 0 LINE",
"981 45 LINE",
"844 45 LINE",
"844 1174 LINE",
"650 1174 LINE",
"650 1129 LINE",
"784 1129 LINE",
"784 714 LINE",
"698 781 OFFCURVE",
"573 826 OFFCURVE",
"462 826 CURVE SMOOTH",
"230 826 OFFCURVE",
"62 655 OFFCURVE",
"62 404 CURVE SMOOTH",
"62 151 OFFCURVE",
"242 -22 OFFCURVE",
"487 -22 CURVE SMOOTH",
"589 -22 OFFCURVE",
"704 22 OFFCURVE",
"784 89 CURVE"
);
},
{
closed = 1;
nodes = (
"784 670 CURVE",
"784 137 LINE",
"703 69 OFFCURVE",
"589 24 OFFCURVE",
"492 24 CURVE SMOOTH",
"276 24 OFFCURVE",
"121 176 OFFCURVE",
"121 396 CURVE SMOOTH",
"121 624 OFFCURVE",
"265 780 OFFCURVE",
"467 780 CURVE SMOOTH",
"574 780 OFFCURVE",
"697 736 OFFCURVE"
);
}
);
width = 1017;
},
{
associatedMasterId = "98C086B7-81AA-4491-8494-0C6A76849168";
layerId = "ACDB2252-A5D0-43D0-960D-BB44F0773F9F";
name = b;
width = 1011;
},
{
anchors = (
{
name = caron.alt;
position = "{984, 804}";
},
{
name = mid;
position = "{796, 940}";
},
{
name = top;
position = "{368, 804}";
}
);
layerId = "BE4F947C-73D7-4684-AEED-17801393DA53";
paths = (
{
closed = 1;
nodes = (
"725 0 LINE",
"1004 0 LINE",
"1004 108 LINE",
"877 108 LINE",
"877 1174 LINE",
"581 1174 LINE",
"581 1066 LINE",
"725 1066 LINE",
"725 741 LINE",
"645 795 OFFCURVE",
"546 825 OFFCURVE",
"453 825 CURVE SMOOTH",
"239 825 OFFCURVE",
"57 676 OFFCURVE",
"57 403 CURVE SMOOTH",
"57 136 OFFCURVE",
"248 -22 OFFCURVE",
"469 -22 CURVE SMOOTH",
"556 -22 OFFCURVE",
"649 7 OFFCURVE",
"725 59 CURVE"
);
},
{
closed = 1;
nodes = (
"725 633 CURVE",
"725 166 LINE",
"656 120 OFFCURVE",
"574 93 OFFCURVE",
"501 93 CURVE SMOOTH",
"341 93 OFFCURVE",
"215 199 OFFCURVE",
"215 391 CURVE SMOOTH",
"215 599 OFFCURVE",
"328 711 OFFCURVE",
"483 711 CURVE SMOOTH",
"561 711 OFFCURVE",
"650 682 OFFCURVE"
);
}
);
width = 1050;
},
{
anchors = (
{
name = caron.alt;
position = "{961, 804}";
},
{
name = mid;
position = "{870, 882}";
},
{
name = top;
position = "{301, 804}";
}
);
layerId = "EFCDB4D9-E20B-4A8D-9DB5-150AD166B0AE";
paths = (
{
closed = 1;
nodes = (
"1039 224 LINE",
"1039 1174 LINE",
"542 1174 LINE",
"542 950 LINE",
"688 950 LINE",
"688 742 LINE",
"615 792 OFFCURVE",
"536 826 OFFCURVE",
"456 826 CURVE SMOOTH",
"201 826 OFFCURVE",
"42 642 OFFCURVE",
"42 380 CURVE SMOOTH",
"42 142 OFFCURVE",
"220 -22 OFFCURVE",
"504 -22 CURVE SMOOTH",
"577 -22 OFFCURVE",
"636 -2 OFFCURVE",
"688 30 CURVE",
"688 0 LINE",
"1125 0 LINE",
"1125 224 LINE"
);
},
{
closed = 1;
nodes = (
"412 408 CURVE SMOOTH",
"412 537 OFFCURVE",
"492 602 OFFCURVE",
"616 602 CURVE SMOOTH",
"638 602 OFFCURVE",
"662 600 OFFCURVE",
"688 597 CURVE",
"688 214 LINE",
"647 207 OFFCURVE",
"612 202 OFFCURVE",
"585 202 CURVE SMOOTH",
"479 202 OFFCURVE",
"412 289 OFFCURVE"
);
}
);
width = 1168;
}
);
unicode = 0064;
userData = {
com.typemytype.robofont.layerData = {
b = {
anchors = (
);
components = (
);
contours = (
);
lib = {
};
name = d;
unicodes = (
);
width = 1011;
};
};
org.robofab.postScriptHintData = {
};
};
},
{
glyphname = eth;
lastChange = "2016-08-04 09:26:30 +0000";
layers = (
{
layerId = "98C086B7-81AA-4491-8494-0C6A76849168";
paths = (
{
closed = 1;
nodes = (
"442 -23 CURVE SMOOTH",
"649 -23 OFFCURVE",
"830 125 OFFCURVE",
"830 396 CURVE SMOOTH",
"830 811 OFFCURVE",
"384 1156 OFFCURVE",
"154 1356 CURVE",
"120 1320 LINE",
"308 1163 OFFCURVE",
"565 963 OFFCURVE",
"689 698 CURVE",
"618 764 OFFCURVE",
"513 805 OFFCURVE",
"431 805 CURVE SMOOTH",
"216 805 OFFCURVE",
"45 629 OFFCURVE",
"45 435 CURVE SMOOTH",
"45 205 OFFCURVE",
"169 -23 OFFCURVE"
);
},
{
closed = 1;
nodes = (
"442 30 CURVE SMOOTH",
"207 30 OFFCURVE",
"106 228 OFFCURVE",
"106 412 CURVE SMOOTH",
"106 648 OFFCURVE",
"278 757 OFFCURVE",
"436 757 CURVE SMOOTH",
"597 757 OFFCURVE",
"772 651 OFFCURVE",
"772 405 CURVE SMOOTH",
"772 224 OFFCURVE",
"679 30 OFFCURVE"
);
},
{
closed = 1;
nodes = (
"175 913 LINE",
"730 1152 LINE",
"705 1195 LINE",
"150 958 LINE"
);
}
);
width = 900;
},
{
associatedMasterId = "98C086B7-81AA-4491-8494-0C6A76849168";
layerId = "2A72380F-BC81-4E1E-84F6-11160416B8D7";
name = b;
width = 886;
},
{
layerId = "BE4F947C-73D7-4684-AEED-17801393DA53";
paths = (
{
closed = 1;
nodes = (
"495 -20 CURVE SMOOTH",
"731 -20 OFFCURVE",
"905 153 OFFCURVE",
"905 400 CURVE SMOOTH",
"905 853 OFFCURVE",
"529 1135 OFFCURVE",
"234 1371 CURVE",
"159 1277 LINE",
"377 1112 OFFCURVE",
"605 918 OFFCURVE",
"700 717 CURVE",
"676 738 OFFCURVE",
"595 788 OFFCURVE",
"470 788 CURVE SMOOTH",
"271 788 OFFCURVE",
"87 630 OFFCURVE",
"87 420 CURVE SMOOTH",
"87 178 OFFCURVE",
"229 -20 OFFCURVE"
);
},
{
closed = 1;
nodes = (
"496 100 CURVE SMOOTH",
"325 100 OFFCURVE",
"231 245 OFFCURVE",
"231 405 CURVE SMOOTH",
"231 577 OFFCURVE",
"342 678 OFFCURVE",
"487 678 CURVE SMOOTH",
"631 678 OFFCURVE",
"765 585 OFFCURVE",
"765 400 CURVE SMOOTH",
"765 249 OFFCURVE",
"686 100 OFFCURVE"
);
},
{
closed = 1;
nodes = (
"228 884 LINE",
"831 1155 LINE",
"784 1245 LINE",
"183 977 LINE"
);
}
);
width = 981;
},
{
layerId = "EFCDB4D9-E20B-4A8D-9DB5-150AD166B0AE";
paths = (
{
closed = 1;
nodes = (
"595 -23 CURVE SMOOTH",
"916 -23 OFFCURVE",
"1100 208 OFFCURVE",
"1100 460 CURVE SMOOTH",
"1100 1222 OFFCURVE",
"670 1415 OFFCURVE",
"513 1473 CURVE",
"387 1310 LINE",
"557 1207 OFFCURVE",
"716 1074 OFFCURVE",
"836 744 CURVE",
"836 744 OFFCURVE",
"726 810 OFFCURVE",
"567 810 CURVE SMOOTH",
"249 810 OFFCURVE",
"156 559 OFFCURVE",
"156 389 CURVE SMOOTH",
"156 181 OFFCURVE",
"277 -23 OFFCURVE"
);
},
{
closed = 1;
nodes = (
"632 220 CURVE SMOOTH",
"538 220 OFFCURVE",
"482 292 OFFCURVE",
"482 426 CURVE SMOOTH",
"482 542 OFFCURVE",
"540 608 OFFCURVE",
"634 608 CURVE SMOOTH",
"728 608 OFFCURVE",
"778 540 OFFCURVE",
"778 427 CURVE SMOOTH",
"778 291 OFFCURVE",
"720 220 OFFCURVE"
);
},
{
closed = 1;
nodes = (
"481 917 LINE",
"1096 1216 LINE",
"1005 1418 LINE",
"387 1118 LINE"
);
}
);
width = 1076;
}
);
unicode = 00F0;
userData = {
com.typemytype.robofont.layerData = {
b = {
anchors = (
);
components = (
);
contours = (
);
lib = {
};
name = eth;
unicodes = (
);
width = 886;
};
};
org.robofab.postScriptHintData = {
};
};
},
{
glyphname = e;
lastChange = "2016-08-04 09:26:30 +0000";
layers = (
{
anchors = (
{
name = bot;
position = "{500, 0}";
},
{
name = top;
position = "{487, 804}";
}
);
layerId = "98C086B7-81AA-4491-8494-0C6A76849168";
paths = (
{
closed = 1;
nodes = (
"121 430 LINE",
"129 644 OFFCURVE",
"282 781 OFFCURVE",
"468 781 CURVE SMOOTH",
"633 781 OFFCURVE",
"783 670 OFFCURVE",
"806 430 CURVE"
);
},
{
closed = 1;
nodes = (
"486 -22 CURVE SMOOTH",
"610 -22 OFFCURVE",
"742 28 OFFCURVE",
"843 129 CURVE",
"824 174 LINE",
"754 91 OFFCURVE",
"615 24 OFFCURVE",
"487 24 CURVE SMOOTH",
"311 24 OFFCURVE",
"132 149 OFFCURVE",
"122 387 CURVE",
"862 387 LINE",
"855 710 OFFCURVE",
"649 826 OFFCURVE",
"468 826 CURVE SMOOTH",
"265 826 OFFCURVE",
"61 683 OFFCURVE",
"61 403 CURVE SMOOTH",
"61 135 OFFCURVE",
"265 -22 OFFCURVE"
);
}
);
width = 971;
},
{
associatedMasterId = "98C086B7-81AA-4491-8494-0C6A76849168";
layerId = "197A2161-2025-47E5-87FA-EC487ACEC851";
name = b;
paths = (
{
closed = 1;
nodes = (
"171 442 LINE",
"182 592 OFFCURVE",
"296 755 OFFCURVE",
"507 755 CURVE SMOOTH",
"699 755 OFFCURVE",
"803 616 OFFCURVE",
"820 442 CURVE"
);
},
{
closed = 1;
nodes = (
"890 383 LINE",
"889 601 OFFCURVE",
"778.768 819 OFFCURVE",
"502 819 CURVE SMOOTH",
"232 819 OFFCURVE",
"90 618 OFFCURVE",
"90 403 CURVE SMOOTH",
"90 150 OFFCURVE",
"284 -14 OFFCURVE",
"511 -14 CURVE SMOOTH",
"657 -14 OFFCURVE",
"761 34 OFFCURVE",
"868 139 CURVE",
"836 197 LINE",
"747 103 OFFCURVE",
"652 50 OFFCURVE",
"515 50 CURVE SMOOTH",
"347 50 OFFCURVE",
"182 162 OFFCURVE",
"169 383 CURVE"
);
}
);
width = 975;
},
{
anchors = (
{
name = bot;
position = "{485, 0}";
},
{
name = top;
position = "{484, 804}";
}
);
layerId = "BE4F947C-73D7-4684-AEED-17801393DA53";
paths = (
{
closed = 1;
nodes = (
"211 464 LINE",
"226 613 OFFCURVE",
"339 714 OFFCURVE",
"477 714 CURVE SMOOTH",
"602 714 OFFCURVE",
"707 622 OFFCURVE",
"722 464 CURVE"
);
},
{
closed = 1;
nodes = (
"493 -20 CURVE SMOOTH",
"643 -20 OFFCURVE",
"782 44 OFFCURVE",
"859 129 CURVE",
"804 221 LINE",
"728 150 OFFCURVE",
"622 96 OFFCURVE",
"499 96 CURVE SMOOTH",
"348 96 OFFCURVE",
"219 202 OFFCURVE",
"209 371 CURVE",
"873 371 LINE",
"870 659 OFFCURVE",
"692 826 OFFCURVE",
"477 826 CURVE SMOOTH",
"240 826 OFFCURVE",
"51 661 OFFCURVE",
"51 401 CURVE SMOOTH",
"51 148 OFFCURVE",
"244 -20 OFFCURVE"
);
}
);
width = 944;
},
{
anchors = (
{
name = bot;
position = "{515, 0}";
},
{
name = ogonek;
position = "{677, 0}";
},
{
name = top;
position = "{489, 804}";
}
);
layerId = "EFCDB4D9-E20B-4A8D-9DB5-150AD166B0AE";
paths = (
{
closed = 1;
nodes = (
"538 -21 CURVE SMOOTH",
"675 -21 OFFCURVE",
"812 16 OFFCURVE",
"908 87 CURVE",
"824 263 LINE",
"752 227 OFFCURVE",
"663 204 OFFCURVE",
"593 204 CURVE SMOOTH",
"494 204 OFFCURVE",
"411 240 OFFCURVE",
"404 356 CURVE",
"908 356 LINE",
"908 656 OFFCURVE",
"760 827 OFFCURVE",
"499 827 CURVE SMOOTH",
"207 827 OFFCURVE",
"40 669 OFFCURVE",
"40 393 CURVE SMOOTH",
"40 129 OFFCURVE",
"221 -21 OFFCURVE"
);
},
{
closed = 1;
nodes = (
"406 510 LINE",
"420 597 OFFCURVE",
"459 645 OFFCURVE",
"516 645 CURVE SMOOTH",
"589 645 OFFCURVE",
"627 597 OFFCURVE",
"621 510 CURVE"
);
}
);
width = 960;
}
);
unicode = 0065;
userData = {
com.typemytype.robofont.layerData = {
b = {
anchors = (
);
components = (
);
contours = (
{
points = (
{
segmentType = line;
smooth = 0;
x = 171;
y = 442;
},
{
smooth = 0;
x = 182;
y = 592;
},
{
smooth = 0;
x = 296;
y = 755;
},
{
segmentType = curve;
smooth = 1;
x = 507;
y = 755;
},
{
smooth = 0;
x = 699;
y = 755;
},
{
smooth = 0;
x = 803;
y = 616;
},
{
segmentType = curve;
smooth = 0;
x = 820;
y = 442;
}
);
},
{
points = (
{
segmentType = line;
smooth = 0;
x = 890;
y = 383;
},
{
smooth = 0;
x = 889;
y = 601;
},
{
smooth = 0;
x = 778.7680;
y = 819;
},
{
segmentType = curve;
smooth = 1;
x = 502;
y = 819;
},
{
smooth = 0;
x = 232;
y = 819;
},
{
smooth = 0;
x = 90;
y = 618;
},
{
segmentType = curve;
smooth = 1;
x = 90;
y = 403;
},
{
smooth = 0;
x = 90;
y = 150;
},
{
smooth = 0;
x = 284;
y = "-14";
},
{
segmentType = curve;
smooth = 1;
x = 511;
y = "-14";
},
{
smooth = 0;
x = 657;
y = "-14";
},
{
smooth = 0;
x = 761;
y = 34;
},
{
segmentType = curve;
smooth = 0;
x = 868;
y = 139;
},
{
segmentType = line;
smooth = 0;
x = 836;
y = 197;
},
{
smooth = 0;
x = 747;
y = 103;
},
{
smooth = 0;
x = 652;
y = 50;
},
{
segmentType = curve;
smooth = 1;
x = 515;
y = 50;
},
{
smooth = 0;
x = 347;
y = 50;
},
{
smooth = 0;
x = 182;
y = 162;
},
{
segmentType = curve;
smooth = 0;
x = 169;
y = 383;
}
);
}
);
lib = {
};
name = e;
unicodes = (
);
width = 975;
};
};
org.robofab.postScriptHintData = {
};
};
},
{
glyphname = f;
lastChange = "2016-08-04 09:26:30 +0000";
layers = (
{
anchors = (
{
name = top;
position = "{380, 1082}";
}
);
layerId = "98C086B7-81AA-4491-8494-0C6A76849168";
paths = (
{
closed = 1;
nodes = (
"110 0 LINE",
"518 0 LINE",
"518 45 LINE",
"324 45 LINE",
"324 759 LINE",
"558 759 LINE",
"558 804 LINE",
"324 804 LINE",
"324 1027 LINE SMOOTH",
"324 1107 OFFCURVE",
"369 1149 OFFCURVE",
"434 1149 CURVE SMOOTH",
"499 1149 OFFCURVE",
"537 1113 OFFCURVE",
"546 1040 CURVE",
"591 1058 LINE",
"583 1147 OFFCURVE",
"523 1195 OFFCURVE",
"431 1195 CURVE SMOOTH",
"325 1195 OFFCURVE",
"261 1133 OFFCURVE",
"261 1028 CURVE SMOOTH",
"261 804 LINE",
"106 804 LINE",
"106 759 LINE",
"261 759 LINE",
"261 45 LINE",
"110 45 LINE"
);
}
);
width = 675;
},
{
associatedMasterId = "98C086B7-81AA-4491-8494-0C6A76849168";
layerId = "7DCE8888-F527-45DD-878B-5433D946ECB7";
name = b;
width = 671;
},
{
anchors = (
{
name = top;
position = "{389, 1129}";
}
);
layerId = "BE4F947C-73D7-4684-AEED-17801393DA53";
paths = (
{
closed = 1;
nodes = (
"84 0 LINE",
"603 0 LINE",
"603 109 LINE",
"396 109 LINE",
"396 696 LINE",
"605 696 LINE",
"605 804 LINE",
"396 804 LINE",
"396 974 LINE SMOOTH",
"396 1072 OFFCURVE",
"432 1114 OFFCURVE",
"492 1114 CURVE SMOOTH",
"557 1114 OFFCURVE",
"580 1069 OFFCURVE",
"591 999 CURVE",
"708 1032 LINE",
"698 1174 OFFCURVE",
"596 1220 OFFCURVE",
"486 1220 CURVE SMOOTH",
"320 1220 OFFCURVE",
"243 1124 OFFCURVE",
"243 977 CURVE SMOOTH",
"243 804 LINE",
"87 804 LINE",
"87 696 LINE",
"243 696 LINE",
"243 109 LINE",
"84 109 LINE"
);
}
);
width = 700;
},
{
anchors = (
{
name = top;
position = "{495, 1214}";
}
);
layerId = "EFCDB4D9-E20B-4A8D-9DB5-150AD166B0AE";
paths = (
{
closed = 1;
nodes = (
"65 224 LINE",
"65 0 LINE",
"851 0 LINE",
"851 224 LINE",
"610 224 LINE",
"610 580 LINE",
"855 580 LINE",
"855 804 LINE",
"610 804 LINE",
"610 884 LINE SMOOTH",
"610 1034 OFFCURVE",
"663 1043 OFFCURVE",
"700 1043 CURVE SMOOTH",
"772 1043 OFFCURVE",
"772 1007 OFFCURVE",
"786 924 CURVE",
"1037 1007 LINE",
"1010 1152 OFFCURVE",
"951 1247 OFFCURVE",
"638 1247 CURVE SMOOTH",
"280 1247 OFFCURVE",
"258 988 OFFCURVE",
"258 801 CURVE SMOOTH",
"258 804 LINE",
"64 804 LINE",
"64 580 LINE",
"258 580 LINE",
"258 224 LINE"
);
}
);
width = 961;
}
);
unicode = 0066;
userData = {
com.typemytype.robofont.layerData = {
b = {
anchors = (
);
components = (
);
contours = (
);
lib = {
};
name = f;
unicodes = (
);
width = 671;
};
};
org.robofab.postScriptHintData = {
};
};
},
{
glyphname = g;
lastChange = "2016-08-04 09:26:30 +0000";
layers = (
{
anchors = (
{
name = top;
position = "{489, 804}";
}
);
layerId = "98C086B7-81AA-4491-8494-0C6A76849168";
paths = (
{
closed = 1;
nodes = (
"478 -376 CURVE SMOOTH",
"711 -376 OFFCURVE",
"855 -264 OFFCURVE",
"855 -17 CURVE SMOOTH",
"855 759 LINE",
"991 759 LINE",
"991 804 LINE",
"795 804 LINE",
"795 707 LINE",
"710 777 OFFCURVE",
"579 824 OFFCURVE",
"465 824 CURVE SMOOTH",
"230 824 OFFCURVE",
"63 657 OFFCURVE",
"63 411 CURVE SMOOTH",
"63 163 OFFCURVE",
"242 -7 OFFCURVE",
"488 -7 CURVE SMOOTH",
"594 -7 OFFCURVE",
"715 41 OFFCURVE",
"795 111 CURVE",
"795 -31 LINE SMOOTH",
"795 -216 OFFCURVE",
"693 -329 OFFCURVE",
"480 -329 CURVE SMOOTH",
"404 -329 OFFCURVE",
"313 -315 OFFCURVE",
"201 -283 CURVE",
"191 -329 LINE",
"295 -357 OFFCURVE",
"393 -376 OFFCURVE"
);
},
{
closed = 1;
nodes = (
"795 664 CURVE",
"795 158 LINE",
"714 87 OFFCURVE",
"594 38 OFFCURVE",
"492 38 CURVE SMOOTH",
"277 38 OFFCURVE",
"122 187 OFFCURVE",
"122 403 CURVE SMOOTH",
"122 626 OFFCURVE",
"265 780 OFFCURVE",
"468 780 CURVE SMOOTH",
"579 780 OFFCURVE",
"707 733 OFFCURVE"
);
}
);
width = 1018;
},
{
associatedMasterId = "98C086B7-81AA-4491-8494-0C6A76849168";
layerId = "30F1FC07-52FB-4BAD-AB2A-4EBE47A26902";
name = b;
paths = (
{
closed = 1;
nodes = (
"510 -333 CURVE SMOOTH",
"722 -333 OFFCURVE",
"880 -225 OFFCURVE",
"880 15 CURVE",
"880 735 LINE",
"1005 735 LINE",
"1005 789 LINE",
"804 789 LINE",
"804 673 LINE",
"804 673 OFFCURVE",
"804 -2 OFFCURVE",
"804 -2 CURVE SMOOTH",
"804 -173 OFFCURVE",
"695 -271 OFFCURVE",
"515 -271 CURVE SMOOTH",
"444 -271 OFFCURVE",
"362 -255 OFFCURVE",
"272 -224 CURVE",
"257 -289 LINE",
"345 -318 OFFCURVE",
"431 -333 OFFCURVE"
);
}
);
width = 1013;
},
{
anchors = (
{
name = top;
position = "{504, 804}";
}
);
layerId = "BE4F947C-73D7-4684-AEED-17801393DA53";
paths = (
{
closed = 1;
nodes = (
"481 -385 CURVE SMOOTH",
"717 -385 OFFCURVE",
"894 -281 OFFCURVE",
"894 -18 CURVE SMOOTH",
"894 696 LINE",
"1030 696 LINE",
"1030 804 LINE",
"742 804 LINE",
"742 734 LINE",
"669 791 OFFCURVE",
"562 824 OFFCURVE",
"471 824 CURVE SMOOTH",
"243 824 OFFCURVE",
"63 677 OFFCURVE",
"63 410 CURVE SMOOTH",
"63 148 OFFCURVE",
"247 -7 OFFCURVE",
"475 -7 CURVE SMOOTH",
"567 -6 OFFCURVE",
"665 25 OFFCURVE",
"743 82 CURVE",
"743 -28 LINE SMOOTH",
"743 -191 OFFCURVE",
"644 -264 OFFCURVE",
"478 -264 CURVE SMOOTH",
"397 -264 OFFCURVE",
"304 -246 OFFCURVE",
"208 -217 CURVE",
"178 -335 LINE",
"279 -366 OFFCURVE",
"384 -385 OFFCURVE"
);
},
{
closed = 1;
nodes = (
"742 628 CURVE",
"743 186 LINE",
"672 136 OFFCURVE",
"584 106 OFFCURVE",
"506 106 CURVE SMOOTH",
"346 106 OFFCURVE",
"221 210 OFFCURVE",
"221 399 CURVE SMOOTH",
"221 602 OFFCURVE",
"334 712 OFFCURVE",
"489 712 CURVE SMOOTH",
"571 712 OFFCURVE",
"664 680 OFFCURVE"
);
}
);
width = 1051;
},
{
anchors = (
{
name = top;
position = "{583, 804}";
}
);
layerId = "EFCDB4D9-E20B-4A8D-9DB5-150AD166B0AE";
paths = (
{
closed = 1;
nodes = (
"481 -403 CURVE SMOOTH",
"761 -403 OFFCURVE",
"1000 -312 OFFCURVE",
"1000 91 CURVE SMOOTH",
"1000 585 LINE",
"1107 585 LINE",
"1107 804 LINE",
"742 804 LINE",
"700 735 LINE",
"625 788 OFFCURVE",
"543 824 OFFCURVE",
"460 824 CURVE SMOOTH",
"204 824 OFFCURVE",
"45 644 OFFCURVE",
"45 387 CURVE SMOOTH",
"45 154 OFFCURVE",
"223 -7 OFFCURVE",
"508 -7 CURVE SMOOTH",
"557 -7 OFFCURVE",
"599 2 OFFCURVE",
"637 16 CURVE",
"637 9 OFFCURVE",
"636 22 OFFCURVE",
"636 16 CURVE SMOOTH",
"626 -119 OFFCURVE",
"586 -170 OFFCURVE",
"478 -170 CURVE SMOOTH",
"391 -170 OFFCURVE",
"318 -159 OFFCURVE",
"196 -123 CURVE",
"144 -345 LINE",
"252 -377 OFFCURVE",
"346 -403 OFFCURVE"
);
},
{
closed = 1;
nodes = (
"589 213 CURVE SMOOTH",
"482 213 OFFCURVE",
"415 298 OFFCURVE",
"415 415 CURVE SMOOTH",
"415 541 OFFCURVE",
"495 605 OFFCURVE",
"619 605 CURVE SMOOTH",
"625 605 OFFCURVE",
"630 608 OFFCURVE",
"636 613 CURVE",
"637 211 LINE",
"617 213 OFFCURVE",
"602 213 OFFCURVE"
);
}
);
width = 1163;
}
);
unicode = 0067;
userData = {
com.typemytype.robofont.layerData = {
b = {
anchors = (
);
components = (
);
contours = (
{
points = (
{
segmentType = curve;
smooth = 1;
x = 510;
y = "-333";
},
{
smooth = 0;
x = 722;
y = "-333";
},
{
smooth = 0;
x = 880;
y = "-225";
},
{
segmentType = curve;
smooth = 0;
x = 880;
y = 15;
},
{
segmentType = line;
smooth = 0;
x = 880;
y = 735;
},
{
segmentType = line;
smooth = 0;
x = 1005;
y = 735;
},
{
segmentType = line;
smooth = 0;
x = 1005;
y = 789;
},
{
segmentType = line;
smooth = 0;
x = 804;
y = 789;
},
{
segmentType = line;
smooth = 0;
x = 804;
y = 673;
},
{
smooth = 0;
x = 804;
y = 673;
},
{
smooth = 0;
x = 804;
y = "-2";
},
{
segmentType = curve;
smooth = 1;
x = 804;
y = "-2";
},
{
smooth = 0;
x = 804;
y = "-173";
},
{
smooth = 0;
x = 695;
y = "-271";
},
{
segmentType = curve;
smooth = 1;
x = 515;
y = "-271";
},
{
smooth = 0;
x = 444;
y = "-271";
},
{
smooth = 0;
x = 362;
y = "-255";
},
{
segmentType = curve;
smooth = 0;
x = 272;
y = "-224";
},
{
segmentType = line;
smooth = 0;
x = 257;
y = "-289";
},
{
smooth = 0;
x = 345;
y = "-318";
},
{
smooth = 0;
x = 431;
y = "-333";
}
);
}
);
lib = {
};
name = g;
unicodes = (
);
width = 1013;
};
};
org.robofab.postScriptHintData = {
};
};
},
{
glyphname = h;
lastChange = "2016-08-04 09:26:30 +0000";
layers = (
{
anchors = (
{
name = mid;
position = "{223, 959}";
},
{
name = top;
position = "{516, 1013}";
}
);
layerId = "98C086B7-81AA-4491-8494-0C6A76849168";
paths = (
{
closed = 1;
nodes = (
"28 0 LINE",
"383 0 LINE",
"383 45 LINE",
"236 45 LINE",
"236 669 LINE",
"355 734 OFFCURVE",
"472 778 OFFCURVE",
"567 778 CURVE SMOOTH",
"685 778 OFFCURVE",
"761 708 OFFCURVE",
"761 594 CURVE SMOOTH",
"761 45 LINE",
"588 45 LINE",
"588 0 LINE",
"974 0 LINE",
"974 45 LINE",
"820 45 LINE",
"820 578 LINE SMOOTH",
"820 732 OFFCURVE",
"723 826 OFFCURVE",
"573 826 CURVE SMOOTH",
"461 826 OFFCURVE",
"356 783 OFFCURVE",
"236 713 CURVE",
"236 1174 LINE",
"35 1174 LINE",
"35 1129 LINE",
"177 1129 LINE",
"177 45 LINE",
"28 45 LINE"
);
}
);
width = 979;
},
{
associatedMasterId = "98C086B7-81AA-4491-8494-0C6A76849168";
layerId = "301D9DDE-946A-4F17-AC5E-71844C78E13E";
name = b;
width = 965;
},
{
anchors = (
{
name = mid;
position = "{269, 934}";
},
{
name = top;
position = "{617, 1061}";
}
);
layerId = "BE4F947C-73D7-4684-AEED-17801393DA53";
paths = (
{
closed = 1;
nodes = (
"43 0 LINE",
"476 0 LINE",
"476 108 LINE",
"345 108 LINE",
"345 612 LINE",
"429 667 OFFCURVE",
"524 707 OFFCURVE",
"610 707 CURVE SMOOTH",
"704 707 OFFCURVE",
"762 642 OFFCURVE",
"762 528 CURVE SMOOTH",
"762 108 LINE",
"629 108 LINE",
"629 0 LINE",
"1061 0 LINE",
"1061 108 LINE",
"913 108 LINE",
"913 557 LINE SMOOTH",
"913 731 OFFCURVE",
"794 826 OFFCURVE",
"648 826 CURVE SMOOTH",
"541 826 OFFCURVE",
"443 780 OFFCURVE",
"345 714 CURVE",
"345 1174 LINE",
"46 1174 LINE",
"46 1066 LINE",
"193 1066 LINE",
"193 108 LINE",
"43 108 LINE"
);
}
);
width = 1065;
},
{
anchors = (
{
name = mid;
position = "{336, 849}";
},
{
name = top;
position = "{595, 1165}";
}
);
layerId = "EFCDB4D9-E20B-4A8D-9DB5-150AD166B0AE";
paths = (
{
closed = 1;
nodes = (
"1158 224 LINE",
"1158 472 LINE SMOOTH",
"1162 718 OFFCURVE",
"1038 826 OFFCURVE",
"872 826 CURVE SMOOTH",
"745 826 OFFCURVE",
"632 778 OFFCURVE",
"520 668 CURVE",
"520 1174 LINE",
"42 1174 LINE",
"42 950 LINE",
"169 950 LINE",
"169 224 LINE",
"43 224 LINE",
"43 0 LINE",
"641 0 LINE",
"641 224 LINE",
"520 224 LINE",
"520 520 LINE",
"576 560 OFFCURVE",
"629 573 OFFCURVE",
"686 573 CURVE SMOOTH",
"755 573 OFFCURVE",
"806 536 OFFCURVE",
"806 435 CURVE SMOOTH",
"806 224 LINE",
"713 224 LINE",
"713 0 LINE",
"1290 0 LINE",
"1290 224 LINE"
);
}
);
width = 1314;
}
);
unicode = 0068;
userData = {
com.typemytype.robofont.layerData = {
b = {
anchors = (
);
components = (
);
contours = (
);
lib = {
};
name = h;
unicodes = (
);
width = 965;
};
};
org.robofab.postScriptHintData = {
};
};
},
{
glyphname = i;
lastChange = "2016-08-04 09:26:30 +0000";
layers = (
{
layerId = "98C086B7-81AA-4491-8494-0C6A76849168";
paths = (
{
closed = 1;
nodes = (
"290 1014 CURVE SMOOTH",
"323 1014 OFFCURVE",
"346 1035 OFFCURVE",
"346 1065 CURVE SMOOTH",
"346 1093 OFFCURVE",
"323 1115 OFFCURVE",
"290 1115 CURVE SMOOTH",
"259 1115 OFFCURVE",
"237 1093 OFFCURVE",
"237 1065 CURVE SMOOTH",
"237 1035 OFFCURVE",
"259 1014 OFFCURVE"
);
},
{
closed = 1;
nodes = (
"100 0 LINE",
"508 0 LINE",
"508 45 LINE",
"336 45 LINE",
"336 804 LINE",
"103 804 LINE",
"103 759 LINE",
"277 759 LINE",
"277 45 LINE",
"100 45 LINE"
);
}
);
width = 550;
},
{
associatedMasterId = "98C086B7-81AA-4491-8494-0C6A76849168";
layerId = "60D81842-FC0F-40CA-927F-BBB65FF4D795";
name = b;
width = 531;
},
{
layerId = "BE4F947C-73D7-4684-AEED-17801393DA53";
paths = (
{
closed = 1;
nodes = (
"333 982 CURVE SMOOTH",
"396 982 OFFCURVE",
"444 1027 OFFCURVE",
"444 1086 CURVE SMOOTH",
"444 1144 OFFCURVE",
"396 1190 OFFCURVE",
"333 1190 CURVE SMOOTH",
"272 1190 OFFCURVE",
"224 1144 OFFCURVE",
"224 1086 CURVE SMOOTH",
"224 1027 OFFCURVE",
"272 982 OFFCURVE"
);
},
{
closed = 1;
nodes = (
"123 0 LINE",
"573 0 LINE",
"573 108 LINE",
"429 108 LINE",
"429 804 LINE",
"124 804 LINE",
"124 696 LINE",
"278 696 LINE",
"278 108 LINE",
"123 108 LINE"
);
}
);
width = 625;
},
{
anchors = (
{
name = ogonek;
position = "{352, 0}";
},
{
name = top;
position = "{332, 802}";
}
);
layerId = "EFCDB4D9-E20B-4A8D-9DB5-150AD166B0AE";
paths = (
{
closed = 1;
nodes = (
"336 966 CURVE SMOOTH",
"459 966 OFFCURVE",
"538 1042 OFFCURVE",
"537 1161 CURVE SMOOTH",
"537 1277 OFFCURVE",
"459 1353 OFFCURVE",
"336 1353 CURVE SMOOTH",
"213 1353 OFFCURVE",
"134 1277 OFFCURVE",
"134 1161 CURVE SMOOTH",
"134 1042 OFFCURVE",
"213 966 OFFCURVE"
);
},
{
closed = 1;
nodes = (
"68 224 LINE",
"68 0 LINE",
"632 0 LINE",
"632 224 LINE",
"534 224 LINE",
"534 804 LINE",
"79 804 LINE",
"79 580 LINE",
"182 580 LINE",
"182 224 LINE"
);
}
);
width = 687;
}
);
unicode = 0069;
userData = {
com.typemytype.robofont.layerData = {
b = {
anchors = (
);
components = (
);
contours = (
);
lib = {
};
name = i;
unicodes = (
);
width = 531;
};
};
org.robofab.postScriptHintData = {
};
};
},
{
glyphname = dotlessi;
lastChange = "2016-08-04 09:26:30 +0000";
layers = (
{
anchors = (
{
name = ogonek;
position = "{311, 0}";
},
{
name = top;
position = "{290, 804}";
}
);
layerId = "98C086B7-81AA-4491-8494-0C6A76849168";
paths = (
{
closed = 1;
nodes = (
"100 0 LINE",
"508 0 LINE",
"508 45 LINE",
"336 45 LINE",
"336 804 LINE",
"103 804 LINE",
"103 759 LINE",
"277 759 LINE",
"277 45 LINE",
"100 45 LINE"
);
}
);
width = 550;
},
{
associatedMasterId = "98C086B7-81AA-4491-8494-0C6A76849168";
layerId = "61CF8975-66A8-4949-9173-31B1BB6C6423";
name = b;
width = 513;
},
{
anchors = (
{
name = ogonek;
position = "{360, 0}";
},
{
name = top;
position = "{333, 804}";
}
);
layerId = "BE4F947C-73D7-4684-AEED-17801393DA53";
paths = (
{
closed = 1;
nodes = (
"123 0 LINE",
"573 0 LINE",
"573 108 LINE",
"429 108 LINE",
"429 804 LINE",
"124 804 LINE",
"124 696 LINE",
"278 696 LINE",
"278 108 LINE",
"123 108 LINE"
);
}
);
width = 625;
},
{
anchors = (
{
name = ogonek;
position = "{448, 0}";
},
{
name = top;
position = "{414, 802}";
}
);
layerId = "EFCDB4D9-E20B-4A8D-9DB5-150AD166B0AE";
paths = (
{
closed = 1;
nodes = (
"152 0 LINE",
"715 0 LINE",
"715 224 LINE",
"618 224 LINE",
"618 804 LINE",
"163 804 LINE",
"163 580 LINE",
"266 580 LINE",
"266 224 LINE",
"152 224 LINE"
);
}
);
width = 892;
}
);
unicode = 0131;
userData = {
com.typemytype.robofont.layerData = {
b = {
anchors = (
);
components = (
);
contours = (
);
lib = {
};
name = dotlessi;
unicodes = (
);
width = 513;
};
};
org.robofab.postScriptHintData = {
};
};
},
{
glyphname = j;
lastChange = "2016-08-04 09:26:30 +0000";
layers = (
{
layerId = "98C086B7-81AA-4491-8494-0C6A76849168";
paths = (
{
closed = 1;
nodes = (
"235 1015 CURVE SMOOTH",
"268 1015 OFFCURVE",
"291 1036 OFFCURVE",
"291 1066 CURVE SMOOTH",
"291 1094 OFFCURVE",
"268 1115 OFFCURVE",
"235 1115 CURVE SMOOTH",
"204 1115 OFFCURVE",
"181 1094 OFFCURVE",
"181 1066 CURVE SMOOTH",
"181 1036 OFFCURVE",
"204 1015 OFFCURVE"
);
},
{
closed = 1;
nodes = (
"21 -250 LINE",
"96 -250 LINE SMOOTH",
"268 -250 OFFCURVE",
"285 -155 OFFCURVE",
"285 -69 CURVE SMOOTH",
"285 -53 OFFCURVE",
"284 38 OFFCURVE",
"284 805 CURVE",
"64 805 LINE",
"64 763 LINE",
"222 763 LINE",
"222 22 OFFCURVE",
"222 -54 OFFCURVE",
"222 -62 CURVE SMOOTH",
"222 -159 OFFCURVE",
"214 -206 OFFCURVE",
"87 -206 CURVE SMOOTH",
"21 -206 LINE"
);
}
);
width = 414;
},
{
associatedMasterId = "98C086B7-81AA-4491-8494-0C6A76849168";
layerId = "3C2ACF56-46BD-42DA-B9FF-B57713FD3F4D";
name = b;
width = 398;
},
{
layerId = "BE4F947C-73D7-4684-AEED-17801393DA53";
paths = (
{
closed = 1;
nodes = (
"274 982 CURVE SMOOTH",
"337 982 OFFCURVE",
"385 1027 OFFCURVE",
"385 1087 CURVE SMOOTH",
"385 1144 OFFCURVE",
"337 1190 OFFCURVE",
"274 1190 CURVE SMOOTH",
"213 1190 OFFCURVE",
"164 1144 OFFCURVE",
"164 1087 CURVE SMOOTH",
"164 1027 OFFCURVE",
"213 982 OFFCURVE"
);
},
{
closed = 1;
nodes = (
"10 -311 LINE",
"99 -311 LINE SMOOTH",
"359 -311 OFFCURVE",
"382 -174 OFFCURVE",
"382 8 CURVE SMOOTH",
"382 14 OFFCURVE",
"382 549 OFFCURVE",
"382 804 CURVE",
"65 804 LINE",
"65 697 LINE",
"229 697 LINE",
"229 450 OFFCURVE",
"229 -27 OFFCURVE",
"229 -29 CURVE SMOOTH",
"229 -142 OFFCURVE",
"207 -193 OFFCURVE",
"96 -193 CURVE SMOOTH",
"10 -193 LINE"
);
}
);
width = 509;
},
{
anchors = (
{
name = top;
position = "{370, 804}";
}
);
layerId = "EFCDB4D9-E20B-4A8D-9DB5-150AD166B0AE";
paths = (
{
closed = 1;
nodes = (
"367 968 CURVE SMOOTH",
"490 968 OFFCURVE",
"569 1045 OFFCURVE",
"568 1163 CURVE SMOOTH",
"568 1279 OFFCURVE",
"490 1355 OFFCURVE",
"367 1355 CURVE SMOOTH",
"244 1355 OFFCURVE",
"165 1279 OFFCURVE",
"165 1163 CURVE SMOOTH",
"165 1045 OFFCURVE",
"244 968 OFFCURVE"
);
},
{
closed = 1;
nodes = (
"-20 -84 LINE",
"-20 -347 LINE",
"93 -347 LINE SMOOTH",
"675 -347 OFFCURVE",
"585 67 OFFCURVE",
"585 267 CURVE SMOOTH",
"585 804 LINE",
"71 804 LINE",
"71 580 LINE",
"219 580 LINE",
"219 96 LINE SMOOTH",
"219 -79 OFFCURVE",
"154 -84 OFFCURVE",
"39 -84 CURVE SMOOTH"
);
}
);
width = 647;
}
);
unicode = 006A;
userData = {
com.typemytype.robofont.layerData = {
b = {
anchors = (
);
components = (
);
contours = (
);
lib = {
};
name = j;
unicodes = (
);
width = 398;
};
};
org.robofab.postScriptHintData = {
};
};
},
{
glyphname = uni0237;
lastChange = "2016-08-04 09:26:30 +0000";
layers = (
{
anchors = (
{
name = top;
position = "{235, 804}";
}
);
layerId = "98C086B7-81AA-4491-8494-0C6A76849168";
paths = (
{
closed = 1;
nodes = (
"21 -250 LINE",
"96 -250 LINE SMOOTH",
"301 -250 OFFCURVE",
"282 -109 OFFCURVE",
"282 -26 CURVE SMOOTH",
"282 804 LINE",
"50 804 LINE",
"50 759 LINE",
"222 759 LINE",
"222 -36 LINE SMOOTH",
"222 -150 OFFCURVE",
"226 -206 OFFCURVE",
"87 -206 CURVE SMOOTH",
"21 -206 LINE"
);
}
);
width = 414;
},
{
associatedMasterId = "98C086B7-81AA-4491-8494-0C6A76849168";
layerId = "401DF5D5-DAFE-4A02-927E-DD969BE1BF22";
name = b;
width = 398;
},
{
anchors = (
{
name = top;
position = "{274, 804}";
}
);
layerId = "BE4F947C-73D7-4684-AEED-17801393DA53";
paths = (
{
closed = 1;
nodes = (
"10 -311 LINE",
"99 -311 LINE SMOOTH",
"370 -311 OFFCURVE",
"381 -159 OFFCURVE",
"381 23 CURVE SMOOTH",
"381 804 LINE",
"61 804 LINE",
"61 696 LINE",
"229 696 LINE",
"229 -21 LINE SMOOTH",
"229 -139 OFFCURVE",
"211 -193 OFFCURVE",
"96 -193 CURVE SMOOTH",
"10 -193 LINE"
);
}
);
width = 509;
},
{
anchors = (
{
name = top;
position = "{370, 804}";
}
);
layerId = "EFCDB4D9-E20B-4A8D-9DB5-150AD166B0AE";
paths = (
{
closed = 1;
nodes = (
"-20 -347 LINE",
"93 -347 LINE SMOOTH",
"675 -347 OFFCURVE",
"585 67 OFFCURVE",
"585 267 CURVE SMOOTH",
"585 804 LINE",
"71 804 LINE",
"71 580 LINE",
"219 580 LINE",
"219 96 LINE SMOOTH",
"219 -79 OFFCURVE",
"154 -84 OFFCURVE",
"39 -84 CURVE SMOOTH",
"-20 -84 LINE"
);
}
);
width = 647;
}
);
unicode = 0237;
userData = {
com.typemytype.robofont.layerData = {
b = {
anchors = (
);
components = (
);
contours = (
);
lib = {
};
name = uni0237;
unicodes = (
);
width = 398;
};
};
org.robofab.postScriptHintData = {
};
};
},
{
glyphname = k;
lastChange = "2016-08-04 09:26:30 +0000";
layers = (
{
anchors = (
{
name = bot;
position = "{533, 0}";
},
{
name = top;
position = "{572, 998}";
}
);
guideLines = (
{
position = "{474, 421}";
}
);
layerId = "98C086B7-81AA-4491-8494-0C6A76849168";
paths = (
{
closed = 1;
nodes = (
"727 0 LINE",
"935 0 LINE",
"935 45 LINE",
"754 45 LINE",
"342 419 LINE",
"780 759 LINE",
"930 759 LINE",
"930 804 LINE",
"546 804 LINE",
"546 759 LINE",
"712 759 LINE",
"270 424 LINE",
"270 1174 LINE",
"69 1174 LINE",
"69 1129 LINE",
"211 1129 LINE",
"211 45 LINE",
"62 45 LINE",
"62 0 LINE",
"418 0 LINE",
"418 45 LINE",
"270 45 LINE",
"270 419 LINE"
);
}
);
width = 979;
},
{
associatedMasterId = "98C086B7-81AA-4491-8494-0C6A76849168";
layerId = "5616521C-8DEC-405C-BBD6-F8E6B56D5679";
name = b;
width = 927;
},
{
anchors = (
{
name = bot;
position = "{547, 0}";
},
{
name = top;
position = "{698, 962}";
}
);
guideLines = (
{
position = "{474, 421}";
}
);
layerId = "BE4F947C-73D7-4684-AEED-17801393DA53";
paths = (
{
closed = 1;
nodes = (
"752 0 LINE",
"988 0 LINE",
"988 109 LINE",
"828 109 LINE",
"511 420 LINE",
"861 696 LINE",
"983 696 LINE",
"983 804 LINE",
"554 804 LINE",
"554 696 LINE",
"704 696 LINE",
"356 431 LINE",
"356 1174 LINE",
"58 1174 LINE",
"58 1066 LINE",
"204 1066 LINE",
"204 108 LINE",
"54 108 LINE",
"54 0 LINE",
"487 0 LINE",
"487 108 LINE",
"356 108 LINE",
"356 395 LINE"
);
}
);
width = 1020;
},
{
anchors = (
{
name = bot;
position = "{680, 0}";
},
{
name = top;
position = "{881, 1015}";
}
);
guideLines = (
{
position = "{474, 421}";
}
);
layerId = "EFCDB4D9-E20B-4A8D-9DB5-150AD166B0AE";
paths = (
{
closed = 1;
nodes = (
"1083 225 LINE",
"864 449 LINE",
"1053 584 LINE",
"1183 584 LINE",
"1183 804 LINE",
"634 804 LINE",
"634 584 LINE",
"780 584 LINE",
"520 416 LINE",
"520 1174 LINE",
"42 1174 LINE",
"42 950 LINE",
"169 950 LINE",
"169 224 LINE",
"43 224 LINE",
"43 0 LINE",
"641 0 LINE",
"641 224 LINE",
"520 224 LINE",
"520 403 LINE",
"876 0 LINE",
"1230 0 LINE",
"1230 225 LINE"
);
}
);
width = 1277;
}
);
unicode = 006B;
userData = {
com.typemytype.robofont.guides = (
{
angle = 0;
isGlobal = 0;
magnetic = 5;
x = 474;
y = 421;
}
);
com.typemytype.robofont.layerData = {
b = {
anchors = (
);
components = (
);
contours = (
);
lib = {
};
name = k;
unicodes = (
);
width = 927;
};
};
org.robofab.postScriptHintData = {
};
};
},
{
glyphname = kgreenlandic;
lastChange = "2016-08-04 09:26:30 +0000";
layers = (
{
layerId = "98C086B7-81AA-4491-8494-0C6A76849168";
paths = (
{
closed = 1;
nodes = (
"701 0 LINE",
"901 0 LINE",
"901 45 LINE",
"732 45 LINE",
"371 410 LINE",
"753 759 LINE",
"895 759 LINE",
"895 804 LINE",
"530 804 LINE",
"530 759 LINE",
"680 759 LINE",
"297 411 LINE"
);
},
{
closed = 1;
nodes = (
"73 0 LINE",
"409 0 LINE",
"409 45 LINE",
"273 45 LINE",
"273 804 LINE",
"80 804 LINE",
"80 759 LINE",
"214 759 LINE",
"214 45 LINE",
"73 45 LINE"
);
}
);
width = 947;
},
{
associatedMasterId = "98C086B7-81AA-4491-8494-0C6A76849168";
layerId = "92780E13-E6AC-48FC-A53E-A06ACB00CCC4";
name = b;
width = 927;
},
{
layerId = "BE4F947C-73D7-4684-AEED-17801393DA53";
paths = (
{
closed = 1;
nodes = (
"818 0 LINE",
"1033 0 LINE",
"1033 109 LINE",
"886 109 LINE",
"538 404 LINE",
"884 696 LINE",
"1023 696 LINE",
"1023 804 LINE",
"577 804 LINE",
"577 696 LINE",
"716 696 LINE",
"362 396 LINE"
);
},
{
closed = 1;
nodes = (
"78 0 LINE",
"494 0 LINE",
"494 109 LINE",
"376 109 LINE",
"376 804 LINE",
"80 804 LINE",
"80 696 LINE",
"226 696 LINE",
"226 109 LINE",
"78 109 LINE"
);
}
);
width = 1068;
},
{
layerId = "EFCDB4D9-E20B-4A8D-9DB5-150AD166B0AE";
paths = (
{
closed = 1;
nodes = (
"148 0 LINE",
"772 0 LINE",
"772 225 LINE",
"645 225 LINE",
"645 364 LINE",
"905 225 LINE",
"882 225 LINE",
"882 0 LINE",
"1409 0 LINE",
"1409 225 LINE",
"1252 225 LINE",
"971 383 LINE",
"1228 584 LINE",
"1382 584 LINE",
"1382 804 LINE",
"765 804 LINE",
"765 584 LINE",
"878 584 LINE",
"645 372 LINE",
"645 804 LINE",
"144 804 LINE",
"144 584 LINE",
"292 584 LINE",
"292 225 LINE",
"148 225 LINE"
);
}
);
width = 1364;
}
);
unicode = 0138;
userData = {
com.typemytype.robofont.layerData = {
b = {
anchors = (
);
components = (
);
contours = (
);
lib = {
};
name = kgreenlandic;
unicodes = (
);
width = 927;
};
};
org.robofab.postScriptHintData = {
};
};
},
{
glyphname = l;
lastChange = "2016-08-04 09:26:30 +0000";
layers = (
{
anchors = (
{
name = bot;
position = "{238, 0}";
},
{
name = top;
position = "{235, 1152}";
}
);
layerId = "98C086B7-81AA-4491-8494-0C6A76849168";
paths = (
{
closed = 1;
nodes = (
"57 0 LINE",
"413 0 LINE",
"413 45 LINE",
"265 45 LINE",
"265 1174 LINE",
"64 1174 LINE",
"64 1129 LINE",
"206 1129 LINE",
"206 45 LINE",
"57 45 LINE"
);
}
);
width = 458;
},
{
associatedMasterId = "98C086B7-81AA-4491-8494-0C6A76849168";
layerId = "FDCAA29B-C389-4C69-A9E2-0057C9386E97";
name = b;
width = 563;
},
{
anchors = (
{
name = bot;
position = "{277, 0}";
},
{
name = top;
position = "{280, 1152}";
}
);
layerId = "BE4F947C-73D7-4684-AEED-17801393DA53";
paths = (
{
closed = 1;
nodes = (
"55 0 LINE",
"488 0 LINE",
"488 108 LINE",
"357 108 LINE",
"357 1174 LINE",
"59 1174 LINE",
"59 1066 LINE",
"205 1066 LINE",
"205 108 LINE",
"55 108 LINE"
);
}
);
width = 533;
},
{
anchors = (
{
name = bot;
position = "{360, 0}";
},
{
name = caron.alt;
position = "{447, 936}";
},
{
name = mid;
position = "{289, 659}";
},
{
name = top;
position = "{337, 1152}";
}
);
layerId = "EFCDB4D9-E20B-4A8D-9DB5-150AD166B0AE";
paths = (
{
closed = 1;
nodes = (
"52 224 LINE",
"52 0 LINE",
"650 0 LINE",
"650 224 LINE",
"529 224 LINE",
"529 1174 LINE",
"51 1174 LINE",
"51 950 LINE",
"177 950 LINE",
"177 224 LINE"
);
}
);
width = 694;
}
);
unicode = 006C;
userData = {
com.typemytype.robofont.layerData = {
b = {
anchors = (
);
components = (
);
contours = (
);
lib = {
};
name = l;
unicodes = (
);
width = 563;
};
};
org.robofab.postScriptHintData = {
};
};
},
{
glyphname = lslash;
lastChange = "2016-08-04 09:26:30 +0000";
layers = (
{
components = (
{
name = l;
}
);
layerId = "98C086B7-81AA-4491-8494-0C6A76849168";
paths = (
{
closed = 1;
nodes = (
"52 450 LINE",
"409 672 LINE",
"409 732 LINE",
"52 508 LINE"
);
}
);
width = 456;
},
{
associatedMasterId = "98C086B7-81AA-4491-8494-0C6A76849168";
layerId = "9E718AB3-263B-4644-93E7-9BC3B3B8EC74";
name = b;
width = 506;
},
{
components = (
{
name = l;
}
);
layerId = "BE4F947C-73D7-4684-AEED-17801393DA53";
paths = (
{
closed = 1;
nodes = (
"49 393 LINE",
"504 629 LINE",
"504 759 LINE",
"49 518 LINE"
);
}
);
width = 521;
},
{
components = (
{
name = l;
}
);
layerId = "EFCDB4D9-E20B-4A8D-9DB5-150AD166B0AE";
paths = (
{
closed = 1;
nodes = (
"6 372 LINE",
"642 720 LINE",
"642 987 LINE",
"6 632 LINE"
);
}
);
width = 579;
}
);
unicode = 0142;
userData = {
com.typemytype.robofont.layerData = {
b = {
anchors = (
);
components = (
);
contours = (
);
lib = {
};
name = lslash;
unicodes = (
);
width = 506;
};
};
org.robofab.postScriptHintData = {
};
};
},
{
glyphname = m;
lastChange = "2016-08-04 09:26:30 +0000";
layers = (
{
anchors = (
{
name = top;
position = "{810, 804}";
}
);
layerId = "98C086B7-81AA-4491-8494-0C6A76849168";
paths = (
{
closed = 1;
nodes = (
"36 0 LINE",
"444 0 LINE",
"444 45 LINE",
"272 45 LINE",
"272 676 LINE",
"399 741 OFFCURVE",
"517 778 OFFCURVE",
"587 778 CURVE SMOOTH",
"708 778 OFFCURVE",
"784 708 OFFCURVE",
"784 594 CURVE SMOOTH",
"784 45 LINE",
"610 45 LINE",
"610 0 LINE",
"996 0 LINE",
"996 45 LINE",
"843 45 LINE",
"843 578 LINE SMOOTH",
"843 611 OFFCURVE",
"838 640 OFFCURVE",
"830 667 CURVE",
"940 739 OFFCURVE",
"1060 778 OFFCURVE",
"1162 778 CURVE",
"1283 778 OFFCURVE",
"1359 708 OFFCURVE",
"1359 594 CURVE SMOOTH",
"1359 45 LINE",
"1185 45 LINE",
"1185 0 LINE",
"1571 0 LINE",
"1571 45 LINE",
"1418 45 LINE",
"1418 578 LINE SMOOTH",
"1418 732 OFFCURVE",
"1321 826 OFFCURVE",
"1172 826 CURVE SMOOTH",
"1040 826 OFFCURVE",
"939 781 OFFCURVE",
"813 706 CURVE",
"775 784 OFFCURVE",
"699 826 OFFCURVE",
"597 826 CURVE SMOOTH",
"509 826 OFFCURVE",
"388 786 OFFCURVE",
"272 721 CURVE",
"272 804 LINE",
"38 804 LINE",
"38 759 LINE",
"213 759 LINE",
"213 45 LINE",
"36 45 LINE"
);
}
);
width = 1577;
},
{
associatedMasterId = "98C086B7-81AA-4491-8494-0C6A76849168";
layerId = "15F53033-239C-4FF3-9A8A-7B87A1265565";
name = b;
width = 1571;
},
{
anchors = (
{
name = top;
position = "{853, 804}";
}
);
layerId = "BE4F947C-73D7-4684-AEED-17801393DA53";
paths = (
{
closed = 1;
nodes = (
"45 0 LINE",
"495 0 LINE",
"495 108 LINE",
"351 108 LINE",
"351 624 LINE",
"436 674 OFFCURVE",
"525 707 OFFCURVE",
"598 707 CURVE SMOOTH",
"693 707 OFFCURVE",
"751 642 OFFCURVE",
"751 528 CURVE SMOOTH",
"751 108 LINE",
"617 108 LINE",
"617 0 LINE",
"1049 0 LINE",
"1049 108 LINE",
"901 108 LINE",
"901 557 LINE SMOOTH",
"901 577 OFFCURVE",
"899 597 OFFCURVE",
"895 615 CURVE",
"976 670 OFFCURVE",
"1070 707 OFFCURVE",
"1157 707 CURVE",
"1252 707 OFFCURVE",
"1310 642 OFFCURVE",
"1310 528 CURVE SMOOTH",
"1310 108 LINE",
"1176 108 LINE",
"1176 0 LINE",
"1608 0 LINE",
"1608 108 LINE",
"1460 108 LINE",
"1460 557 LINE SMOOTH",
"1460 731 OFFCURVE",
"1342 826 OFFCURVE",
"1196 826 CURVE SMOOTH",
"1075 826 OFFCURVE",
"972 772 OFFCURVE",
"867 698 CURVE",
"823 782 OFFCURVE",
"737 826 OFFCURVE",
"637 826 CURVE SMOOTH",
"543 826 OFFCURVE",
"444 786 OFFCURVE",
"351 727 CURVE",
"351 804 LINE",
"46 804 LINE",
"46 696 LINE",
"201 696 LINE",
"201 108 LINE",
"45 108 LINE"
);
}
);
width = 1612;
},
{
anchors = (
{
name = top;
position = "{1043, 804}";
}
);
layerId = "EFCDB4D9-E20B-4A8D-9DB5-150AD166B0AE";
paths = (
{
closed = 1;
nodes = (
"1881 224 LINE",
"1881 472 LINE SMOOTH",
"1884 718 OFFCURVE",
"1750 826 OFFCURVE",
"1574 826 CURVE SMOOTH",
"1428 826 OFFCURVE",
"1299 771 OFFCURVE",
"1170 642 CURVE",
"1124 768 OFFCURVE",
"1017 826 OFFCURVE",
"889 826 CURVE SMOOTH",
"763 826 OFFCURVE",
"651 785 OFFCURVE",
"541 693 CURVE",
"541 804 LINE",
"54 804 LINE",
"54 580 LINE",
"165 580 LINE",
"165 224 LINE",
"43 224 LINE",
"43 0 LINE",
"646 0 LINE",
"646 224 LINE",
"541 224 LINE",
"541 538 LINE",
"591 564 OFFCURVE",
"640 573 OFFCURVE",
"691 573 CURVE SMOOTH",
"764 573 OFFCURVE",
"819 536 OFFCURVE",
"819 435 CURVE SMOOTH",
"819 224 LINE",
"718 224 LINE",
"718 0 LINE",
"1337 0 LINE",
"1337 224 LINE",
"1195 224 LINE",
"1195 472 LINE SMOOTH",
"1195 488 OFFCURVE",
"1195 503 OFFCURVE",
"1194 518 CURVE",
"1256 559 OFFCURVE",
"1314 573 OFFCURVE",
"1376 573 CURVE SMOOTH",
"1450 573 OFFCURVE",
"1505 536 OFFCURVE",
"1505 435 CURVE SMOOTH",
"1505 224 LINE",
"1404 224 LINE",
"1404 0 LINE",
"2022 0 LINE",
"2022 224 LINE"
);
}
);
width = 2045;
}
);
unicode = 006D;
userData = {
com.typemytype.robofont.layerData = {
b = {
anchors = (
);
components = (
);
contours = (
);
lib = {
};
name = m;
unicodes = (
);
width = 1571;
};
};
org.robofab.postScriptHintData = {
};
};
},
{
glyphname = n;
lastChange = "2016-08-04 09:26:30 +0000";
layers = (
{
anchors = (
{
name = bot;
position = "{548, 0}";
},
{
name = top;
position = "{595, 804}";
}
);
layerId = "98C086B7-81AA-4491-8494-0C6A76849168";
paths = (
{
closed = 1;
nodes = (
"36 0 LINE",
"444 0 LINE",
"444 45 LINE",
"272 45 LINE",
"272 669 LINE",
"405 738 OFFCURVE",
"530 778 OFFCURVE",
"602 778 CURVE SMOOTH",
"723 778 OFFCURVE",
"799 708 OFFCURVE",
"799 594 CURVE SMOOTH",
"799 45 LINE",
"625 45 LINE",
"625 0 LINE",
"1011 0 LINE",
"1011 45 LINE",
"858 45 LINE",
"858 578 LINE SMOOTH",
"858 732 OFFCURVE",
"761 826 OFFCURVE",
"612 826 CURVE SMOOTH",
"521 826 OFFCURVE",
"393 782 OFFCURVE",
"272 713 CURVE",
"272 804 LINE",
"38 804 LINE",
"38 759 LINE",
"213 759 LINE",
"213 45 LINE",
"36 45 LINE"
);
}
);
width = 1017;
},
{
associatedMasterId = "98C086B7-81AA-4491-8494-0C6A76849168";
layerId = "93A7830A-5E0C-41CA-AF46-BBEFED90B925";
name = b;
width = 1010;
},
{
anchors = (
{
name = bot;
position = "{571, 0}";
},
{
name = top;
position = "{590, 804}";
}
);
layerId = "BE4F947C-73D7-4684-AEED-17801393DA53";
paths = (
{
closed = 1;
nodes = (
"45 0 LINE",
"495 0 LINE",
"495 108 LINE",
"351 108 LINE",
"351 622 LINE",
"438 673 OFFCURVE",
"529 707 OFFCURVE",
"603 707 CURVE SMOOTH",
"698 707 OFFCURVE",
"756 642 OFFCURVE",
"756 528 CURVE SMOOTH",
"756 108 LINE",
"622 108 LINE",
"622 0 LINE",
"1054 0 LINE",
"1054 108 LINE",
"906 108 LINE",
"906 557 LINE SMOOTH",
"906 731 OFFCURVE",
"788 826 OFFCURVE",
"642 826 CURVE SMOOTH",
"547 826 OFFCURVE",
"446 785 OFFCURVE",
"351 724 CURVE",
"351 804 LINE",
"46 804 LINE",
"46 696 LINE",
"201 696 LINE",
"201 108 LINE",
"45 108 LINE"
);
}
);
width = 1058;
},
{
anchors = (
{
name = bot;
position = "{674, 0}";
},
{
name = top;
position = "{650, 804}";
}
);
layerId = "EFCDB4D9-E20B-4A8D-9DB5-150AD166B0AE";
paths = (
{
closed = 1;
nodes = (
"1142 224 LINE",
"1142 472 LINE SMOOTH",
"1146 718 OFFCURVE",
"1022 826 OFFCURVE",
"856 826 CURVE SMOOTH",
"731 826 OFFCURVE",
"619 779 OFFCURVE",
"509 673 CURVE",
"509 804 LINE",
"54 804 LINE",
"54 580 LINE",
"157 580 LINE",
"157 224 LINE",
"43 224 LINE",
"43 0 LINE",
"606 0 LINE",
"606 224 LINE",
"509 224 LINE",
"509 523 LINE",
"563 560 OFFCURVE",
"615 573 OFFCURVE",
"670 573 CURVE SMOOTH",
"739 573 OFFCURVE",
"790 536 OFFCURVE",
"790 435 CURVE SMOOTH",
"790 224 LINE",
"697 224 LINE",
"697 0 LINE",
"1274 0 LINE",
"1274 224 LINE"
);
}
);
width = 1298;
}
);
unicode = 006E;
userData = {
com.typemytype.robofont.layerData = {
b = {
anchors = (
);
components = (
);
contours = (
);
lib = {
};
name = n;
unicodes = (
);
width = 1010;
};
};
org.robofab.postScriptHintData = {
};
};
},
{
glyphname = eng;
lastChange = "2016-08-04 09:26:30 +0000";
layers = (
{
layerId = "98C086B7-81AA-4491-8494-0C6A76849168";
paths = (
{
closed = 1;
nodes = (
"479 -367 LINE",
"713 -367 OFFCURVE",
"858 -257 OFFCURVE",
"858 -10 CURVE SMOOTH",
"858 578 LINE SMOOTH",
"858 732 OFFCURVE",
"761 826 OFFCURVE",
"612 826 CURVE SMOOTH",
"521 826 OFFCURVE",
"393 782 OFFCURVE",
"272 713 CURVE",
"272 804 LINE",
"38 804 LINE",
"38 759 LINE",
"213 759 LINE",
"213 45 LINE",
"36 45 LINE",
"36 0 LINE",
"444 0 LINE",
"444 45 LINE",
"272 45 LINE",
"272 669 LINE",
"405 738 OFFCURVE",
"530 778 OFFCURVE",
"602 778 CURVE SMOOTH",
"723 778 OFFCURVE",
"799 708 OFFCURVE",
"799 594 CURVE SMOOTH",
"799 -24 LINE SMOOTH",
"799 -209 OFFCURVE",
"699 -322 OFFCURVE",
"482 -322 CURVE"
);
}
);
width = 1017;
},
{
layerId = "BE4F947C-73D7-4684-AEED-17801393DA53";
paths = (
{
closed = 1;
nodes = (
"481 -326 LINE",
"719 -326 OFFCURVE",
"906 -234 OFFCURVE",
"906 29 CURVE SMOOTH",
"906 557 LINE SMOOTH",
"906 731 OFFCURVE",
"788 826 OFFCURVE",
"642 826 CURVE SMOOTH",
"548 826 OFFCURVE",
"446 785 OFFCURVE",
"351 724 CURVE",
"351 804 LINE",
"46 804 LINE",
"46 696 LINE",
"201 696 LINE",
"201 108 LINE",
"45 108 LINE",
"45 0 LINE",
"495 0 LINE",
"495 108 LINE",
"351 108 LINE",
"351 622 LINE",
"438 673 OFFCURVE",
"529 707 OFFCURVE",
"603 707 CURVE SMOOTH",
"698 707 OFFCURVE",
"756 642 OFFCURVE",
"756 528 CURVE SMOOTH",
"756 19 LINE SMOOTH",
"756 -144 OFFCURVE",
"674 -217 OFFCURVE",
"482 -217 CURVE"
);
}
);
width = 1058;
},
{
layerId = "EFCDB4D9-E20B-4A8D-9DB5-150AD166B0AE";
paths = (
{
closed = 1;
nodes = (
"504 667 CURVE",
"504 804 LINE",
"49 804 LINE",
"49 580 LINE",
"152 580 LINE",
"152 224 LINE",
"38 224 LINE",
"38 0 LINE",
"601 0 LINE",
"601 224 LINE",
"504 224 LINE",
"504 519 LINE",
"561 558 OFFCURVE",
"615 574 OFFCURVE",
"673 573 CURVE SMOOTH",
"741 573 OFFCURVE",
"793 536 OFFCURVE",
"793 435 CURVE SMOOTH",
"793 170 LINE SMOOTH",
"793 -38 OFFCURVE",
"743 -105 OFFCURVE",
"625 -105 CURVE",
"620 -352 LINE",
"900 -352 OFFCURVE",
"1145 -257 OFFCURVE",
"1145 156 CURVE SMOOTH",
"1145 472 LINE SMOOTH",
"1145 718 OFFCURVE",
"1024 826 OFFCURVE",
"859 826 CURVE SMOOTH",
"730 826 OFFCURVE",
"616 776 OFFCURVE"
);
}
);
width = 1296;
}
);
unicode = 014B;
userData = {
org.robofab.postScriptHintData = {
};
};
},
{
glyphname = o;
lastChange = "2016-08-04 09:26:30 +0000";
layers = (
{
anchors = (
{
name = top;
position = "{488, 805}";
}
);
layerId = "98C086B7-81AA-4491-8494-0C6A76849168";
paths = (
{
closed = 1;
nodes = (
"490 -22 CURVE SMOOTH",
"744 -22 OFFCURVE",
"923 156 OFFCURVE",
"923 408 CURVE SMOOTH",
"923 653 OFFCURVE",
"744 826 OFFCURVE",
"491 826 CURVE SMOOTH",
"239 826 OFFCURVE",
"61 652 OFFCURVE",
"61 407 CURVE SMOOTH",
"61 155 OFFCURVE",
"239 -22 OFFCURVE"
);
},
{
closed = 1;
nodes = (
"490 24 CURVE SMOOTH",
"273 24 OFFCURVE",
"120 183 OFFCURVE",
"120 407 CURVE SMOOTH",
"120 626 OFFCURVE",
"273 780 OFFCURVE",
"490 780 CURVE SMOOTH",
"709 780 OFFCURVE",
"865 626 OFFCURVE",
"865 408 CURVE SMOOTH",
"865 183 OFFCURVE",
"709 24 OFFCURVE"
);
}
);
width = 985;
},
{
associatedMasterId = "98C086B7-81AA-4491-8494-0C6A76849168";
layerId = "4658D3DE-51C9-4BAB-B9BB-A34B44564D6C";
name = b;
width = 986;
},
{
anchors = (
{
name = top;
position = "{485, 804}";
}
);
layerId = "BE4F947C-73D7-4684-AEED-17801393DA53";
paths = (
{
closed = 1;
nodes = (
"486 -22 CURVE SMOOTH",
"743 -22 OFFCURVE",
"925 155 OFFCURVE",
"925 405 CURVE SMOOTH",
"925 652 OFFCURVE",
"744 826 OFFCURVE",
"488 826 CURVE SMOOTH",
"232 826 OFFCURVE",
"51 651 OFFCURVE",
"51 405 CURVE SMOOTH",
"51 154 OFFCURVE",
"231 -22 OFFCURVE"
);
},
{
closed = 1;
nodes = (
"487 97 CURVE SMOOTH",
"323 97 OFFCURVE",
"207 224 OFFCURVE",
"207 404 CURVE SMOOTH",
"207 581 OFFCURVE",
"323 707 OFFCURVE",
"486 707 CURVE SMOOTH",
"651 707 OFFCURVE",
"768 582 OFFCURVE",
"768 405 CURVE SMOOTH",
"768 225 OFFCURVE",
"651 97 OFFCURVE"
);
}
);
width = 976;
},
{
anchors = (
{
name = ogonek;
position = "{555, 0}";
},
{
name = top;
position = "{515, 830}";
}
);
layerId = "EFCDB4D9-E20B-4A8D-9DB5-150AD166B0AE";
paths = (
{
closed = 1;
nodes = (
"537 -22 CURVE SMOOTH",
"833 -22 OFFCURVE",
"1029 153 OFFCURVE",
"1029 418 CURVE SMOOTH",
"1029 664 OFFCURVE",
"833 826 OFFCURVE",
"536 826 CURVE SMOOTH",
"240 826 OFFCURVE",
"44 664 OFFCURVE",
"44 418 CURVE SMOOTH",
"44 153 OFFCURVE",
"240 -22 OFFCURVE"
);
},
{
closed = 1;
nodes = (
"537 200 CURVE SMOOTH",
"454 198 OFFCURVE",
"400 283 OFFCURVE",
"400 417 CURVE SMOOTH",
"400 530 OFFCURVE",
"454 604 OFFCURVE",
"537 604 CURVE SMOOTH",
"620 604 OFFCURVE",
"673 530 OFFCURVE",
"673 417 CURVE SMOOTH",
"673 283 OFFCURVE",
"620 198 OFFCURVE"
);
}
);
width = 1073;
}
);
unicode = 006F;
userData = {
com.typemytype.robofont.layerData = {
b = {
anchors = (
);
components = (
);
contours = (
);
lib = {
};
name = o;
unicodes = (
);
width = 986;
};
};
org.robofab.postScriptHintData = {
};
};
},
{
glyphname = oslash;
lastChange = "2016-08-04 09:26:30 +0000";
layers = (
{
components = (
{
name = o;
}
);
layerId = "98C086B7-81AA-4491-8494-0C6A76849168";
paths = (
{
closed = 1;
nodes = (
"196 -144 LINE",
"835 898 LINE",
"808 917 LINE",
"169 -125 LINE"
);
}
);
width = 1018;
},
{
associatedMasterId = "98C086B7-81AA-4491-8494-0C6A76849168";
layerId = "616AA737-71B6-47B9-8DFB-32EF48B3D552";
name = b;
width = 1023;
},
{
components = (
{
name = o;
}
);
layerId = "BE4F947C-73D7-4684-AEED-17801393DA53";
paths = (
{
closed = 1;
nodes = (
"249 -128 LINE",
"807 892 LINE",
"735 927 LINE",
"178 -93 LINE"
);
}
);
width = 987;
},
{
components = (
{
name = o;
}
);
layerId = "EFCDB4D9-E20B-4A8D-9DB5-150AD166B0AE";
paths = (
{
closed = 1;
nodes = (
"335 -119 LINE",
"852 890 LINE",
"758 933 LINE",
"241 -76 LINE"
);
}
);
width = 1078;
}
);
unicode = 00F8;
userData = {
com.typemytype.robofont.layerData = {
b = {
anchors = (
);
components = (
);
contours = (
);
lib = {
};
name = oslash;
unicodes = (
);
width = 1023;
};
};
org.robofab.postScriptHintData = {
};
};
},
{
glyphname = oe;
lastChange = "2016-08-04 09:26:30 +0000";
layers = (
{
layerId = "98C086B7-81AA-4491-8494-0C6A76849168";
paths = (
{
closed = 1;
nodes = (
"494 -22 CURVE SMOOTH",
"689 -22 OFFCURVE",
"840 86 OFFCURVE",
"896 251 CURVE",
"956 76 OFFCURVE",
"1120 -22 OFFCURVE",
"1293 -22 CURVE SMOOTH",
"1417 -22 OFFCURVE",
"1548 26 OFFCURVE",
"1649 129 CURVE",
"1627 172 LINE",
"1558 89 OFFCURVE",
"1419 23 OFFCURVE",
"1294 23 CURVE SMOOTH",
"1115 23 OFFCURVE",
"938 148 OFFCURVE",
"928 387 CURVE",
"1669 387 LINE",
"1661 708 OFFCURVE",
"1461 826 OFFCURVE",
"1275 826 CURVE SMOOTH",
"1117 826 OFFCURVE",
"956 737 OFFCURVE",
"898 559 CURVE",
"840 721 OFFCURVE",
"689 826 OFFCURVE",
"494 826 CURVE SMOOTH",
"243 826 OFFCURVE",
"66 651 OFFCURVE",
"66 406 CURVE SMOOTH",
"66 155 OFFCURVE",
"242 -22 OFFCURVE"
);
},
{
closed = 1;
nodes = (
"494 23 CURVE SMOOTH",
"276 23 OFFCURVE",
"123 182 OFFCURVE",
"123 406 CURVE SMOOTH",
"123 626 OFFCURVE",
"276 780 OFFCURVE",
"494 780 CURVE SMOOTH",
"714 780 OFFCURVE",
"868 626 OFFCURVE",
"868 407 CURVE SMOOTH",
"868 182 OFFCURVE",
"714 23 OFFCURVE"
);
},
{
closed = 1;
nodes = (
"927 429 LINE",
"935 644 OFFCURVE",
"1087 781 OFFCURVE",
"1275 781 CURVE SMOOTH",
"1443 781 OFFCURVE",
"1591 670 OFFCURVE",
"1614 429 CURVE"
);
}
);
width = 1783;
},
{
associatedMasterId = "98C086B7-81AA-4491-8494-0C6A76849168";
layerId = "DF302722-D9D6-4C73-9606-08F33285D1FF";
name = b;
width = 1961;
},
{
layerId = "BE4F947C-73D7-4684-AEED-17801393DA53";
paths = (
{
closed = 1;
nodes = (
"511 -22 CURVE SMOOTH",
"672 -22 OFFCURVE",
"799 55 OFFCURVE",
"868 176 CURVE",
"940 51 OFFCURVE",
"1075 -22 OFFCURVE",
"1235 -22 CURVE SMOOTH",
"1386 -22 OFFCURVE",
"1515 31 OFFCURVE",
"1596 127 CURVE",
"1520 207 LINE",
"1453 136 OFFCURVE",
"1342 89 OFFCURVE",
"1241 89 CURVE SMOOTH",
"1069 89 OFFCURVE",
"953 198 OFFCURVE",
"943 369 CURVE",
"1612 369 LINE",
"1609 649 OFFCURVE",
"1464 826 OFFCURVE",
"1223 826 CURVE SMOOTH",
"1076 826 OFFCURVE",
"943 755 OFFCURVE",
"871 625 CURVE",
"801 750 OFFCURVE",
"672 826 OFFCURVE",
"513 826 CURVE SMOOTH",
"261 826 OFFCURVE",
"83 648 OFFCURVE",
"83 401 CURVE SMOOTH",
"83 156 OFFCURVE",
"256 -22 OFFCURVE"
);
},
{
closed = 1;
nodes = (
"512 92 CURVE SMOOTH",
"343 92 OFFCURVE",
"232 219 OFFCURVE",
"232 401 CURVE SMOOTH",
"232 582 OFFCURVE",
"341 709 OFFCURVE",
"511 709 CURVE SMOOTH",
"682 709 OFFCURVE",
"793 582 OFFCURVE",
"793 402 CURVE SMOOTH",
"793 219 OFFCURVE",
"681 92 OFFCURVE"
);
},
{
closed = 1;
nodes = (
"945 458 LINE",
"962 614 OFFCURVE",
"1064 715 OFFCURVE",
"1222 715 CURVE SMOOTH",
"1366 715 OFFCURVE",
"1454 619 OFFCURVE",
"1473 458 CURVE"
);
}
);
width = 1724;
},
{
layerId = "EFCDB4D9-E20B-4A8D-9DB5-150AD166B0AE";
paths = (
{
closed = 1;
nodes = (
"506 -22 CURVE SMOOTH",
"697 -22 OFFCURVE",
"787 63 OFFCURVE",
"822 124 CURVE",
"852 63 OFFCURVE",
"957 -21 OFFCURVE",
"1162 -21 CURVE SMOOTH",
"1298 -21 OFFCURVE",
"1426 20 OFFCURVE",
"1521 88 CURVE",
"1443 267 LINE",
"1369 231 OFFCURVE",
"1281 206 OFFCURVE",
"1204 206 CURVE SMOOTH",
"1112 206 OFFCURVE",
"1025 241 OFFCURVE",
"1018 356 CURVE",
"1521 356 LINE",
"1521 659 OFFCURVE",
"1363 827 OFFCURVE",
"1109 827 CURVE SMOOTH",
"959 827 OFFCURVE",
"869 770 OFFCURVE",
"821 693 CURVE",
"763 781 OFFCURVE",
"633 826 OFFCURVE",
"517 826 CURVE SMOOTH",
"220 826 OFFCURVE",
"34 665 OFFCURVE",
"34 419 CURVE SMOOTH",
"34 152 OFFCURVE",
"209 -22 OFFCURVE"
);
},
{
closed = 1;
nodes = (
"516 202 CURVE SMOOTH",
"435 199 OFFCURVE",
"379 285 OFFCURVE",
"379 418 CURVE SMOOTH",
"379 530 OFFCURVE",
"435 603 OFFCURVE",
"516 603 CURVE SMOOTH",
"598 603 OFFCURVE",
"653 530 OFFCURVE",
"653 418 CURVE SMOOTH",
"653 285 OFFCURVE",
"598 199 OFFCURVE"
);
},
{
closed = 1;
nodes = (
"1020 511 LINE",
"1034 597 OFFCURVE",
"1076 645 OFFCURVE",
"1126 645 CURVE SMOOTH",
"1195 645 OFFCURVE",
"1237 598 OFFCURVE",
"1230 511 CURVE"
);
}
);
width = 1561;
}
);
unicode = 0153;
userData = {
com.typemytype.robofont.layerData = {
b = {
anchors = (
);
components = (
);
contours = (
);
lib = {
};
name = oe;
unicodes = (
);
width = 1961;
};
};
org.robofab.postScriptHintData = {
};
};
},
{
glyphname = p;
lastChange = "2016-08-04 09:26:30 +0000";
layers = (
{
anchors = (
{
name = top;
position = "{564, 805}";
}
);
layerId = "98C086B7-81AA-4491-8494-0C6A76849168";
paths = (
{
closed = 1;
nodes = (
"550 -22 CURVE SMOOTH",
"808 -22 OFFCURVE",
"977 144 OFFCURVE",
"977 412 CURVE SMOOTH",
"977 669 OFFCURVE",
"816 826 OFFCURVE",
"567 826 CURVE SMOOTH",
"466 826 OFFCURVE",
"351 783 OFFCURVE",
"261 715 CURVE",
"260 804 LINE",
"76 804 LINE",
"76 759 LINE",
"202 759 LINE",
"202 -272 LINE",
"61 -272 LINE",
"61 -316 LINE",
"399 -316 LINE",
"399 -272 LINE",
"261 -272 LINE",
"262 94 LINE",
"338 22 OFFCURVE",
"446 -22 OFFCURVE"
);
},
{
closed = 1;
nodes = (
"262 668 LINE",
"355 738 OFFCURVE",
"469 780 OFFCURVE",
"561 780 CURVE SMOOTH",
"779 780 OFFCURVE",
"918 635 OFFCURVE",
"918 400 CURVE SMOOTH",
"918 167 OFFCURVE",
"773 23 OFFCURVE",
"546 23 CURVE SMOOTH",
"447 23 OFFCURVE",
"341 69 OFFCURVE",
"262 145 CURVE"
);
}
);
width = 1039;
},
{
associatedMasterId = "98C086B7-81AA-4491-8494-0C6A76849168";
layerId = "EC2539F8-2E40-4A56-A377-0A9FFC0FBFDB";
name = b;
width = 1037;
},
{
anchors = (
{
name = top;
position = "{569, 804}";
}
);
layerId = "BE4F947C-73D7-4684-AEED-17801393DA53";
paths = (
{
closed = 1;
nodes = (
"577 -21 CURVE SMOOTH",
"799 -21 OFFCURVE",
"994 137 OFFCURVE",
"994 414 CURVE SMOOTH",
"994 680 OFFCURVE",
"819 825 OFFCURVE",
"602 825 CURVE SMOOTH",
"504 825 OFFCURVE",
"405 790 OFFCURVE",
"328 731 CURVE",
"326 804 LINE",
"44 804 LINE",
"44 696 LINE",
"184 696 LINE",
"184 -211 LINE",
"39 -211 LINE",
"39 -319 LINE",
"492 -319 LINE",
"492 -211 LINE",
"334 -211 LINE",
"335 62 LINE",
"389 14 OFFCURVE",
"479 -21 OFFCURVE"
);
},
{
closed = 1;
nodes = (
"334 626 LINE",
"406 685 OFFCURVE",
"501 709 OFFCURVE",
"561 709 CURVE SMOOTH",
"719 709 OFFCURVE",
"836 598 OFFCURVE",
"836 401 CURVE SMOOTH",
"836 199 OFFCURVE",
"712 92 OFFCURVE",
"551 92 CURVE SMOOTH",
"478 92 OFFCURVE",
"400 120 OFFCURVE",
"335 171 CURVE"
);
}
);
width = 1048;
},
{
anchors = (
{
name = top;
position = "{573, 804}";
}
);
layerId = "EFCDB4D9-E20B-4A8D-9DB5-150AD166B0AE";
paths = (
{
closed = 1;
nodes = (
"511 763 CURVE",
"510 804 LINE",
"11 804 LINE",
"11 580 LINE",
"157 580 LINE",
"157 -184 LINE",
"11 -184 LINE",
"11 -408 LINE",
"690 -408 LINE",
"690 -184 LINE",
"509 -184 LINE",
"510 35 LINE",
"578 -3 OFFCURVE",
"650 -21 OFFCURVE",
"724 -21 CURVE SMOOTH",
"945 -21 OFFCURVE",
"1135 138 OFFCURVE",
"1135 422 CURVE SMOOTH",
"1135 647 OFFCURVE",
"1001 826 OFFCURVE",
"736 826 CURVE SMOOTH",
"661 826 OFFCURVE",
"586 803 OFFCURVE"
);
},
{
closed = 1;
nodes = (
"510 171 CURVE",
"511 606 LINE",
"532 604 OFFCURVE",
"549 603 OFFCURVE",
"567 603 CURVE SMOOTH",
"739 603 OFFCURVE",
"765 473 OFFCURVE",
"765 400 CURVE SMOOTH",
"765 263 OFFCURVE",
"672 175 OFFCURVE",
"541 175 CURVE SMOOTH",
"532 175 OFFCURVE",
"523 173 OFFCURVE"
);
}
);
width = 1178;
}
);
unicode = 0070;
userData = {
com.typemytype.robofont.layerData = {
b = {
anchors = (
);
components = (
);
contours = (
);
lib = {
};
name = p;
unicodes = (
);
width = 1037;
};
};
org.robofab.postScriptHintData = {
};
};
},
{
glyphname = thorn;
lastChange = "2016-08-04 09:26:30 +0000";
layers = (
{
layerId = "98C086B7-81AA-4491-8494-0C6A76849168";
paths = (
{
closed = 1;
nodes = (
"58 -317 LINE",
"391 -317 LINE",
"391 -273 LINE",
"255 -273 LINE",
"255 101 LINE",
"335 25 OFFCURVE",
"447 -20 OFFCURVE",
"552 -20 CURVE SMOOTH",
"810 -20 OFFCURVE",
"976 146 OFFCURVE",
"976 414 CURVE SMOOTH",
"976 671 OFFCURVE",
"816 828 OFFCURVE",
"566 828 CURVE SMOOTH",
"464 828 OFFCURVE",
"348 785 OFFCURVE",
"256 714 CURVE",
"256 1152 LINE",
"44 1152 LINE",
"44 1104 LINE",
"196 1104 LINE",
"196 -272 LINE",
"58 -272 LINE"
);
},
{
closed = 1;
nodes = (
"548 26 CURVE SMOOTH",
"447 26 OFFCURVE",
"336 72 OFFCURVE",
"255 151 CURVE",
"256 665 LINE",
"350 738 OFFCURVE",
"465 782 OFFCURVE",
"561 782 CURVE SMOOTH",
"779 782 OFFCURVE",
"918 637 OFFCURVE",
"918 402 CURVE SMOOTH",
"918 169 OFFCURVE",
"775 26 OFFCURVE"
);
}
);
width = 1040;
},
{
associatedMasterId = "98C086B7-81AA-4491-8494-0C6A76849168";
layerId = "6682C0CA-0632-4AE1-947D-C2ACDBF97AD3";
name = b;
width = 1069;
},
{
layerId = "BE4F947C-73D7-4684-AEED-17801393DA53";
paths = (
{
closed = 1;
nodes = (
"40 -326 LINE",
"478 -326 LINE",
"478 -216 LINE",
"333 -216 LINE",
"333 111 LINE",
"410 34 OFFCURVE",
"514 -7 OFFCURVE",
"617 -7 CURVE SMOOTH",
"839 -7 OFFCURVE",
"1032 151 OFFCURVE",
"1032 429 CURVE SMOOTH",
"1032 694 OFFCURVE",
"857 840 OFFCURVE",
"641 840 CURVE SMOOTH",
"537 840 OFFCURVE",
"425 800 OFFCURVE",
"333 723 CURVE",
"333 1152 LINE",
"33 1152 LINE",
"33 1043 LINE",
"181 1043 LINE",
"181 -215 LINE",
"40 -215 LINE"
);
},
{
closed = 1;
nodes = (
"590 107 CURVE SMOOTH",
"503 107 OFFCURVE",
"407 145 OFFCURVE",
"333 218 CURVE",
"333 605 LINE",
"415 683 OFFCURVE",
"514 724 OFFCURVE",
"600 724 CURVE SMOOTH",
"758 724 OFFCURVE",
"875 612 OFFCURVE",
"875 416 CURVE SMOOTH",
"875 214 OFFCURVE",
"752 107 OFFCURVE"
);
}
);
width = 1099;
},
{
layerId = "EFCDB4D9-E20B-4A8D-9DB5-150AD166B0AE";
paths = (
{
closed = 1;
nodes = (
"547 768 CURVE",
"547 1148 LINE",
"34 1148 LINE",
"34 928 LINE",
"194 928 LINE",
"194 -182 LINE",
"49 -182 LINE",
"49 -404 LINE",
"547 -404 LINE",
"547 21 LINE",
"614 -10 OFFCURVE",
"680 -25 OFFCURVE",
"750 -25 CURVE SMOOTH",
"971 -25 OFFCURVE",
"1161 134 OFFCURVE",
"1161 418 CURVE SMOOTH",
"1161 642 OFFCURVE",
"1027 822 OFFCURVE",
"762 822 CURVE SMOOTH",
"692 822 OFFCURVE",
"620 801 OFFCURVE"
);
},
{
closed = 1;
nodes = (
"547 157 CURVE",
"547 611 LINE",
"566 603 OFFCURVE",
"578 599 OFFCURVE",
"593 599 CURVE SMOOTH",
"765 599 OFFCURVE",
"791 469 OFFCURVE",
"791 395 CURVE SMOOTH",
"791 259 OFFCURVE",
"698 171 OFFCURVE",
"567 171 CURVE SMOOTH",
"562 171 OFFCURVE",
"557 166 OFFCURVE"
);
}
);
width = 1245;
}
);
unicode = 00FE;
userData = {
com.typemytype.robofont.layerData = {
b = {
anchors = (
);
components = (
);
contours = (
);
lib = {
};
name = thorn;
unicodes = (
);
width = 1069;
};
};
org.robofab.postScriptHintData = {
};
};
},
{
glyphname = q;
lastChange = "2016-08-04 09:26:30 +0000";
layers = (
{
layerId = "98C086B7-81AA-4491-8494-0C6A76849168";
paths = (
{
closed = 1;
nodes = (
"648 -330 LINE",
"985 -330 LINE",
"985 -285 LINE",
"846 -285 LINE",
"846 759 LINE",
"977 759 LINE",
"977 804 LINE",
"792 804 LINE",
"788 712 LINE",
"701 780 OFFCURVE",
"574 826 OFFCURVE",
"462 826 CURVE SMOOTH",
"230 826 OFFCURVE",
"62 655 OFFCURVE",
"62 404 CURVE SMOOTH",
"62 151 OFFCURVE",
"242 -22 OFFCURVE",
"487 -22 CURVE SMOOTH",
"589 -22 OFFCURVE",
"705 23 OFFCURVE",
"786 90 CURVE",
"786 -285 LINE",
"648 -285 LINE"
);
},
{
closed = 1;
nodes = (
"786 669 CURVE",
"786 138 LINE",
"705 70 OFFCURVE",
"590 24 OFFCURVE",
"491 24 CURVE SMOOTH",
"276 24 OFFCURVE",
"121 176 OFFCURVE",
"121 396 CURVE SMOOTH",
"121 624 OFFCURVE",
"265 780 OFFCURVE",
"467 780 CURVE SMOOTH",
"574 780 OFFCURVE",
"698 736 OFFCURVE"
);
}
);
width = 1054;
},
{
associatedMasterId = "98C086B7-81AA-4491-8494-0C6A76849168";
layerId = "8045324C-77F6-4EA1-A203-0E1DBB13ACF8";
name = b;
width = 1049;
},
{
layerId = "BE4F947C-73D7-4684-AEED-17801393DA53";
paths = (
{
closed = 1;
nodes = (
"590 -330 LINE",
"1043 -330 LINE",
"1043 -216 LINE",
"899 -216 LINE",
"899 696 LINE",
"1040 696 LINE",
"1040 804 LINE",
"750 804 LINE",
"748 726 LINE",
"663 789 OFFCURVE",
"554 825 OFFCURVE",
"452 825 CURVE SMOOTH",
"238 825 OFFCURVE",
"57 676 OFFCURVE",
"57 403 CURVE SMOOTH",
"57 136 OFFCURVE",
"247 -22 OFFCURVE",
"468 -22 CURVE SMOOTH",
"564 -22 OFFCURVE",
"666 12 OFFCURVE",
"747 75 CURVE",
"747 -216 LINE",
"590 -216 LINE"
);
},
{
closed = 1;
nodes = (
"747 619 CURVE",
"747 180 LINE",
"672 125 OFFCURVE",
"581 93 OFFCURVE",
"500 93 CURVE SMOOTH",
"340 93 OFFCURVE",
"214 199 OFFCURVE",
"214 391 CURVE SMOOTH",
"214 599 OFFCURVE",
"328 711 OFFCURVE",
"482 711 CURVE SMOOTH",
"568 711 OFFCURVE",
"664 677 OFFCURVE"
);
}
);
width = 1086;
},
{
layerId = "EFCDB4D9-E20B-4A8D-9DB5-150AD166B0AE";
paths = (
{
closed = 1;
nodes = (
"515 -410 LINE",
"1170 -410 LINE",
"1170 -188 LINE",
"1040 -188 LINE",
"1040 580 LINE",
"1097 580 LINE",
"1097 804 LINE",
"687 804 LINE",
"688 742 LINE",
"615 791 OFFCURVE",
"536 826 OFFCURVE",
"457 826 CURVE SMOOTH",
"201 826 OFFCURVE",
"42 642 OFFCURVE",
"42 380 CURVE SMOOTH",
"42 142 OFFCURVE",
"220 -22 OFFCURVE",
"505 -22 CURVE SMOOTH",
"578 -22 OFFCURVE",
"637 -2 OFFCURVE",
"689 30 CURVE",
"689 -188 LINE",
"515 -188 LINE"
);
},
{
closed = 1;
nodes = (
"586 202 CURVE SMOOTH",
"479 202 OFFCURVE",
"412 289 OFFCURVE",
"412 408 CURVE SMOOTH",
"412 537 OFFCURVE",
"492 602 OFFCURVE",
"616 602 CURVE SMOOTH",
"638 602 OFFCURVE",
"663 601 OFFCURVE",
"689 599 CURVE",
"689 212 LINE",
"647 206 OFFCURVE",
"612 202 OFFCURVE"
);
}
);
width = 1163;
}
);
unicode = 0071;
userData = {
com.typemytype.robofont.layerData = {
b = {
anchors = (
);
components = (
);
contours = (
);
lib = {
};
name = q;
unicodes = (
);
width = 1049;
};
};
org.robofab.postScriptHintData = {
};
};
},
{
glyphname = r;
lastChange = "2016-08-04 09:26:30 +0000";
layers = (
{
anchors = (
{
name = bot;
position = "{328, 0}";
},
{
name = top;
position = "{497, 805}";
}
);
layerId = "98C086B7-81AA-4491-8494-0C6A76849168";
paths = (
{
closed = 1;
nodes = (
"113 0 LINE",
"521 0 LINE",
"521 45 LINE",
"350 45 LINE",
"351 462 LINE SMOOTH",
"351 659 OFFCURVE",
"450 776 OFFCURVE",
"559 776 CURVE SMOOTH",
"613 776 OFFCURVE",
"649 762 OFFCURVE",
"692 738 CURVE",
"705 785 LINE",
"659 811 OFFCURVE",
"613 824 OFFCURVE",
"558 824 CURVE SMOOTH",
"477 824 OFFCURVE",
"394 777 OFFCURVE",
"350 646 CURVE",
"350 804 LINE",
"116 804 LINE",
"116 759 LINE",
"290 759 LINE",
"290 45 LINE",
"113 45 LINE"
);
}
);
width = 775;
},
{
associatedMasterId = "98C086B7-81AA-4491-8494-0C6A76849168";
layerId = "5735741B-75F4-4A95-84FD-953FB25D0145";
name = b;
paths = (
{
closed = 1;
nodes = (
"338 449 LINE",
"338 643 OFFCURVE",
"441 756 OFFCURVE",
"570 756 CURVE SMOOTH",
"614 756 OFFCURVE",
"651 742 OFFCURVE",
"704 716 CURVE",
"722 784 LINE",
"664 810 OFFCURVE",
"622 820 OFFCURVE",
"575 820 CURVE SMOOTH",
"467 820 OFFCURVE",
"381 769 OFFCURVE",
"316 582 CURVE"
);
}
);
width = 773;
},
{
anchors = (
{
name = bot;
position = "{303, 0}";
},
{
name = top;
position = "{462, 804}";
}
);
layerId = "BE4F947C-73D7-4684-AEED-17801393DA53";
paths = (
{
closed = 1;
nodes = (
"71 0 LINE",
"521 0 LINE",
"521 108 LINE",
"377 108 LINE",
"378 433 LINE SMOOTH",
"378 592 OFFCURVE",
"465 683 OFFCURVE",
"569 683 CURVE SMOOTH",
"618 683 OFFCURVE",
"664 668 OFFCURVE",
"711 637 CURVE",
"747 774 LINE",
"692 800 OFFCURVE",
"638 816 OFFCURVE",
"583 816 CURVE SMOOTH",
"502 816 OFFCURVE",
"426 774 OFFCURVE",
"377 657 CURVE",
"377 804 LINE",
"72 804 LINE",
"72 696 LINE",
"227 696 LINE",
"227 108 LINE",
"71 108 LINE"
);
}
);
width = 790;
},
{
anchors = (
{
name = bot;
position = "{329, 0}";
},
{
name = top;
position = "{465, 804}";
}
);
layerId = "EFCDB4D9-E20B-4A8D-9DB5-150AD166B0AE";
paths = (
{
closed = 1;
nodes = (
"511 629 CURVE",
"511 804 LINE",
"56 804 LINE",
"56 580 LINE",
"159 580 LINE",
"159 224 LINE",
"45 224 LINE",
"45 0 LINE",
"609 0 LINE",
"609 224 LINE",
"511 224 LINE",
"511 442 LINE SMOOTH",
"511 517 OFFCURVE",
"593 534 OFFCURVE",
"656 534 CURVE SMOOTH",
"721 534 OFFCURVE",
"792 511 OFFCURVE",
"823 493 CURVE",
"895 778 LINE",
"851 794 OFFCURVE",
"802 814 OFFCURVE",
"743 814 CURVE SMOOTH",
"668 814 OFFCURVE",
"579 775 OFFCURVE"
);
}
);
width = 892;
}
);
unicode = 0072;
userData = {
com.typemytype.robofont.layerData = {
b = {
anchors = (
);
components = (
);
contours = (
{
points = (
{
segmentType = line;
smooth = 0;
x = 338;
y = 449;
},
{
smooth = 0;
x = 338;
y = 643;
},
{
smooth = 0;
x = 441;
y = 756;
},
{
segmentType = curve;
smooth = 1;
x = 570;
y = 756;
},
{
smooth = 0;
x = 614;
y = 756;
},
{
smooth = 0;
x = 651;
y = 742;
},
{
segmentType = curve;
smooth = 0;
x = 704;
y = 716;
},
{
segmentType = line;
smooth = 0;
x = 722;
y = 784;
},
{
smooth = 0;
x = 664;
y = 810;
},
{
smooth = 0;
x = 622;
y = 820;
},
{
segmentType = curve;
smooth = 1;
x = 575;
y = 820;
},
{
smooth = 0;
x = 467;
y = 820;
},
{
smooth = 0;
x = 381;
y = 769;
},
{
segmentType = curve;
smooth = 0;
x = 316;
y = 582;
}
);
}
);
lib = {
};
name = r;
unicodes = (
);
width = 773;
};
};
org.robofab.postScriptHintData = {
};
};
},
{
glyphname = s;
lastChange = "2016-08-04 09:26:30 +0000";
layers = (
{
anchors = (
{
name = bot;
position = "{471, 0}";
},
{
name = top;
position = "{455, 805}";
}
);
layerId = "98C086B7-81AA-4491-8494-0C6A76849168";
paths = (
{
closed = 1;
nodes = (
"482 -22 CURVE SMOOTH",
"640 -22 OFFCURVE",
"798 45 OFFCURVE",
"798 196 CURVE SMOOTH",
"798 367 OFFCURVE",
"685 394 OFFCURVE",
"514 432 CURVE SMOOTH",
"380 461 LINE SMOOTH",
"285 482 OFFCURVE",
"208 518 OFFCURVE",
"208 607 CURVE SMOOTH",
"208 728 OFFCURVE",
"327 781 OFFCURVE",
"445 781 CURVE SMOOTH",
"537 781 OFFCURVE",
"656 736 OFFCURVE",
"699 675 CURVE",
"706 543 LINE",
"755 543 LINE",
"755 805 LINE",
"702 805 LINE",
"702 731 LINE",
"639 791 OFFCURVE",
"535 826 OFFCURVE",
"441 826 CURVE SMOOTH",
"289 826 OFFCURVE",
"150 759 OFFCURVE",
"150 604 CURVE SMOOTH",
"150 489 OFFCURVE",
"237 437 OFFCURVE",
"366 409 CURVE SMOOTH",
"499 382 LINE SMOOTH",
"669 347 OFFCURVE",
"743 317 OFFCURVE",
"743 192 CURVE SMOOTH",
"743 89 OFFCURVE",
"632 22 OFFCURVE",
"479 22 CURVE SMOOTH",
"363 22 OFFCURVE",
"261 59 OFFCURVE",
"197 134 CURVE",
"193 240 LINE",
"144 240 LINE",
"144 0 LINE",
"196 0 LINE",
"196 82 LINE",
"246 25 OFFCURVE",
"359 -22 OFFCURVE"
);
}
);
width = 914;
},
{
associatedMasterId = "98C086B7-81AA-4491-8494-0C6A76849168";
layerId = "E1CBBB34-E5D6-4D32-8D2A-BE34B4D90B52";
name = b;
width = 919;
},
{
anchors = (
{
name = bot;
position = "{474, 0}";
},
{
name = top;
position = "{436, 804}";
}
);
layerId = "BE4F947C-73D7-4684-AEED-17801393DA53";
paths = (
{
closed = 1;
nodes = (
"499 -21 CURVE SMOOTH",
"655 -21 OFFCURVE",
"807 51 OFFCURVE",
"807 214 CURVE SMOOTH",
"807 388 OFFCURVE",
"686 429 OFFCURVE",
"530 466 CURVE SMOOTH",
"426 490 LINE SMOOTH",
"318 517 OFFCURVE",
"273 543 OFFCURVE",
"273 605 CURVE SMOOTH",
"273 681 OFFCURVE",
"354 716 OFFCURVE",
"442 716 CURVE SMOOTH",
"518 716 OFFCURVE",
"611 685 OFFCURVE",
"653 635 CURVE",
"667 532 LINE",
"775 532 LINE",
"775 808 LINE",
"653 808 LINE",
"653 748 LINE",
"597 799 OFFCURVE",
"498 826 OFFCURVE",
"417 826 CURVE SMOOTH",
"248 826 OFFCURVE",
"121 744 OFFCURVE",
"121 601 CURVE SMOOTH",
"121 448 OFFCURVE",
"213 400 OFFCURVE",
"365 363 CURVE SMOOTH",
"477 338 LINE SMOOTH",
"606 309 OFFCURVE",
"662 289 OFFCURVE",
"662 201 CURVE SMOOTH",
"662 126 OFFCURVE",
"582 83 OFFCURVE",
"480 83 CURVE SMOOTH",
"386 83 OFFCURVE",
"286 120 OFFCURVE",
"238 191 CURVE",
"229 279 LINE",
"123 279 LINE",
"123 0 LINE",
"241 0 LINE",
"241 69 LINE",
"296 14 OFFCURVE",
"396 -21 OFFCURVE"
);
}
);
width = 885;
},
{
anchors = (
{
name = bot;
position = "{558, 0}";
},
{
name = top;
position = "{415, 804}";
}
);
layerId = "EFCDB4D9-E20B-4A8D-9DB5-150AD166B0AE";
paths = (
{
closed = 1;
nodes = (
"561 -22 CURVE SMOOTH",
"696 -22 OFFCURVE",
"864 20 OFFCURVE",
"863 243 CURVE SMOOTH",
"861 386 OFFCURVE",
"776 425 OFFCURVE",
"674 461 CURVE SMOOTH",
"534 510 LINE SMOOTH",
"470 533 OFFCURVE",
"429 543 OFFCURVE",
"429 584 CURVE SMOOTH",
"429 616 OFFCURVE",
"453 629 OFFCURVE",
"501 629 CURVE SMOOTH",
"547 629 OFFCURVE",
"631 602 OFFCURVE",
"660 579 CURVE",
"675 497 LINE",
"864 497 LINE",
"864 826 LINE",
"658 826 LINE",
"658 749 LINE",
"611 784 OFFCURVE",
"558 827 OFFCURVE",
"412 826 CURVE SMOOTH",
"304 826 OFFCURVE",
"79 778 OFFCURVE",
"79 587 CURVE SMOOTH",
"79 485 OFFCURVE",
"135 385 OFFCURVE",
"243 347 CURVE SMOOTH",
"452 278 LINE SMOOTH",
"501 260 OFFCURVE",
"532 244 OFFCURVE",
"532 212 CURVE SMOOTH",
"532 193 OFFCURVE",
"526 176 OFFCURVE",
"475 176 CURVE SMOOTH",
"402 176 OFFCURVE",
"286 216 OFFCURVE",
"259 259 CURVE",
"257 300 LINE",
"82 300 LINE",
"82 0 LINE",
"276 0 LINE",
"276 85 LINE",
"304 20 OFFCURVE",
"456 -22 OFFCURVE"
);
}
);
width = 951;
}
);
unicode = 0073;
userData = {
com.typemytype.robofont.layerData = {
b = {
anchors = (
);
components = (
);
contours = (
);
lib = {
};
name = s;
unicodes = (
);
width = 919;
};
};
org.robofab.postScriptHintData = {
};
};
},
{
glyphname = germandbls;
lastChange = "2016-08-04 09:26:30 +0000";
layers = (
{
layerId = "98C086B7-81AA-4491-8494-0C6A76849168";
paths = (
{
closed = 1;
nodes = (
"103 0 LINE",
"440 0 LINE",
"440 50 LINE",
"319 50 LINE",
"319 877 LINE SMOOTH",
"319 1085 OFFCURVE",
"409 1215 OFFCURVE",
"603 1215 CURVE SMOOTH",
"797 1215 OFFCURVE",
"888 1124 OFFCURVE",
"888 980 CURVE SMOOTH",
"888 814 OFFCURVE",
"789 707 OFFCURVE",
"600 697 CURVE",
"600 662 LINE",
"875 661 OFFCURVE",
"1038 545 OFFCURVE",
"1038 355 CURVE SMOOTH",
"1038 157 OFFCURVE",
"849 50 OFFCURVE",
"579 50 CURVE",
"579 0 LINE",
"902 0 OFFCURVE",
"1097 141 OFFCURVE",
"1097 355 CURVE SMOOTH",
"1097 530 OFFCURVE",
"987 663 OFFCURVE",
"723 686 CURVE",
"859 717 OFFCURVE",
"946 827 OFFCURVE",
"946 981 CURVE SMOOTH",
"946 1166 OFFCURVE",
"822 1261 OFFCURVE",
"603 1261 CURVE SMOOTH",
"377 1261 OFFCURVE",
"257 1125 OFFCURVE",
"257 872 CURVE SMOOTH",
"257 50 LINE",
"103 50 LINE"
);
}
);
width = 1193;
},
{
associatedMasterId = "98C086B7-81AA-4491-8494-0C6A76849168";
layerId = "2DF8D8B5-3C5B-45A4-946A-8505120EBCB6";
name = b;
width = 1198;
},
{
layerId = "BE4F947C-73D7-4684-AEED-17801393DA53";
paths = (
{
closed = 1;
nodes = (
"63 0 LINE",
"497 0 LINE",
"497 111 LINE",
"379 111 LINE",
"379 844 LINE SMOOTH",
"379 1016 OFFCURVE",
"462 1124 OFFCURVE",
"610 1124 CURVE SMOOTH",
"744 1124 OFFCURVE",
"817 1053 OFFCURVE",
"817 940 CURVE SMOOTH",
"817 805 OFFCURVE",
"732 720 OFFCURVE",
"585 716 CURVE",
"585 611 LINE",
"802 611 OFFCURVE",
"934 516 OFFCURVE",
"934 364 CURVE SMOOTH",
"934 205 OFFCURVE",
"802 111 OFFCURVE",
"604 111 CURVE",
"604 0 LINE",
"908 0 OFFCURVE",
"1097 142 OFFCURVE",
"1097 364 CURVE SMOOTH",
"1097 521 OFFCURVE",
"986 646 OFFCURVE",
"780 681 CURVE",
"897 720 OFFCURVE",
"971 822 OFFCURVE",
"971 948 CURVE SMOOTH",
"971 1133 OFFCURVE",
"835 1242 OFFCURVE",
"610 1242 CURVE SMOOTH",
"364 1242 OFFCURVE",
"216 1092 OFFCURVE",
"216 840 CURVE SMOOTH",
"216 111 LINE",
"63 111 LINE"
);
}
);
width = 1160;
},
{
layerId = "EFCDB4D9-E20B-4A8D-9DB5-150AD166B0AE";
paths = (
{
closed = 1;
nodes = (
"49 0 LINE",
"599 0 LINE",
"599 224 LINE",
"510 224 LINE",
"510 955 LINE SMOOTH",
"510 1079 OFFCURVE",
"612 1159 OFFCURVE",
"700 1159 CURVE SMOOTH",
"767 1159 OFFCURVE",
"840 1122 OFFCURVE",
"840 1039 CURVE SMOOTH",
"840 929 OFFCURVE",
"749 846 OFFCURVE",
"573 846 CURVE",
"573 656 LINE",
"746 648 OFFCURVE",
"824 558 OFFCURVE",
"838 442 CURVE SMOOTH",
"850 345 OFFCURVE",
"805 224 OFFCURVE",
"689 224 CURVE",
"689 0 LINE",
"1131 0 OFFCURVE",
"1245 209 OFFCURVE",
"1230 474 CURVE SMOOTH",
"1219 671 OFFCURVE",
"1054 775 OFFCURVE",
"873 791 CURVE",
"1044 828 OFFCURVE",
"1132 956 OFFCURVE",
"1132 1073 CURVE SMOOTH",
"1135 1278 OFFCURVE",
"980 1418 OFFCURVE",
"690 1418 CURVE SMOOTH",
"319 1418 OFFCURVE",
"161 1229 OFFCURVE",
"161 927 CURVE SMOOTH",
"161 224 LINE",
"49 224 LINE"
);
}
);
width = 1319;
}
);
unicode = 00DF;
userData = {
com.typemytype.robofont.layerData = {
b = {
anchors = (
);
components = (
);
contours = (
);
lib = {
};
name = germandbls;
unicodes = (
);
width = 1198;
};
};
org.robofab.postScriptHintData = {
};
};
},
{
glyphname = t;
lastChange = "2016-08-04 09:26:30 +0000";
layers = (
{
anchors = (
{
name = bot;
position = "{393, 9}";
},
{
name = top;
position = "{222, 1000}";
}
);
layerId = "98C086B7-81AA-4491-8494-0C6A76849168";
paths = (
{
closed = 1;
nodes = (
"443 0 CURVE SMOOTH",
"527 0 LINE",
"527 45 LINE",
"447 45 LINE SMOOTH",
"309 45 OFFCURVE",
"251 91 OFFCURVE",
"251 223 CURVE SMOOTH",
"251 759 LINE",
"487 759 LINE",
"488 804 LINE",
"251 804 LINE",
"251 1102 LINE",
"192 1083 LINE",
"192 804 LINE",
"41 804 LINE",
"41 759 LINE",
"192 759 LINE",
"192 219 LINE SMOOTH",
"192 50 OFFCURVE",
"297 0 OFFCURVE"
);
}
);
width = 578;
},
{
associatedMasterId = "98C086B7-81AA-4491-8494-0C6A76849168";
layerId = "C992B93C-9989-44D7-9496-1CA58FCC7E5F";
name = b;
width = 572;
},
{
anchors = (
{
name = bot;
position = "{391, 3}";
},
{
name = top;
position = "{255, 1067}";
}
);
layerId = "BE4F947C-73D7-4684-AEED-17801393DA53";
paths = (
{
closed = 1;
nodes = (
"408 0 CURVE SMOOTH",
"558 0 LINE",
"558 108 LINE",
"435 108 LINE SMOOTH",
"354 108 OFFCURVE",
"325 146 OFFCURVE",
"325 246 CURVE SMOOTH",
"325 696 LINE",
"539 696 LINE",
"539 804 LINE",
"325 804 LINE",
"325 1138 LINE",
"175 1079 LINE",
"175 804 LINE",
"41 804 LINE",
"41 696 LINE",
"174 696 LINE",
"174 238 LINE SMOOTH",
"174 76 OFFCURVE",
"254 0 OFFCURVE"
);
}
);
width = 617;
},
{
anchors = (
{
name = bot;
position = "{439, 0}";
},
{
name = caron.alt;
position = "{379, 1107}";
},
{
name = mid;
position = "{319, 451}";
},
{
name = top;
position = "{326, 1061}";
}
);
layerId = "EFCDB4D9-E20B-4A8D-9DB5-150AD166B0AE";
paths = (
{
closed = 1;
nodes = (
"408 0 CURVE SMOOTH",
"702 0 LINE",
"702 224 LINE",
"544 224 LINE SMOOTH",
"491 224 OFFCURVE",
"490 256 OFFCURVE",
"490 260 CURVE SMOOTH",
"490 580 LINE",
"704 580 LINE",
"704 804 LINE",
"490 804 LINE",
"490 1134 LINE",
"138 1088 LINE",
"138 804 LINE",
"11 804 LINE",
"11 580 LINE",
"139 580 LINE",
"139 246 LINE SMOOTH",
"139 73 OFFCURVE",
"237 0 OFFCURVE"
);
}
);
width = 767;
}
);
unicode = 0074;
userData = {
com.typemytype.robofont.layerData = {
b = {
anchors = (
);
components = (
);
contours = (
);
lib = {
};
name = t;
unicodes = (
);
width = 572;
};
};
org.robofab.postScriptHintData = {
};
};
},
{
glyphname = u;
lastChange = "2016-08-04 09:26:30 +0000";
layers = (
{
anchors = (
{
name = top;
position = "{488, 804}";
}
);
layerId = "98C086B7-81AA-4491-8494-0C6A76849168";
paths = (
{
closed = 1;
nodes = (
"441 -22 CURVE SMOOTH",
"565 -22 OFFCURVE",
"674 29 OFFCURVE",
"776 101 CURVE",
"782 0 LINE",
"984 0 LINE",
"984 43 LINE",
"833 43 LINE",
"833 804 LINE",
"623 804 LINE",
"623 759 LINE",
"773 759 LINE",
"773 145 LINE",
"671 75 OFFCURVE",
"577 25 OFFCURVE",
"445 25 CURVE SMOOTH",
"310 25 OFFCURVE",
"253 116 OFFCURVE",
"253 213 CURVE SMOOTH",
"253 804 LINE",
"37 804 LINE",
"37 759 LINE",
"193 759 LINE",
"193 210 LINE SMOOTH",
"193 126 OFFCURVE",
"238 -22 OFFCURVE"
);
}
);
width = 1028;
},
{
associatedMasterId = "98C086B7-81AA-4491-8494-0C6A76849168";
layerId = "7FEFB9D3-4EE8-44F8-9B41-B0DBD2DD7A2A";
name = b;
width = 1025;
},
{
anchors = (
{
name = top;
position = "{490, 804}";
}
);
layerId = "BE4F947C-73D7-4684-AEED-17801393DA53";
paths = (
{
closed = 1;
nodes = (
"426 -20 CURVE SMOOTH",
"531 -20 OFFCURVE",
"630 24 OFFCURVE",
"723 98 CURVE",
"727 0 LINE",
"1022 0 LINE",
"1022 108 LINE",
"872 108 LINE",
"872 804 LINE",
"578 804 LINE",
"578 696 LINE",
"722 696 LINE",
"722 214 LINE",
"645 142 OFFCURVE",
"559 100 OFFCURVE",
"461 100 CURVE SMOOTH",
"356 100 OFFCURVE",
"310 166 OFFCURVE",
"310 266 CURVE SMOOTH",
"310 804 LINE",
"22 804 LINE",
"22 696 LINE",
"158 696 LINE",
"158 249 LINE SMOOTH",
"158 102 OFFCURVE",
"235 -20 OFFCURVE"
);
}
);
width = 1045;
},
{
anchors = (
{
name = ogonek;
position = "{974, 0}";
},
{
name = top;
position = "{575, 804}";
}
);
layerId = "EFCDB4D9-E20B-4A8D-9DB5-150AD166B0AE";
paths = (
{
closed = 1;
nodes = (
"443 -23 CURVE SMOOTH",
"585 -23 OFFCURVE",
"674 21 OFFCURVE",
"751 83 CURVE",
"752 0 LINE",
"1215 0 LINE",
"1215 224 LINE",
"1103 224 LINE",
"1103 804 LINE",
"633 804 LINE",
"633 580 LINE",
"751 580 LINE",
"751 278 LINE",
"711 250 OFFCURVE",
"650 223 OFFCURVE",
"597 223 CURVE SMOOTH",
"537 223 OFFCURVE",
"481 258 OFFCURVE",
"481 372 CURVE SMOOTH",
"481 804 LINE",
"22 804 LINE",
"22 580 LINE",
"129 580 LINE",
"129 295 LINE SMOOTH",
"129 140 OFFCURVE",
"193 -23 OFFCURVE"
);
}
);
width = 1262;
}
);
unicode = 0075;
userData = {
com.typemytype.robofont.layerData = {
b = {
anchors = (
);
components = (
);
contours = (
);
lib = {
};
name = u;
unicodes = (
);
width = 1025;
};
};
org.robofab.postScriptHintData = {
};
};
},
{
glyphname = v;
lastChange = "2016-08-04 09:26:30 +0000";
layers = (
{
layerId = "98C086B7-81AA-4491-8494-0C6A76849168";
paths = (
{
closed = 1;
nodes = (
"498 0 LINE",
"566 0 LINE",
"894 760 LINE",
"1036 760 LINE",
"1036 805 LINE",
"663 805 LINE",
"663 760 LINE",
"831 760 LINE",
"534 48 LINE",
"227 760 LINE",
"397 760 LINE",
"397 805 LINE",
"17 805 LINE",
"17 760 LINE",
"164 760 LINE"
);
}
);
width = 1054;
},
{
associatedMasterId = "98C086B7-81AA-4491-8494-0C6A76849168";
layerId = "F1FF1ABA-62FC-47FE-8C22-7F2E258D7325";
name = b;
width = 1054;
},
{
layerId = "BE4F947C-73D7-4684-AEED-17801393DA53";
paths = (
{
closed = 1;
nodes = (
"459 0 LINE",
"595 0 LINE",
"909 696 LINE",
"1039 696 LINE",
"1039 804 LINE",
"632 804 LINE",
"632 696 LINE",
"762 696 LINE",
"539 155 LINE",
"314 696 LINE",
"445 696 LINE",
"445 804 LINE",
"14 804 LINE",
"14 696 LINE",
"151 696 LINE"
);
}
);
width = 1053;
},
{
layerId = "EFCDB4D9-E20B-4A8D-9DB5-150AD166B0AE";
paths = (
{
closed = 1;
nodes = (
"157 580 LINE",
"470 0 LINE",
"777 0 LINE",
"1080 580 LINE",
"1196 580 LINE",
"1196 804 LINE",
"722 804 LINE",
"722 580 LINE",
"812 580 LINE",
"679 321 LINE",
"544 580 LINE",
"619 580 LINE",
"619 804 LINE",
"36 804 LINE",
"36 580 LINE"
);
}
);
width = 1232;
}
);
unicode = 0076;
userData = {
com.typemytype.robofont.layerData = {
b = {
anchors = (
);
components = (
);
contours = (
);
lib = {
};
name = v;
unicodes = (
);
width = 1054;
};
};
org.robofab.postScriptHintData = {
};
};
},
{
glyphname = w;
lastChange = "2016-08-04 09:26:30 +0000";
layers = (
{
anchors = (
{
name = top;
position = "{777, 804}";
}
);
layerId = "98C086B7-81AA-4491-8494-0C6A76849168";
paths = (
{
closed = 1;
nodes = (
"440 0 LINE",
"513 0 LINE",
"776 708 LINE",
"1040 0 LINE",
"1110 0 LINE",
"1373 760 LINE",
"1509 760 LINE",
"1509 805 LINE",
"1175 805 LINE",
"1175 760 LINE",
"1315 760 LINE",
"1074 47 LINE",
"807 760 LINE",
"955 760 LINE",
"955 805 LINE",
"597 805 LINE",
"597 760 LINE",
"742 760 LINE",
"479 45 LINE",
"226 760 LINE",
"380 760 LINE",
"380 805 LINE",
"33 805 LINE",
"33 760 LINE",
"165 760 LINE"
);
}
);
width = 1558;
},
{
associatedMasterId = "98C086B7-81AA-4491-8494-0C6A76849168";
layerId = "AA24764D-4BDC-46E3-8EE6-4F97266E5FD9";
name = b;
width = 1574;
},
{
anchors = (
{
name = top;
position = "{740, 804}";
}
);
layerId = "BE4F947C-73D7-4684-AEED-17801393DA53";
paths = (
{
closed = 1;
nodes = (
"379 0 LINE",
"526 0 LINE",
"733 571 LINE",
"941 0 LINE",
"1087 0 LINE",
"1330 696 LINE",
"1441 696 LINE",
"1441 804 LINE",
"1080 804 LINE",
"1080 696 LINE",
"1192 696 LINE",
"1015 147 LINE",
"817 696 LINE",
"933 696 LINE",
"933 804 LINE",
"538 804 LINE",
"538 696 LINE",
"653 696 LINE",
"462 149 LINE",
"273 696 LINE",
"383 696 LINE",
"383 804 LINE",
"18 804 LINE",
"18 696 LINE",
"124 696 LINE"
);
}
);
width = 1464;
},
{
anchors = (
{
name = top;
position = "{847, 804}";
}
);
layerId = "EFCDB4D9-E20B-4A8D-9DB5-150AD166B0AE";
paths = (
{
closed = 1;
nodes = (
"164 580 LINE",
"371 0 LINE",
"673 0 LINE",
"802 342 LINE",
"943 0 LINE",
"1180 0 LINE",
"1374 580 LINE",
"1475 580 LINE",
"1475 804 LINE",
"1142 804 LINE",
"1142 580 LINE",
"1220 580 LINE",
"1102 264 LINE",
"983 580 LINE",
"1052 580 LINE",
"1052 804 LINE",
"647 804 LINE",
"647 580 LINE",
"722 580 LINE",
"597 263 LINE",
"494 580 LINE",
"562 580 LINE",
"562 804 LINE",
"48 804 LINE",
"48 580 LINE"
);
}
);
width = 1524;
}
);
unicode = 0077;
userData = {
com.typemytype.robofont.layerData = {
b = {
anchors = (
);
components = (
);
contours = (
);
lib = {
};
name = w;
unicodes = (
);
width = 1574;
};
};
org.robofab.postScriptHintData = {
};
};
},
{
glyphname = x;
lastChange = "2016-08-04 09:26:30 +0000";
layers = (
{
layerId = "98C086B7-81AA-4491-8494-0C6A76849168";
paths = (
{
closed = 1;
nodes = (
"50 0 LINE",
"414 0 LINE",
"414 45 LINE",
"261 45 LINE",
"539 383 LINE",
"825 45 LINE",
"649 45 LINE",
"649 0 LINE",
"1035 0 LINE",
"1035 45 LINE",
"882 45 LINE",
"573 412 LINE",
"859 759 LINE",
"1024 759 LINE",
"1024 804 LINE",
"639 804 LINE",
"639 759 LINE",
"801 759 LINE",
"544 446 LINE",
"281 759 LINE",
"442 759 LINE",
"442 804 LINE",
"74 804 LINE",
"74 759 LINE",
"222 759 LINE",
"509 416 LINE",
"199 45 LINE",
"50 45 LINE"
);
}
);
width = 1080;
},
{
associatedMasterId = "98C086B7-81AA-4491-8494-0C6A76849168";
layerId = "CFCDE023-C911-4BD5-B00F-4084D53B4429";
name = b;
width = 1088;
},
{
layerId = "BE4F947C-73D7-4684-AEED-17801393DA53";
paths = (
{
closed = 1;
nodes = (
"49 0 LINE",
"439 0 LINE",
"439 109 LINE",
"314 109 LINE",
"512 338 LINE",
"718 109 LINE",
"582 109 LINE",
"582 0 LINE",
"994 0 LINE",
"994 109 LINE",
"872 109 LINE",
"599 417 LINE",
"845 696 LINE",
"990 696 LINE",
"990 804 LINE",
"586 804 LINE",
"586 696 LINE",
"706 696 LINE",
"523 483 LINE",
"338 696 LINE",
"459 696 LINE",
"459 804 LINE",
"53 804 LINE",
"53 696 LINE",
"184 696 LINE",
"438 411 LINE",
"171 109 LINE",
"49 109 LINE"
);
}
);
width = 1033;
},
{
layerId = "EFCDB4D9-E20B-4A8D-9DB5-150AD166B0AE";
paths = (
{
closed = 1;
nodes = (
"23 224 LINE",
"23 0 LINE",
"438 0 LINE",
"438 224 LINE",
"340 224 LINE",
"486 318 LINE",
"626 224 LINE",
"543 224 LINE",
"543 0 LINE",
"1082 0 LINE",
"1082 224 LINE",
"979 224 LINE",
"710 438 LINE",
"938 580 LINE",
"1062 580 LINE",
"1062 804 LINE",
"660 804 LINE",
"660 580 LINE",
"740 580 LINE",
"616 498 LINE",
"501 580 LINE",
"535 580 LINE",
"535 804 LINE",
"31 804 LINE",
"31 580 LINE",
"147 580 LINE",
"382 393 LINE",
"131 224 LINE"
);
}
);
width = 1115;
}
);
unicode = 0078;
userData = {
com.typemytype.robofont.layerData = {
b = {
anchors = (
);
components = (
);
contours = (
);
lib = {
};
name = x;
unicodes = (
);
width = 1088;
};
};
org.robofab.postScriptHintData = {
};
};
},
{
glyphname = y;
lastChange = "2016-08-04 09:26:30 +0000";
layers = (
{
anchors = (
{
name = top;
position = "{566, 804}";
}
);
layerId = "98C086B7-81AA-4491-8494-0C6A76849168";
paths = (
{
closed = 1;
nodes = (
"235 -250 LINE",
"317 -250 LINE SMOOTH",
"458 -250 OFFCURVE",
"502 -220 OFFCURVE",
"554 -96 CURVE SMOOTH",
"921 759 LINE",
"1052 759 LINE",
"1052 804 LINE",
"690 804 LINE",
"690 759 LINE",
"860 759 LINE",
"575 83 LINE",
"275 759 LINE",
"420 759 LINE",
"420 804 LINE",
"47 804 LINE",
"47 759 LINE",
"213 759 LINE",
"528 62 LINE",
"565 62 LINE",
"501 -84 LINE SMOOTH",
"459 -181 OFFCURVE",
"436 -197 OFFCURVE",
"315 -197 CURVE SMOOTH",
"235 -197 LINE"
);
}
);
width = 1071;
},
{
associatedMasterId = "98C086B7-81AA-4491-8494-0C6A76849168";
layerId = "BA24BF7A-8D51-43A0-B8F7-17A368B51314";
name = b;
width = 1072;
},
{
anchors = (
{
name = top;
position = "{547, 804}";
}
);
layerId = "BE4F947C-73D7-4684-AEED-17801393DA53";
paths = (
{
closed = 1;
nodes = (
"206 -325 LINE",
"312 -325 LINE SMOOTH",
"520 -325 OFFCURVE",
"553 -235 OFFCURVE",
"627 -47 CURVE SMOOTH",
"926 696 LINE",
"1057 696 LINE",
"1057 804 LINE",
"637 804 LINE",
"637 696 LINE",
"777 696 LINE",
"561 149 LINE",
"320 696 LINE",
"439 696 LINE",
"439 804 LINE",
"17 804 LINE",
"17 696 LINE",
"166 696 LINE",
"464 51 LINE",
"528 51 LINE",
"486 -67 LINE SMOOTH",
"443 -190 OFFCURVE",
"403 -203 OFFCURVE",
"298 -203 CURVE SMOOTH",
"206 -203 LINE"
);
}
);
width = 1062;
},
{
anchors = (
{
name = top;
position = "{617, 804}";
}
);
layerId = "EFCDB4D9-E20B-4A8D-9DB5-150AD166B0AE";
paths = (
{
closed = 1;
nodes = (
"216 -102 LINE",
"216 -353 LINE",
"346 -353 LINE SMOOTH",
"517 -353 OFFCURVE",
"596 -315 OFFCURVE",
"697 -139 CURVE SMOOTH",
"1101 580 LINE",
"1212 580 LINE",
"1212 804 LINE",
"650 804 LINE",
"650 580 LINE",
"754 580 LINE",
"619 325 LINE",
"469 580 LINE",
"575 580 LINE",
"575 804 LINE",
"18 804 LINE",
"18 580 LINE",
"150 580 LINE",
"434 85 LINE",
"515 85 LINE",
"459 -12 LINE SMOOTH",
"409 -97 OFFCURVE",
"358 -102 OFFCURVE",
"324 -102 CURVE SMOOTH"
);
}
);
width = 1232;
}
);
unicode = 0079;
userData = {
com.typemytype.robofont.layerData = {
b = {
anchors = (
);
components = (
);
contours = (
);
lib = {
};
name = y;
unicodes = (
);
width = 1072;
};
};
org.robofab.postScriptHintData = {
};
};
},
{
glyphname = z;
lastChange = "2016-08-04 09:26:30 +0000";
layers = (
{
anchors = (
{
name = top;
position = "{481, 804}";
}
);
layerId = "98C086B7-81AA-4491-8494-0C6A76849168";
paths = (
{
closed = 1;
nodes = (
"144 0 LINE",
"791 0 LINE",
"791 266 LINE",
"739 266 LINE",
"739 44 LINE",
"212 44 LINE",
"777 747 LINE",
"777 805 LINE",
"170 805 LINE",
"170 567 LINE",
"224 567 LINE",
"224 761 LINE",
"719 761 LINE",
"144 52 LINE"
);
}
);
width = 947;
},
{
associatedMasterId = "98C086B7-81AA-4491-8494-0C6A76849168";
layerId = "5C029C3C-8C5A-4E2A-B121-1F78AEF9B385";
name = b;
width = 955;
},
{
anchors = (
{
name = top;
position = "{476, 804}";
}
);
layerId = "BE4F947C-73D7-4684-AEED-17801393DA53";
paths = (
{
closed = 1;
nodes = (
"105 0 LINE",
"810 0 LINE",
"810 287 LINE",
"692 287 LINE",
"692 103 LINE",
"281 103 LINE",
"798 692 LINE",
"798 804 LINE",
"115 804 LINE",
"115 534 LINE",
"230 534 LINE",
"230 700 LINE",
"622 700 LINE",
"105 107 LINE"
);
}
);
width = 896;
},
{
anchors = (
{
name = top;
position = "{510, 804}";
}
);
layerId = "EFCDB4D9-E20B-4A8D-9DB5-150AD166B0AE";
paths = (
{
closed = 1;
nodes = (
"84 199 LINE",
"84 0 LINE",
"988 0 LINE",
"988 372 LINE",
"759 372 LINE",
"759 191 LINE",
"498 191 LINE",
"940 594 LINE",
"940 804 LINE",
"83 804 LINE",
"83 453 LINE",
"313 453 LINE",
"313 610 LINE",
"519 610 LINE"
);
}
);
width = 1041;
}
);
unicode = 007A;
userData = {
com.typemytype.robofont.layerData = {
b = {
anchors = (
);
components = (
);
contours = (
);
lib = {
};
name = z;
unicodes = (
);
width = 955;
};
};
org.robofab.postScriptHintData = {
};
};
},
{
glyphname = f_j;
lastChange = "2016-08-04 09:26:23 +0000";
layers = (
{
layerId = "98C086B7-81AA-4491-8494-0C6A76849168";
paths = (
{
closed = 1;
nodes = (
"896 804 LINE",
"336 804 LINE",
"336 947 LINE SMOOTH",
"336 1086 OFFCURVE",
"456 1168 OFFCURVE",
"645 1168 CURVE SMOOTH",
"710 1168 OFFCURVE",
"810 1153 OFFCURVE",
"833 1103 CURVE",
"807 1097 OFFCURVE",
"796 1075 OFFCURVE",
"796 1054 CURVE SMOOTH",
"796 1024 OFFCURVE",
"823 1004 OFFCURVE",
"860 1004 CURVE SMOOTH",
"896 1004 OFFCURVE",
"917 1029 OFFCURVE",
"917 1065 CURVE SMOOTH",
"917 1155 OFFCURVE",
"809 1211 OFFCURVE",
"648 1211 CURVE SMOOTH",
"423 1211 OFFCURVE",
"276 1113 OFFCURVE",
"276 945 CURVE SMOOTH",
"276 804 LINE",
"108 804 LINE",
"108 759 LINE",
"276 759 LINE",
"276 45 LINE",
"113 45 LINE",
"113 0 LINE",
"534 0 LINE",
"534 45 LINE",
"336 45 LINE",
"336 759 LINE",
"834 759 LINE",
"834 -36 LINE SMOOTH",
"834 -150 OFFCURVE",
"837 -206 OFFCURVE",
"698 -206 CURVE SMOOTH",
"633 -206 LINE",
"633 -250 LINE",
"707 -250 LINE SMOOTH",
"916 -250 OFFCURVE",
"896 -109 OFFCURVE",
"896 -26 CURVE SMOOTH"
);
}
);
width = 1067;
},
{
layerId = "BE4F947C-73D7-4684-AEED-17801393DA53";
paths = (
{
closed = 1;
nodes = (
"996 804 LINE",
"395 804 LINE",
"395 914 LINE SMOOTH",
"395 1103 OFFCURVE",
"497 1177 OFFCURVE",
"650 1177 CURVE SMOOTH",
"724 1177 OFFCURVE",
"808 1156 OFFCURVE",
"844 1117 CURVE",
"829 1104 OFFCURVE",
"821 1084 OFFCURVE",
"821 1064 CURVE SMOOTH",
"821 1013 OFFCURVE",
"864 975 OFFCURVE",
"918 975 CURVE SMOOTH",
"973 975 OFFCURVE",
"1014 1015 OFFCURVE",
"1014 1068 CURVE SMOOTH",
"1014 1188 OFFCURVE",
"844 1266 OFFCURVE",
"650 1266 CURVE SMOOTH",
"420 1266 OFFCURVE",
"243 1160 OFFCURVE",
"243 916 CURVE SMOOTH",
"243 804 LINE",
"100 804 LINE",
"100 696 LINE",
"243 696 LINE",
"243 108 LINE",
"104 108 LINE",
"104 0 LINE",
"573 0 LINE",
"573 108 LINE",
"395 108 LINE",
"395 696 LINE",
"843 696 LINE",
"843 -21 LINE SMOOTH",
"843 -139 OFFCURVE",
"825 -193 OFFCURVE",
"709 -193 CURVE SMOOTH",
"624 -193 LINE",
"624 -311 LINE",
"712 -311 LINE SMOOTH",
"985 -311 OFFCURVE",
"996 -159 OFFCURVE",
"996 23 CURVE SMOOTH"
);
}
);
width = 1202;
}
);
userData = {
org.robofab.postScriptHintData = {
};
};
},
{
glyphname = uniFB00;
lastChange = "2016-08-04 09:26:30 +0000";
layers = (
{
layerId = "98C086B7-81AA-4491-8494-0C6A76849168";
paths = (
{
closed = 1;
nodes = (
"1119 760 LINE",
"1119 805 LINE",
"886 805 LINE",
"886 1030 LINE SMOOTH",
"886 1106 OFFCURVE",
"939 1147 OFFCURVE",
"986 1147 CURVE SMOOTH",
"1035 1147 OFFCURVE",
"1091 1133 OFFCURVE",
"1102 1040 CURVE",
"1145 1058 LINE",
"1133 1167 OFFCURVE",
"1056 1195 OFFCURVE",
"985 1195 CURVE SMOOTH",
"909 1195 OFFCURVE",
"827 1137 OFFCURVE",
"827 1025 CURVE SMOOTH",
"827 805 LINE",
"324 804 LINE",
"324 1027 LINE SMOOTH",
"324 1107 OFFCURVE",
"363 1149 OFFCURVE",
"428 1149 CURVE SMOOTH",
"493 1149 OFFCURVE",
"528 1113 OFFCURVE",
"537 1040 CURVE",
"582 1058 LINE",
"574 1147 OFFCURVE",
"518 1195 OFFCURVE",
"426 1195 CURVE SMOOTH",
"320 1195 OFFCURVE",
"261 1133 OFFCURVE",
"261 1028 CURVE SMOOTH",
"261 804 LINE",
"106 804 LINE",
"106 759 LINE",
"261 759 LINE",
"261 45 LINE",
"111 45 LINE",
"111 0 LINE",
"513 0 LINE",
"513 45 LINE",
"324 45 LINE",
"324 759 LINE",
"827 760 LINE",
"827 45 LINE",
"674 45 LINE",
"674 0 LINE",
"1078 0 LINE",
"1078 45 LINE",
"886 45 LINE",
"886 760 LINE"
);
}
);
width = 1342;
},
{
layerId = "BE4F947C-73D7-4684-AEED-17801393DA53";
paths = (
{
closed = 1;
nodes = (
"1203 696 LINE",
"1203 804 LINE",
"1005 804 LINE",
"1005 975 LINE SMOOTH",
"1005 1071 OFFCURVE",
"1044 1113 OFFCURVE",
"1098 1113 CURVE SMOOTH",
"1158 1113 OFFCURVE",
"1187 1076 OFFCURVE",
"1198 999 CURVE",
"1314 1032 LINE",
"1304 1180 OFFCURVE",
"1195 1220 OFFCURVE",
"1093 1220 CURVE SMOOTH",
"937 1220 OFFCURVE",
"854 1125 OFFCURVE",
"854 976 CURVE SMOOTH",
"854 804 LINE",
"396 804 LINE",
"396 974 LINE SMOOTH",
"396 1072 OFFCURVE",
"430 1114 OFFCURVE",
"490 1114 CURVE SMOOTH",
"555 1114 OFFCURVE",
"577 1069 OFFCURVE",
"588 999 CURVE",
"705 1032 LINE",
"695 1174 OFFCURVE",
"594 1220 OFFCURVE",
"485 1220 CURVE SMOOTH",
"319 1220 OFFCURVE",
"243 1124 OFFCURVE",
"243 977 CURVE SMOOTH",
"243 804 LINE",
"87 804 LINE",
"87 696 LINE",
"243 696 LINE",
"243 109 LINE",
"91 109 LINE",
"91 0 LINE",
"568 0 LINE",
"568 109 LINE",
"396 109 LINE",
"396 696 LINE",
"854 696 LINE",
"854 109 LINE",
"712 109 LINE",
"712 0 LINE",
"1191 0 LINE",
"1191 109 LINE",
"1005 109 LINE",
"1005 696 LINE"
);
}
);
width = 1345;
},
{
layerId = "EFCDB4D9-E20B-4A8D-9DB5-150AD166B0AE";
paths = (
{
closed = 1;
nodes = (
"63 0 LINE",
"861 0 LINE",
"861 224 LINE",
"610 224 LINE",
"610 580 LINE",
"1191 580 LINE",
"1191 224 LINE",
"993 224 LINE",
"993 0 LINE",
"1788 0 LINE",
"1788 224 LINE",
"1543 224 LINE",
"1543 580 LINE",
"1789 580 LINE",
"1789 804 LINE",
"1543 804 LINE",
"1543 884 LINE SMOOTH",
"1543 1034 OFFCURVE",
"1557 1043 OFFCURVE",
"1593 1043 CURVE SMOOTH",
"1632 1043 OFFCURVE",
"1630 1007 OFFCURVE",
"1643 924 CURVE",
"1895 1007 LINE",
"1868 1152 OFFCURVE",
"1811 1247 OFFCURVE",
"1571 1247 CURVE SMOOTH",
"1213 1247 OFFCURVE",
"1191 1060 OFFCURVE",
"1191 801 CURVE SMOOTH",
"1191 804 LINE",
"610 804 LINE",
"610 884 LINE SMOOTH",
"610 1034 OFFCURVE",
"663 1043 OFFCURVE",
"700 1043 CURVE SMOOTH",
"772 1043 OFFCURVE",
"772 1007 OFFCURVE",
"786 924 CURVE",
"1037 1007 LINE",
"1010 1152 OFFCURVE",
"951 1247 OFFCURVE",
"638 1247 CURVE SMOOTH",
"280 1247 OFFCURVE",
"258 988 OFFCURVE",
"258 801 CURVE SMOOTH",
"258 804 LINE",
"64 804 LINE",
"64 580 LINE",
"258 580 LINE",
"258 224 LINE",
"63 224 LINE"
);
}
);
width = 1819;
}
);
userData = {
org.robofab.postScriptHintData = {
};
};
},
